<svg width="96" height="96" viewBox="0 0 96 96" fill="none" xmlns="http://www.w3.org/2000/svg">
<path d="M0 22C0 9.84974 9.84974 0 22 0H74C86.1503 0 96 9.84974 96 22V74C96 86.1503 86.1503 96 74 96H22C9.84974 96 0 86.1503 0 74V22Z" fill="#F47121"/>
<path fill-rule="evenodd" clip-rule="evenodd" d="M75.2527 40.3392L84.3037 38.9106C84.6618 38.8392 85 39.0892 85 39.4285V41.9106C85 42.1785 84.7812 42.3928 84.5027 42.4463L82.2548 42.8035C82.9908 43.7856 83.4086 44.9999 83.4086 46.3749C83.4086 50.4106 79.7484 54.2678 75.2527 54.9821C73.1242 55.3213 71.1747 54.8928 69.7226 53.9106C68.6086 55.2678 66.9575 56.3035 65.1075 56.5892C63.2376 56.8749 61.5865 56.3749 60.4925 55.3571C59.0403 56.8035 57.0908 57.8571 54.9623 58.1963C52.8339 58.5356 50.8844 58.1071 49.4322 57.1249C48.3183 58.4821 46.6672 59.5178 44.8172 59.8035C41.5349 60.3213 38.8494 58.3392 38.8494 55.3928V46.9106C38.8494 46.6428 39.0683 46.4285 39.3468 46.3749L42.1317 45.9285C42.4898 45.8749 42.8279 46.1249 42.8279 46.4642V54.7678C42.8279 55.7499 43.7231 56.4106 44.8172 56.2321C45.9113 56.0535 46.8064 55.1071 46.8064 54.1249V52.3392V52.1606C46.8064 48.1249 50.4666 44.2678 54.9623 43.5535C56.4941 43.3035 57.9263 43.4642 59.1398 43.9285V32.9821C59.1398 32.7142 59.3387 32.4999 59.6371 32.4463L62.422 31.9999C62.7801 31.9463 63.1183 32.1963 63.1183 32.5356V51.5535C63.1183 52.5356 64.0134 53.1963 65.1075 53.0178C66.2016 52.8392 67.0968 51.8928 67.0968 50.9106V49.1249V48.9463C67.0968 44.9821 70.6575 41.1606 75.0537 40.3749L75.2527 40.3392ZM50.7849 51.5356C50.7849 53.6071 52.6548 54.9821 54.9623 54.6249C57.2699 54.2499 59.1398 52.2856 59.1398 50.2142C59.1398 48.1428 57.2699 46.7678 54.9623 47.1249C52.6548 47.4821 50.7849 49.4642 50.7849 51.5356ZM75.2527 51.4106C77.5602 51.0535 79.4301 49.0713 79.4301 46.9999C79.4301 44.9285 77.5602 43.5356 75.2527 43.9106C72.9451 44.2678 71.0752 46.2499 71.0752 48.3213C71.0752 50.3928 72.9451 51.7678 75.2527 51.4106ZM34.1747 47.1963L26.914 48.3391V41.1963L54.2661 36.8748C54.5446 36.8213 54.7635 36.607 54.7635 36.3391V33.857C54.7635 33.5177 54.4253 33.2677 54.0672 33.3213L15.4758 39.4284C15.1973 39.482 14.9785 39.6963 14.9785 39.9641V42.4463C14.9785 42.7856 15.3167 43.0356 15.6747 42.982L22.9355 41.8213V48.9641L18.957 49.5891C14.5608 50.2856 11 54.0534 11 57.9998C11 61.9463 14.5608 64.5713 18.957 63.8748C23.3532 63.1784 26.914 59.4105 26.914 55.4641V51.8927L34.3737 50.7141C34.6522 50.6606 34.871 50.4463 34.871 50.1784V47.7141C34.871 47.3927 34.5328 47.1427 34.1747 47.1963ZM22.9355 56.107C22.9355 58.0713 21.1452 59.9641 18.957 60.3034C16.7688 60.6427 14.9785 59.3391 14.9785 57.357C14.9785 55.3748 16.7688 53.4998 18.957 53.1606L22.9355 52.5356V56.107ZM42.0873 43.5544C42.8959 42.7616 42.9472 41.6222 42.2018 41.0095C41.4564 40.3968 40.1965 40.5428 39.3878 41.3356C38.5792 42.1284 38.5279 43.2678 39.2733 43.8805C40.0187 44.4932 41.2786 44.3472 42.0873 43.5544Z" fill="white"/>
</svg>
