<svg width="296" height="117" viewBox="0 0 296 117" fill="none" xmlns="http://www.w3.org/2000/svg">
<path d="M70.6826 114.542C78.8253 114.542 85.4262 107.972 85.4262 99.8678C85.4262 91.7637 78.8253 85.194 70.6826 85.194C62.5399 85.194 55.939 91.7637 55.939 99.8678C55.939 107.972 62.5399 114.542 70.6826 114.542Z" fill="#F4BF31" stroke="#1F1F1F" stroke-width="1.71852" stroke-miterlimit="10" stroke-linecap="round" stroke-linejoin="round"/>
<path d="M67.9074 114.542C76.0501 114.542 82.6511 107.972 82.6511 99.8678C82.6511 91.7637 76.0501 85.194 67.9074 85.194C59.7648 85.194 53.1638 91.7637 53.1638 99.8678C53.1638 107.972 59.7648 114.542 67.9074 114.542Z" fill="#F4BF31" stroke="#1F1F1F" stroke-width="1.71852" stroke-miterlimit="10" stroke-linecap="round" stroke-linejoin="round"/>
<path d="M256.019 114.542C264.161 114.542 270.762 107.972 270.762 99.8678C270.762 91.7637 264.161 85.194 256.019 85.194C247.876 85.194 241.275 91.7637 241.275 99.8678C241.275 107.972 247.876 114.542 256.019 114.542Z" fill="#F4BF31" stroke="#1F1F1F" stroke-width="1.71852" stroke-miterlimit="10" stroke-linecap="round" stroke-linejoin="round"/>
<path d="M253.243 114.542C261.386 114.542 267.987 107.972 267.987 99.8678C267.987 91.7637 261.386 85.194 253.243 85.194C245.101 85.194 238.5 91.7637 238.5 99.8678C238.5 107.972 245.101 114.542 253.243 114.542Z" fill="#F4BF31" stroke="#1F1F1F" stroke-width="1.71852" stroke-miterlimit="10" stroke-linecap="round" stroke-linejoin="round"/>
<path d="M258.273 51.0128L223.322 12.9474C216.211 5.26522 206.237 0.863098 195.656 0.863098H194.009H24.1968H12.8355C9.10625 0.863098 6.0708 3.88417 6.0708 7.59576V99.8678H28.1862H46.3122H256.799H272.497H274.925H290.623V74.3182C290.623 70.2613 288.368 66.5497 284.725 64.7371L258.273 51.0128Z" fill="#F4BF31" stroke="#1F1F1F" stroke-width="1.71852" stroke-miterlimit="10" stroke-linecap="round" stroke-linejoin="round"/>
<path d="M272.497 91.322H6.0708V99.8673H272.497V91.322Z" fill="#F4BF31" stroke="#1F1F1F" stroke-width="1.71852" stroke-miterlimit="10" stroke-linecap="round" stroke-linejoin="round"/>
<path d="M174.408 91.8403V11.3073C174.408 9.14941 172.674 7.5094 170.592 7.5094H87.8546C85.6864 7.5094 84.0386 9.23572 84.0386 11.3073V91.8403C84.0386 93.9983 85.7731 95.6383 87.8546 95.6383H170.592C172.674 95.6383 174.408 93.9119 174.408 91.8403Z" fill="#F4BF31" stroke="#1F1F1F" stroke-width="1.71852" stroke-miterlimit="10" stroke-linecap="round" stroke-linejoin="round"/>
<path d="M174.408 11.4801H92.4512V91.5815H174.408V11.4801Z" fill="#F4BF31" stroke="#1F1F1F" stroke-width="1.71852" stroke-miterlimit="10" stroke-linecap="round" stroke-linejoin="round"/>
<path d="M142.84 63.6151H111.271V91.3226H142.84V63.6151Z" fill="#F4BF31" stroke="#1F1F1F" stroke-width="1.71852" stroke-miterlimit="10" stroke-linecap="round" stroke-linejoin="round"/>
<path d="M116.301 63.96H111.271V91.0633H116.301V63.96Z" fill="#F4BF31" stroke="#1F1F1F" stroke-width="1.71852" stroke-miterlimit="10" stroke-linecap="round" stroke-linejoin="round"/>
<path d="M118.73 63.96H116.215V91.0633H118.73V63.96Z" fill="#F4BF31" stroke="#1F1F1F" stroke-width="1.71852" stroke-miterlimit="10" stroke-linecap="round" stroke-linejoin="round"/>
<path d="M174.409 63.6151H142.84V91.3226H174.409V63.6151Z" fill="#F4BF31" stroke="#1F1F1F" stroke-width="1.71852" stroke-miterlimit="10" stroke-linecap="round" stroke-linejoin="round"/>
<path d="M174.408 37.1155H101.991V50.7534H174.408V37.1155Z" fill="#F4BF31" stroke="#1F1F1F" stroke-width="1.71852" stroke-miterlimit="10" stroke-linecap="round" stroke-linejoin="round"/>
<path d="M174.408 23.4779H101.991V37.1159H174.408V23.4779Z" fill="#F4BF31" stroke="#1F1F1F" stroke-width="1.71852" stroke-miterlimit="10" stroke-linecap="round" stroke-linejoin="round"/>
<path d="M90.9767 61.8888H28.2729" stroke="#1F1F1F" stroke-width="1.71852" stroke-miterlimit="10" stroke-linecap="round" stroke-linejoin="round"/>
<path d="M6.0708 65.3417H7.45844C9.01953 65.3417 10.3204 66.6364 10.3204 68.1901V92.0997H6.0708V65.3417Z" fill="#F4BF31" stroke="#1F1F1F" stroke-width="1.71852" stroke-miterlimit="10" stroke-linecap="round" stroke-linejoin="round"/>
<path d="M250.728 99.8675C250.728 89.8548 242.576 81.6548 232.429 81.6548C222.368 81.6548 214.129 89.7685 214.129 99.8675H250.728Z" fill="#F4BF31" stroke="#1F1F1F" stroke-width="1.71852" stroke-miterlimit="10" stroke-linecap="round" stroke-linejoin="round"/>
<path d="M69.2952 99.8675C69.2952 89.8548 61.1428 81.6548 50.9957 81.6548C40.8486 81.6548 32.6963 89.7685 32.6963 99.8675H69.2952Z" fill="#F4BF31" stroke="#1F1F1F" stroke-width="1.71852" stroke-miterlimit="10" stroke-linecap="round" stroke-linejoin="round"/>
<path d="M0.867188 114.455H295.133" stroke="#1F1F1F" stroke-width="1.71852" stroke-miterlimit="10" stroke-linecap="round" stroke-linejoin="round"/>
<path d="M53.5976 114.542C61.7403 114.542 68.3413 107.972 68.3413 99.8678C68.3413 91.7637 61.7403 85.194 53.5976 85.194C45.455 85.194 38.854 91.7637 38.854 99.8678C38.854 107.972 45.455 114.542 53.5976 114.542Z" fill="#F4BF31" stroke="#1F1F1F" stroke-width="1.71852" stroke-miterlimit="10" stroke-linecap="round" stroke-linejoin="round"/>
<path d="M50.8222 114.542C58.9649 114.542 65.5659 107.972 65.5659 99.8678C65.5659 91.7637 58.9649 85.194 50.8222 85.194C42.6796 85.194 36.0786 91.7637 36.0786 99.8678C36.0786 107.972 42.6796 114.542 50.8222 114.542Z" fill="#F4BF31" stroke="#1F1F1F" stroke-width="1.71852" stroke-miterlimit="10" stroke-linecap="round" stroke-linejoin="round"/>
<path d="M50.8222 104.961C53.6482 104.961 55.9391 102.681 55.9391 99.8683C55.9391 97.0558 53.6482 94.7757 50.8222 94.7757C47.9962 94.7757 45.7053 97.0558 45.7053 99.8683C45.7053 102.681 47.9962 104.961 50.8222 104.961Z" fill="#F4BF31" stroke="#1F1F1F" stroke-width="1.71852" stroke-miterlimit="10" stroke-linecap="round" stroke-linejoin="round"/>
<path d="M234.424 114.542C242.566 114.542 249.167 107.972 249.167 99.8678C249.167 91.7637 242.566 85.194 234.424 85.194C226.281 85.194 219.68 91.7637 219.68 99.8678C219.68 107.972 226.281 114.542 234.424 114.542Z" fill="#F4BF31" stroke="#1F1F1F" stroke-width="1.71852" stroke-miterlimit="10" stroke-linecap="round" stroke-linejoin="round"/>
<path d="M231.648 114.542C239.791 114.542 246.392 107.972 246.392 99.8678C246.392 91.7637 239.791 85.194 231.648 85.194C223.506 85.194 216.905 91.7637 216.905 99.8678C216.905 107.972 223.506 114.542 231.648 114.542Z" fill="#F4BF31" stroke="#1F1F1F" stroke-width="1.71852" stroke-miterlimit="10" stroke-linecap="round" stroke-linejoin="round"/>
<path d="M231.648 104.961C234.474 104.961 236.765 102.681 236.765 99.8683C236.765 97.0558 234.474 94.7757 231.648 94.7757C228.822 94.7757 226.531 97.0558 226.531 99.8683C226.531 102.681 228.822 104.961 231.648 104.961Z" fill="#F4BF31" stroke="#1F1F1F" stroke-width="1.71852" stroke-miterlimit="10" stroke-linecap="round" stroke-linejoin="round"/>
<path d="M111.271 94.0845V8.02727C111.271 6.47358 110.057 5.17883 108.496 5.17883H41.6293C40.0682 5.17883 38.854 6.47358 38.854 8.02727V94.0845C38.854 95.6382 40.0682 96.933 41.6293 96.933H108.409C109.97 96.933 111.271 95.6382 111.271 94.0845Z" fill="#F4BF31" stroke="#1F1F1F" stroke-width="1.71852" stroke-miterlimit="10" stroke-linecap="round" stroke-linejoin="round"/>
<path d="M106.675 94.0845V8.02727C106.675 6.47358 105.46 5.17883 103.899 5.17883H37.1193C35.5582 5.17883 34.344 6.47358 34.344 8.02727V94.0845C34.344 95.6382 35.5582 96.933 37.1193 96.933H103.899C105.46 96.933 106.675 95.6382 106.675 94.0845Z" fill="#F4BF31" stroke="#1F1F1F" stroke-width="1.71852" stroke-miterlimit="10" stroke-linecap="round" stroke-linejoin="round"/>
<path d="M181.954 25.3771H202.768C204.85 25.3771 206.931 26.2402 208.319 27.8802L225.664 47.3877C227.139 49.0277 225.925 51.5309 223.756 51.5309H181.954C180.566 51.5309 179.439 50.4088 179.439 49.0277V27.9666C179.439 26.4992 180.566 25.3771 181.954 25.3771Z" fill="#F4BF31" stroke="#1F1F1F" stroke-width="1.71852" stroke-miterlimit="10" stroke-linecap="round" stroke-linejoin="round"/>
<path d="M186.03 25.3771H202.768C204.85 25.3771 206.931 26.2402 208.319 27.8802L225.664 47.3877C227.139 49.0277 225.925 51.5309 223.756 51.5309H186.03C184.642 51.5309 183.515 50.4088 183.515 49.0277V27.9666C183.515 26.4992 184.642 25.3771 186.03 25.3771Z" fill="#F4BF31" stroke="#1F1F1F" stroke-width="1.71852" stroke-miterlimit="10" stroke-linecap="round" stroke-linejoin="round"/>
<path d="M272.497 99.8678V74.3182C272.497 70.2613 270.242 66.5497 266.599 64.7371L240.148 51.0991L205.197 12.9474C198.085 5.26522 188.111 0.863098 177.531 0.863098H159.058" stroke="#1F1F1F" stroke-width="1.71852" stroke-miterlimit="10" stroke-linecap="round" stroke-linejoin="round"/>
<path d="M293.658 99.8674H267.12C266.166 99.8674 265.385 99.0906 265.385 98.1411V93.1348C265.385 92.1853 266.166 91.4084 267.12 91.4084H293.658C294.526 91.4084 295.133 92.099 295.133 92.8758V98.4001C295.133 99.1769 294.526 99.8674 293.658 99.8674Z" fill="#F4BF31" stroke="#1F1F1F" stroke-width="1.71852" stroke-miterlimit="10" stroke-linecap="round" stroke-linejoin="round"/>
<path d="M8.93282 99.8673H2.34155C1.56101 99.8673 0.867188 99.2631 0.867188 98.4V92.7894C0.867188 92.0125 1.47428 91.322 2.34155 91.322H8.93282C9.71337 91.322 10.4072 91.9262 10.4072 92.7894V98.4C10.3205 99.1768 9.71337 99.8673 8.93282 99.8673Z" fill="#F4BF31" stroke="#1F1F1F" stroke-width="1.71852" stroke-miterlimit="10" stroke-linecap="round" stroke-linejoin="round"/>
<path d="M285.072 69.0529C285.679 70.0887 285.94 71.0381 286.113 71.815C286.286 72.5055 286.894 73.0234 287.674 73.0234H290.536C290.536 73.0234 290.363 70.3476 288.368 67.6718H285.853C285.159 67.6718 284.725 68.4487 285.072 69.0529Z" fill="#F4BF31" stroke="#1F1F1F" stroke-width="1.71852" stroke-miterlimit="10" stroke-linecap="round" stroke-linejoin="round"/>
<path d="M290.536 73.0234C290.536 73.0234 290.363 70.3476 288.368 67.6718C287.067 67.6718 287.674 67.6718 287.674 67.6718" fill="#F4BF31"/>
<path d="M290.536 73.0234C290.536 73.0234 290.363 70.3476 288.368 67.6718C287.067 67.6718 287.674 67.6718 287.674 67.6718" stroke="#1F1F1F" stroke-width="1.71852" stroke-miterlimit="10" stroke-linecap="round" stroke-linejoin="round"/>
<path d="M221.328 50.3221H222.542C223.409 50.3221 224.103 49.6316 224.103 48.7684V47.0421C224.103 46.1789 223.409 45.4884 222.542 45.4884H221.328C220.461 45.4884 219.767 46.1789 219.767 47.0421V48.7684C219.767 49.6316 220.461 50.3221 221.328 50.3221Z" fill="#F4BF31" stroke="#1F1F1F" stroke-width="1.71852" stroke-miterlimit="10" stroke-linecap="round" stroke-linejoin="round"/>
<path d="M221.501 48.7685H215.777V39.1011H221.501C222.108 39.1011 222.629 39.619 222.629 40.2232V47.6464C222.629 48.2506 222.108 48.7685 221.501 48.7685Z" fill="#F4BF31" stroke="#1F1F1F" stroke-width="1.71852" stroke-miterlimit="10" stroke-linecap="round" stroke-linejoin="round"/>
<path d="M215.69 48.7685H214.563C213.956 48.7685 213.436 48.2506 213.436 47.6464V40.2232C213.436 39.619 213.956 39.1011 214.563 39.1011H215.69C216.384 39.1011 216.905 39.619 216.905 40.3095V47.5601C216.991 48.2506 216.384 48.7685 215.69 48.7685Z" fill="#F4BF31" stroke="#1F1F1F" stroke-width="1.71852" stroke-miterlimit="10" stroke-linecap="round" stroke-linejoin="round"/>
<path d="M265.385 69.053V71.7288C265.385 72.4194 265.992 73.0236 266.686 73.0236H275.619C276.226 73.0236 276.66 72.5057 276.486 71.9015C276.313 71.0383 275.879 69.7436 275.012 68.4488C274.752 68.0172 274.231 67.7583 273.624 67.7583H266.599C265.906 67.672 265.385 68.2762 265.385 69.053Z" fill="#F4BF31" stroke="#1F1F1F" stroke-width="1.71852" stroke-miterlimit="10" stroke-linecap="round" stroke-linejoin="round"/>
<path d="M218.379 25.3771H232.516C233.903 25.3771 235.204 25.9813 236.158 27.0171L257.06 49.7182C257.493 50.2361 257.146 51.013 256.453 51.013H242.316C240.928 51.013 239.627 50.4088 238.673 49.373L217.859 26.7581C217.339 26.2402 217.685 25.3771 218.379 25.3771Z" fill="#F4BF31" stroke="#1F1F1F" stroke-width="1.71852" stroke-miterlimit="10" stroke-linecap="round" stroke-linejoin="round"/>
<path d="M276.92 76.9076V86.7476" stroke="#1F1F1F" stroke-width="1.71852" stroke-miterlimit="10" stroke-linecap="round" stroke-linejoin="round"/>
<path d="M280.129 76.9076V86.7476" stroke="#1F1F1F" stroke-width="1.71852" stroke-miterlimit="10" stroke-linecap="round" stroke-linejoin="round"/>
<path d="M283.251 76.9076V86.7476" stroke="#1F1F1F" stroke-width="1.71852" stroke-miterlimit="10" stroke-linecap="round" stroke-linejoin="round"/>
<path d="M182.908 61.8888H191.32" stroke="#1F1F1F" stroke-width="1.71852" stroke-miterlimit="10" stroke-linecap="round" stroke-linejoin="round"/>
<path d="M286.46 76.9076V86.7476" stroke="#1F1F1F" stroke-width="1.71852" stroke-miterlimit="10" stroke-linecap="round" stroke-linejoin="round"/>
<path d="M90.9768 61.8888H99.3893" stroke="#1F1F1F" stroke-width="1.71852" stroke-miterlimit="10" stroke-linecap="round" stroke-linejoin="round"/>
<path d="M41.4556 14.76H98.0884" stroke="#1F1F1F" stroke-width="1.71852" stroke-miterlimit="10" stroke-linecap="round" stroke-linejoin="round"/>
<path d="M41.4556 54.3788H98.0884" stroke="#1F1F1F" stroke-width="1.71852" stroke-miterlimit="10" stroke-linecap="round" stroke-linejoin="round"/>
<path d="M17.4321 14.76H34.2572" stroke="#1F1F1F" stroke-width="1.71852" stroke-miterlimit="10" stroke-linecap="round" stroke-linejoin="round"/>
<path d="M17.4321 54.3788H34.2572" stroke="#1F1F1F" stroke-width="1.71852" stroke-miterlimit="10" stroke-linecap="round" stroke-linejoin="round"/>
<path d="M149.344 73.5412V81.396" stroke="#1F1F1F" stroke-width="1.71852" stroke-miterlimit="10" stroke-linecap="round" stroke-linejoin="round"/>
<path d="M118.729 76.9937H142.84" stroke="#1F1F1F" stroke-width="1.71852" stroke-miterlimit="10" stroke-linecap="round" stroke-linejoin="round"/>
<path d="M118.73 67.4993H142.84" stroke="#1F1F1F" stroke-width="1.71852" stroke-miterlimit="10" stroke-linecap="round" stroke-linejoin="round"/>
<path d="M118.729 86.4023H142.84" stroke="#1F1F1F" stroke-width="1.71852" stroke-miterlimit="10" stroke-linecap="round" stroke-linejoin="round"/>
<path d="M124.193 75.2675V76.7349C124.193 76.8212 124.107 76.9938 123.933 76.9938H121.418C121.331 76.9938 121.158 76.9075 121.158 76.7349V75.2675V75.1812L121.331 74.7496C121.505 74.4907 121.505 74.2317 121.505 73.8864V73.6275C121.505 73.3685 121.505 73.1959 121.418 72.937L121.071 72.1601V72.0738V70.0022C121.071 69.9159 121.071 69.9159 121.158 69.8296L121.765 69.0527C121.765 69.0527 121.852 68.9664 121.852 68.8801V68.1033C121.852 68.0169 121.939 67.8443 122.112 67.8443H123.066C123.153 67.8443 123.326 67.9306 123.326 68.1033V68.8801C123.326 68.9664 123.326 68.9664 123.413 69.0527L124.107 69.8296C124.107 69.8296 124.193 69.9159 124.193 70.0022V72.0738V72.1601L123.847 73.0233C123.76 73.1959 123.76 73.4549 123.76 73.6275V73.8001C123.76 74.1454 123.847 74.4043 124.02 74.6633L124.193 75.0086C124.193 75.1812 124.193 75.1812 124.193 75.2675Z" fill="#C1C1BF" stroke="#1F1F1F" stroke-width="1.71852" stroke-miterlimit="10" stroke-linecap="round" stroke-linejoin="round"/>
<path d="M129.484 75.2675V76.7349C129.484 76.8212 129.397 76.9938 129.224 76.9938H126.708C126.622 76.9938 126.448 76.9075 126.448 76.7349V75.2675V75.1812L126.622 74.7496C126.795 74.4907 126.795 74.2317 126.795 73.8864V73.6275C126.795 73.3685 126.795 73.1959 126.708 72.937L126.362 72.1601V72.0738V70.0022C126.362 69.9159 126.362 69.9159 126.448 69.8296L127.055 69.0527C127.055 69.0527 127.142 68.9664 127.142 68.8801V68.1033C127.142 68.0169 127.229 67.8443 127.402 67.8443H128.356C128.443 67.8443 128.616 67.9306 128.616 68.1033V68.8801C128.616 68.9664 128.616 68.9664 128.703 69.0527L129.397 69.8296C129.397 69.8296 129.484 69.9159 129.484 70.0022V72.0738V72.1601L129.137 73.0233C129.05 73.1959 129.05 73.4549 129.05 73.6275V73.8001C129.05 74.1454 129.137 74.4043 129.31 74.6633L129.484 75.0086C129.484 75.1812 129.484 75.1812 129.484 75.2675Z" fill="#F47121" stroke="#1F1F1F" stroke-width="1.71852" stroke-miterlimit="10" stroke-linecap="round" stroke-linejoin="round"/>
<path d="M134.687 75.2675V76.7349C134.687 76.8212 134.601 76.9938 134.427 76.9938H131.912C131.825 76.9938 131.652 76.9075 131.652 76.7349V75.2675V75.1812L131.825 74.7496C131.999 74.4907 131.999 74.2317 131.999 73.8864V73.6275C131.999 73.3685 131.999 73.1959 131.912 72.937L131.565 72.1601V72.0738V70.0022C131.565 69.9159 131.565 69.9159 131.652 69.8296L132.259 69.0527C132.259 69.0527 132.346 68.9664 132.346 68.8801V68.1033C132.346 68.0169 132.432 67.8443 132.606 67.8443H133.56C133.647 67.8443 133.82 67.9306 133.82 68.1033V68.8801C133.82 68.9664 133.82 68.9664 133.907 69.0527L134.601 69.8296C134.601 69.8296 134.687 69.9159 134.687 70.0022V72.0738V72.1601L134.34 73.0233C134.254 73.1959 134.254 73.4549 134.254 73.6275V73.8001C134.254 74.1454 134.34 74.4043 134.514 74.6633L134.687 75.0086C134.687 75.1812 134.687 75.1812 134.687 75.2675Z" fill="#C1C1BF" stroke="#1F1F1F" stroke-width="1.71852" stroke-miterlimit="10" stroke-linecap="round" stroke-linejoin="round"/>
<path d="M139.978 75.2675V76.7349C139.978 76.8212 139.891 76.9938 139.718 76.9938H137.203C137.116 76.9938 136.942 76.9075 136.942 76.7349V75.2675V75.1812L137.116 74.7496C137.289 74.4907 137.289 74.2317 137.289 73.8864V73.6275C137.289 73.3685 137.289 73.1959 137.203 72.937L136.856 72.1601V72.0738V70.0022C136.856 69.9159 136.856 69.9159 136.942 69.8296L137.55 69.0527C137.55 69.0527 137.636 68.9664 137.636 68.8801V68.1033C137.636 68.0169 137.723 67.8443 137.896 67.8443H138.85C138.937 67.8443 139.111 67.9306 139.111 68.1033V68.8801C139.111 68.9664 139.111 68.9664 139.197 69.0527L139.891 69.8296C139.891 69.8296 139.978 69.9159 139.978 70.0022V72.0738V72.1601L139.631 73.0233C139.544 73.1959 139.544 73.4549 139.544 73.6275V73.8001C139.544 74.1454 139.631 74.4043 139.804 74.6633L139.978 75.0086C139.978 75.1812 139.978 75.1812 139.978 75.2675Z" fill="#F47121" stroke="#1F1F1F" stroke-width="1.71852" stroke-miterlimit="10" stroke-linecap="round" stroke-linejoin="round"/>
<path d="M124.367 79.843H121.071V86.403H124.367V79.843Z" fill="#F47121" stroke="#1F1F1F" stroke-width="1.71852" stroke-miterlimit="10" stroke-linecap="round" stroke-linejoin="round"/>
<path d="M129.571 79.843H126.275V86.403H129.571V79.843Z" fill="#C1C1BF" stroke="#1F1F1F" stroke-width="1.71852" stroke-miterlimit="10" stroke-linecap="round" stroke-linejoin="round"/>
<path d="M134.861 79.843H131.565V86.403H134.861V79.843Z" fill="#F47121" stroke="#1F1F1F" stroke-width="1.71852" stroke-miterlimit="10" stroke-linecap="round" stroke-linejoin="round"/>
<path d="M140.151 79.843H136.856V86.403H140.151V79.843Z" fill="#C1C1BF" stroke="#1F1F1F" stroke-width="1.71852" stroke-miterlimit="10" stroke-linecap="round" stroke-linejoin="round"/>
<path d="M121.071 57.5727H113.786V60.7664H121.071V57.5727Z" fill="#F47121" stroke="#1F1F1F" stroke-width="1.71852" stroke-miterlimit="10" stroke-linecap="round" stroke-linejoin="round"/>
<path d="M121.071 54.3788H113.786V57.5725H121.071V54.3788Z" fill="#C1C1BF" stroke="#1F1F1F" stroke-width="1.71852" stroke-miterlimit="10" stroke-linecap="round" stroke-linejoin="round"/>
<path d="M131.652 57.5727H124.367V60.7664H131.652V57.5727Z" fill="#C1C1BF" stroke="#1F1F1F" stroke-width="1.71852" stroke-miterlimit="10" stroke-linecap="round" stroke-linejoin="round"/>
<path d="M131.652 54.3788H124.367V57.5725H131.652V54.3788Z" fill="#F47121" stroke="#1F1F1F" stroke-width="1.71852" stroke-miterlimit="10" stroke-linecap="round" stroke-linejoin="round"/>
<path d="M142.233 57.5727H134.948V60.7664H142.233V57.5727Z" fill="#F47121" stroke="#1F1F1F" stroke-width="1.71852" stroke-miterlimit="10" stroke-linecap="round" stroke-linejoin="round"/>
<path d="M142.233 54.3788H134.948V57.5725H142.233V54.3788Z" fill="#C1C1BF" stroke="#1F1F1F" stroke-width="1.71852" stroke-miterlimit="10" stroke-linecap="round" stroke-linejoin="round"/>
<path d="M152.813 57.5727H145.528V60.7664H152.813V57.5727Z" fill="#C1C1BF" stroke="#1F1F1F" stroke-width="1.71852" stroke-miterlimit="10" stroke-linecap="round" stroke-linejoin="round"/>
<path d="M152.813 54.3788H145.528V57.5725H152.813V54.3788Z" fill="#F47121" stroke="#1F1F1F" stroke-width="1.71852" stroke-miterlimit="10" stroke-linecap="round" stroke-linejoin="round"/>
<path d="M163.394 57.5727H156.109V60.7664H163.394V57.5727Z" fill="#F47121" stroke="#1F1F1F" stroke-width="1.71852" stroke-miterlimit="10" stroke-linecap="round" stroke-linejoin="round"/>
<path d="M163.394 54.3788H156.109V57.5725H163.394V54.3788Z" fill="#C1C1BF" stroke="#1F1F1F" stroke-width="1.71852" stroke-miterlimit="10" stroke-linecap="round" stroke-linejoin="round"/>
<path d="M121.071 43.9351H113.786V47.1288H121.071V43.9351Z" fill="#C1C1BF" stroke="#1F1F1F" stroke-width="1.71852" stroke-miterlimit="10" stroke-linecap="round" stroke-linejoin="round"/>
<path d="M121.071 40.7408H113.786V43.9345H121.071V40.7408Z" fill="#F47121" stroke="#1F1F1F" stroke-width="1.71852" stroke-miterlimit="10" stroke-linecap="round" stroke-linejoin="round"/>
<path d="M131.652 43.9351H124.367V47.1288H131.652V43.9351Z" fill="#F47121" stroke="#1F1F1F" stroke-width="1.71852" stroke-miterlimit="10" stroke-linecap="round" stroke-linejoin="round"/>
<path d="M131.652 40.7408H124.367V43.9345H131.652V40.7408Z" fill="#C1C1BF" stroke="#1F1F1F" stroke-width="1.71852" stroke-miterlimit="10" stroke-linecap="round" stroke-linejoin="round"/>
<path d="M142.233 43.9351H134.948V47.1288H142.233V43.9351Z" fill="#C1C1BF" stroke="#1F1F1F" stroke-width="1.71852" stroke-miterlimit="10" stroke-linecap="round" stroke-linejoin="round"/>
<path d="M142.233 40.7408H134.948V43.9345H142.233V40.7408Z" fill="#F47121" stroke="#1F1F1F" stroke-width="1.71852" stroke-miterlimit="10" stroke-linecap="round" stroke-linejoin="round"/>
<path d="M152.813 43.9351H145.528V47.1288H152.813V43.9351Z" fill="#F47121" stroke="#1F1F1F" stroke-width="1.71852" stroke-miterlimit="10" stroke-linecap="round" stroke-linejoin="round"/>
<path d="M152.813 40.7408H145.528V43.9345H152.813V40.7408Z" fill="#C1C1BF" stroke="#1F1F1F" stroke-width="1.71852" stroke-miterlimit="10" stroke-linecap="round" stroke-linejoin="round"/>
<path d="M163.394 43.9351H156.109V47.1288H163.394V43.9351Z" fill="#C1C1BF" stroke="#1F1F1F" stroke-width="1.71852" stroke-miterlimit="10" stroke-linecap="round" stroke-linejoin="round"/>
<path d="M163.394 40.7408H156.109V43.9345H163.394V40.7408Z" fill="#F47121" stroke="#1F1F1F" stroke-width="1.71852" stroke-miterlimit="10" stroke-linecap="round" stroke-linejoin="round"/>
<path d="M119.944 27.8801H113.786V34.0086H119.944V27.8801Z" fill="#C1C1BF" stroke="#1F1F1F" stroke-width="1.71852" stroke-miterlimit="10" stroke-linecap="round" stroke-linejoin="round"/>
<path d="M129.05 27.8801H122.892V34.0086H129.05V27.8801Z" fill="#F47121" stroke="#1F1F1F" stroke-width="1.71852" stroke-miterlimit="10" stroke-linecap="round" stroke-linejoin="round"/>
<path d="M138.156 27.8801H131.999V34.0086H138.156V27.8801Z" fill="#C1C1BF" stroke="#1F1F1F" stroke-width="1.71852" stroke-miterlimit="10" stroke-linecap="round" stroke-linejoin="round"/>
<path d="M147.35 27.8801H141.192V34.0086H147.35V27.8801Z" fill="#F47121" stroke="#1F1F1F" stroke-width="1.71852" stroke-miterlimit="10" stroke-linecap="round" stroke-linejoin="round"/>
<path d="M156.456 27.8801H150.298V34.0086H156.456V27.8801Z" fill="#C1C1BF" stroke="#1F1F1F" stroke-width="1.71852" stroke-miterlimit="10" stroke-linecap="round" stroke-linejoin="round"/>
<path d="M165.562 27.8801H159.405V34.0086H165.562V27.8801Z" fill="#F47121" stroke="#1F1F1F" stroke-width="1.71852" stroke-miterlimit="10" stroke-linecap="round" stroke-linejoin="round"/>
<path d="M174.409 27.8801H168.511V34.0086H174.409V27.8801Z" fill="#C1C1BF" stroke="#1F1F1F" stroke-width="1.71852" stroke-miterlimit="10" stroke-linecap="round" stroke-linejoin="round"/>
<path d="M119.944 13.4653H113.786V21.579H119.944V13.4653Z" fill="#F47121" stroke="#1F1F1F" stroke-width="1.71852" stroke-miterlimit="10" stroke-linecap="round" stroke-linejoin="round"/>
<path d="M129.05 13.4653H122.892V21.579H129.05V13.4653Z" fill="#C1C1BF" stroke="#1F1F1F" stroke-width="1.71852" stroke-miterlimit="10" stroke-linecap="round" stroke-linejoin="round"/>
<path d="M138.156 13.4653H131.999V21.579H138.156V13.4653Z" fill="#F47121" stroke="#1F1F1F" stroke-width="1.71852" stroke-miterlimit="10" stroke-linecap="round" stroke-linejoin="round"/>
<path d="M147.35 13.4653H141.192V21.579H147.35V13.4653Z" fill="#C1C1BF" stroke="#1F1F1F" stroke-width="1.71852" stroke-miterlimit="10" stroke-linecap="round" stroke-linejoin="round"/>
<path d="M156.456 13.4653H150.298V21.579H156.456V13.4653Z" fill="#F47121" stroke="#1F1F1F" stroke-width="1.71852" stroke-miterlimit="10" stroke-linecap="round" stroke-linejoin="round"/>
<path d="M165.562 13.4653H159.405V21.579H165.562V13.4653Z" fill="#C1C1BF" stroke="#1F1F1F" stroke-width="1.71852" stroke-miterlimit="10" stroke-linecap="round" stroke-linejoin="round"/>
<path d="M174.409 13.4653H168.511V21.579H174.409V13.4653Z" fill="#F47121" stroke="#1F1F1F" stroke-width="1.71852" stroke-miterlimit="10" stroke-linecap="round" stroke-linejoin="round"/>
<path d="M147.003 70.9523L147.523 73.0239C147.61 73.1965 147.436 73.3691 147.263 73.4554L143.62 74.4049C143.447 74.4912 143.273 74.3186 143.187 74.146L142.666 72.0744C142.666 71.9881 142.666 71.9881 142.666 71.9017L142.84 71.2112C142.927 70.7796 142.927 70.348 142.84 69.9165L142.753 69.5712C142.666 69.2259 142.493 68.967 142.319 68.6217L141.539 67.5859L141.452 67.4996L140.672 64.4785C140.672 64.3922 140.672 64.3059 140.672 64.2196L141.279 62.8385C141.279 62.7522 141.279 62.6659 141.279 62.5796L141.019 61.3712C140.932 61.1985 141.105 61.0259 141.279 60.9396L142.753 60.5943C142.927 60.508 143.1 60.6806 143.187 60.8533L143.534 61.9754C143.534 62.0617 143.62 62.148 143.62 62.148L144.921 63.0975C145.008 63.1838 145.008 63.1838 145.008 63.2701L145.789 66.2912V66.3775L145.615 67.7586C145.615 68.1038 145.615 68.4491 145.702 68.708L145.789 69.0533C145.875 69.4849 146.135 69.9165 146.482 70.2617L146.916 70.6933C146.916 70.8659 147.003 70.8659 147.003 70.9523Z" fill="#F4BF31" stroke="#1F1F1F" stroke-width="1.71852" stroke-miterlimit="10" stroke-linecap="round" stroke-linejoin="round"/>
<path d="M140.672 64.4787L145.008 63.3566" stroke="#1F1F1F" stroke-width="1.71852" stroke-miterlimit="10" stroke-linecap="round" stroke-linejoin="round"/>
<path d="M141.452 67.4996L145.789 66.3775" stroke="#1F1F1F" stroke-width="1.71852" stroke-miterlimit="10" stroke-linecap="round" stroke-linejoin="round"/>
<path d="M147.783 66.5499L143.534 65.9457C143.274 65.9457 143.1 65.9457 142.84 66.032L142.493 66.2046C142.233 66.2909 141.973 66.5499 141.886 66.8088L141.539 67.4994C141.539 67.4994 142.059 67.931 142.406 67.5857C142.667 67.3267 142.84 67.0678 143.274 66.9815C143.794 66.8952 144.141 67.3267 144.141 67.3267C144.141 67.3267 144.054 67.2404 143.534 67.1541C143.1 67.1541 142.493 67.4131 142.233 67.8446C142.059 68.0173 141.973 68.2762 141.973 68.4489L141.886 69.2257C141.886 69.2257 142.667 69.6573 142.927 68.8804C143.1 68.2762 143.013 68.5352 143.1 68.3625C143.187 68.1899 143.447 68.1899 143.621 68.1899C143.794 68.1899 144.401 68.4489 144.401 68.4489C144.401 68.4489 143.534 68.5352 143.274 68.6215C143.013 68.7941 142.84 68.8804 142.667 69.1394C142.493 69.3983 142.233 70.0889 142.233 70.0889C142.233 70.0889 142.667 70.6068 143.1 70.2615C143.274 70.0889 143.36 69.7436 143.447 69.6573C143.534 69.4846 143.707 69.4846 143.881 69.4846C144.054 69.4846 144.921 69.312 144.921 69.312L144.314 69.8299C144.314 69.8299 143.881 70.2615 143.707 70.4341C143.621 70.6068 143.36 70.952 143.36 70.952C143.36 70.952 143.534 71.2973 143.967 71.2973C144.314 71.2973 144.835 70.6068 144.835 70.6068L145.702 70.2615C145.702 70.2615 146.656 70.4341 147.263 70.1752C147.87 69.9162 148.391 69.4846 148.391 69.4846L147.783 66.5499Z" fill="#F4BF31" stroke="#1F1F1F" stroke-width="1.71852" stroke-miterlimit="10" stroke-linecap="round" stroke-linejoin="round"/>
<path d="M165.649 42.3813C168.667 42.3813 171.113 39.9467 171.113 36.9434C171.113 33.9401 168.667 31.5055 165.649 31.5055C162.632 31.5055 160.185 33.9401 160.185 36.9434C160.185 39.9467 162.632 42.3813 165.649 42.3813Z" fill="#F4BF31" stroke="#1F1F1F" stroke-width="1.71852" stroke-miterlimit="10" stroke-linecap="round" stroke-linejoin="round"/>
<path d="M161.052 39.7917L164.088 43.9349C164.695 44.7117 165.736 44.9706 166.603 44.4527L167.817 43.6759C167.817 43.6759 170.246 41.3454 170.939 37.8064C171.633 34.2674 162.353 36.339 162.353 36.339L161.052 39.7917Z" fill="#F4BF31" stroke="#1F1F1F" stroke-width="1.71852" stroke-miterlimit="10" stroke-linecap="round" stroke-linejoin="round"/>
<path d="M178.485 82.0867L178.398 84.1583C178.311 86.0572 178.485 87.9562 178.918 89.7688L185.51 104.702C185.857 105.392 187.938 106.342 187.938 106.342L192.188 105.91V101.939L186.464 88.3014C186.117 86.6614 186.203 84.9351 186.724 83.2951L189.065 75.6993C190.106 72.2466 190.019 68.6214 188.719 65.255L187.591 62.3203C187.591 62.3203 183.688 62.0613 179.352 64.3919C175.016 66.7224 172.674 67.8445 172.674 67.8445L168.685 82.173C167.991 84.5035 167.817 87.0067 168.164 89.4236L169.899 103.579C170.159 104.443 171.373 106.6 171.373 106.6L175.709 106.255L176.23 101.853L175.97 89.3372C175.97 87.5246 176.403 85.6256 177.357 84.072L183.862 72.7645" fill="#1F1F1F"/>
<path d="M178.485 82.0867L178.398 84.1583C178.311 86.0572 178.485 87.9562 178.918 89.7688L185.51 104.702C185.857 105.392 187.938 106.342 187.938 106.342L192.188 105.91V101.939L186.464 88.3014C186.117 86.6614 186.203 84.9351 186.724 83.2951L189.065 75.6993C190.106 72.2466 190.019 68.6214 188.719 65.255L187.591 62.3203C187.591 62.3203 183.688 62.0613 179.352 64.3919C175.016 66.7224 172.674 67.8445 172.674 67.8445L168.685 82.173C167.991 84.5035 167.817 87.0067 168.164 89.4236L169.899 103.579C170.159 104.443 171.373 106.6 171.373 106.6L175.709 106.255L176.23 101.853L175.97 89.3372C175.97 87.5246 176.403 85.6256 177.357 84.072L183.862 72.7645" stroke="#1F1F1F" stroke-width="1.71852" stroke-miterlimit="10" stroke-linecap="round" stroke-linejoin="round"/>
<path d="M170.332 39.7915C170.332 39.7915 170.853 42.4673 172.934 43.5894C175.016 44.7115 167.817 46.6105 167.817 46.6105V45.8336C167.817 45.8336 167.47 44.021 166.083 42.6399" fill="#F4BF31"/>
<path d="M170.332 39.7915C170.332 39.7915 170.853 42.4673 172.934 43.5894C175.016 44.7115 167.817 46.6105 167.817 46.6105V45.8336C167.817 45.8336 167.47 44.021 166.083 42.6399" stroke="#1F1F1F" stroke-width="1.71852" stroke-miterlimit="10" stroke-linecap="round" stroke-linejoin="round"/>
<path d="M179.352 46.2655C182.995 49.8045 184.382 52.8255 186.203 57.1413C187.765 60.9392 188.372 64.6508 188.372 64.6508C188.372 64.6508 183.688 62.8382 177.964 65.3414C172.24 67.8445 170.593 69.9161 170.593 69.9161V69.8298C170.679 68.0172 171.113 65.514 170.593 62.5792C169.985 59.6445 169.205 57.7455 169.205 57.7455C169.205 57.7455 167.47 57.055 167.037 56.0192L169.378 52.3076L163.828 61.1119C162.7 62.9245 161.139 64.5645 159.318 65.7729L154.028 69.2256C153.16 69.8298 152.12 70.2614 151.166 70.5203L150.212 70.7793C149.605 70.9519 148.911 70.8656 148.304 70.434C147.87 70.0888 147.61 69.6572 147.523 69.2256L147.35 68.4487C147.263 67.8445 147.35 67.3266 147.697 66.8087L147.87 66.5498C148.043 66.3772 148.217 66.2045 148.39 66.0319L156.109 60.8529C156.976 60.2487 157.67 59.4719 158.191 58.5224L163.221 48.9413C163.741 47.9055 164.608 47.1287 165.736 46.6971L174.755 43.3307C176.49 42.7265 178.398 43.1581 179.699 44.4529L182.648 47.4739C184.556 49.3729 185.683 51.876 185.77 54.5518L185.857 56.4508" fill="#C1C1BF"/>
<path d="M179.352 46.2655C182.995 49.8045 184.382 52.8255 186.203 57.1413C187.765 60.9392 188.372 64.6508 188.372 64.6508C188.372 64.6508 183.688 62.8382 177.964 65.3414C172.24 67.8445 170.593 69.9161 170.593 69.9161V69.8298C170.679 68.0172 171.113 65.514 170.593 62.5792C169.985 59.6445 169.205 57.7455 169.205 57.7455C169.205 57.7455 167.47 57.055 167.037 56.0192L169.378 52.3076L163.828 61.1119C162.7 62.9245 161.139 64.5645 159.318 65.7729L154.028 69.2256C153.16 69.8298 152.12 70.2614 151.166 70.5203L150.212 70.7793C149.605 70.9519 148.911 70.8656 148.304 70.434C147.87 70.0888 147.61 69.6572 147.523 69.2256L147.35 68.4487C147.263 67.8445 147.35 67.3266 147.697 66.8087L147.87 66.5498C148.043 66.3772 148.217 66.2045 148.39 66.0319L156.109 60.8529C156.976 60.2487 157.67 59.4719 158.191 58.5224L163.221 48.9413C163.741 47.9055 164.608 47.1287 165.736 46.6971L174.755 43.3307C176.49 42.7265 178.398 43.1581 179.699 44.4529L182.648 47.4739C184.556 49.3729 185.683 51.876 185.77 54.5518L185.857 56.4508" stroke="#1F1F1F" stroke-width="1.71852" stroke-miterlimit="10" stroke-linecap="round" stroke-linejoin="round"/>
<path d="M170.679 69.7435C170.679 69.7435 170.332 70.2614 171.893 70.434L170.679 69.7435Z" fill="#F4BF31"/>
<path d="M170.679 69.7435C170.679 69.7435 170.332 70.2614 171.893 70.434" stroke="#1F1F1F" stroke-width="1.71852" stroke-miterlimit="10" stroke-linecap="round" stroke-linejoin="round"/>
<path d="M171.633 106.687L172.24 112.297H175.016L175.189 106.428L171.633 106.687Z" fill="#F4BF31" stroke="#1F1F1F" stroke-width="1.71852" stroke-miterlimit="10" stroke-linecap="round" stroke-linejoin="round"/>
<path d="M187.851 106.428L191.234 111.348L193.749 111.003L192.101 105.996L187.851 106.428Z" fill="#F4BF31" stroke="#1F1F1F" stroke-width="1.71852" stroke-miterlimit="10" stroke-linecap="round" stroke-linejoin="round"/>
<path d="M188.545 109.017C188.545 109.017 188.805 110.312 186.897 110.83C184.989 111.261 184.469 111.089 183.949 111.866C183.515 112.642 184.903 114.628 188.805 114.628C192.708 114.628 195.397 113.851 195.397 113.851C195.397 113.851 194.356 110.83 194.182 109.535C194.096 108.24 190.54 109.19 189.933 109.621C189.499 109.967 188.892 110.053 188.545 109.017Z" fill="#F4BF31" stroke="#1F1F1F" stroke-width="1.71852" stroke-miterlimit="10" stroke-linecap="round" stroke-linejoin="round"/>
<path d="M195.049 112.212C195.049 112.212 190.8 114.628 184.469 113.075L195.049 112.212Z" fill="#F4BF31"/>
<path d="M195.049 112.212C195.049 112.212 190.8 114.628 184.469 113.075" stroke="#1F1F1F" stroke-width="1.71852" stroke-miterlimit="10" stroke-linecap="round" stroke-linejoin="round"/>
<path d="M170.506 109.018C170.506 109.018 169.552 110.312 167.644 110.83C165.736 111.262 165.215 111.089 164.695 111.866C164.261 112.643 165.649 114.628 169.552 114.628C173.454 114.628 177.357 113.851 177.357 113.851C177.357 113.851 176.316 110.83 176.143 109.536C176.056 108.241 173.281 108.931 172.934 109.622C172.761 110.226 170.853 110.053 170.506 109.018Z" fill="#F4BF31" stroke="#1F1F1F" stroke-width="1.71852" stroke-miterlimit="10" stroke-linecap="round" stroke-linejoin="round"/>
<path d="M176.924 112.212C176.924 112.212 171.46 114.628 165.129 113.075L176.924 112.212Z" fill="#F4BF31"/>
<path d="M176.924 112.212C176.924 112.212 171.46 114.628 165.129 113.075" stroke="#1F1F1F" stroke-width="1.71852" stroke-miterlimit="10" stroke-linecap="round" stroke-linejoin="round"/>
<path d="M171.113 36.9429C171.113 39.964 172.153 42.2082 169.205 41.8629C165.215 41.345 162.006 41.1724 160.532 38.1513C159.144 35.4755 162.353 31.0734 165.736 31.5913C168.684 31.9366 171.113 33.9218 171.113 36.9429Z" fill="#1F1F1F" stroke="#1F1F1F" stroke-width="1.71852" stroke-miterlimit="10" stroke-linecap="round" stroke-linejoin="round"/>
<path d="M171.113 42.6404C172.55 42.6404 173.715 41.481 173.715 40.0509C173.715 38.6207 172.55 37.4614 171.113 37.4614C169.676 37.4614 168.511 38.6207 168.511 40.0509C168.511 41.481 169.676 42.6404 171.113 42.6404Z" fill="#1F1F1F" stroke="#1F1F1F" stroke-width="1.71852" stroke-miterlimit="10" stroke-linecap="round" stroke-linejoin="round"/>
</svg>
