<svg width="296" height="117" viewBox="0 0 296 117" fill="none" xmlns="http://www.w3.org/2000/svg">
<g clip-path="url(#clip0_271_5423)">
<rect width="296" height="117" rx="26" fill="#F4BF31"/>
<path d="M162.977 85.1095C162.045 82.4878 163.385 79.5748 166.007 78.6427L174.688 75.4966C177.309 74.5645 180.222 75.9044 181.155 78.5262C182.087 81.1479 180.747 84.0609 178.125 84.993L169.444 88.1391C166.823 89.0712 163.91 87.7312 162.977 85.1095Z" fill="#E8E7E5" stroke="#1F1F1F" stroke-width="1.72" stroke-miterlimit="10" stroke-linecap="round" stroke-linejoin="round"/>
<path d="M146.49 109.054C155.462 102.005 148.82 61.747 148.82 61.747L131.925 55.2801L120.564 63.4365L120.797 72.1173L120.564 65.4174C120.448 62.2131 120.681 59.0088 121.321 55.921L124.001 42.7542C124.934 39.3169 123.594 35.6465 120.564 33.6656C118.408 32.2091 115.437 33.2578 114.622 35.763L108.796 53.474C106.29 61.1061 105.009 69.146 105.125 77.1859L105.242 91.1101C105.3 97.5769 99.6261 120.647 97.2957 126.648C107.969 126.649 121.845 126.649 134.488 126.649C136.76 121.289 140.897 113.424 146.49 109.054Z" fill="#E8E7E5" stroke="#1F1F1F" stroke-width="1.72" stroke-miterlimit="10" stroke-linecap="round" stroke-linejoin="round"/>
<path d="M148.529 60.2325L142.178 52.6004L173.231 26.7329C175.328 24.9851 178.474 25.2764 180.222 27.3738C181.97 29.4711 181.679 32.6172 179.581 34.365L148.529 60.2325Z" fill="#E8E7E5" stroke="#1F1F1F" stroke-width="1.72" stroke-miterlimit="10" stroke-linecap="round" stroke-linejoin="round"/>
<path d="M149.17 70.6029L144.334 62.6796C144.218 62.4465 144.276 62.1552 144.509 61.9804L175.212 43.3372C177.659 41.8807 180.805 42.6381 182.261 45.085C183.718 47.5319 182.961 50.678 180.514 52.1345L149.811 70.7777C149.636 70.8942 149.345 70.836 149.17 70.6029Z" fill="#E8E7E5" stroke="#1F1F1F" stroke-width="1.72" stroke-miterlimit="10" stroke-linecap="round" stroke-linejoin="round"/>
<path d="M148.879 77.1861L148.82 77.0695C147.713 74.5643 148.82 71.5931 151.384 70.4861L174.863 60.0576C177.426 58.9506 180.397 60.0576 181.563 62.621C182.669 65.1845 181.563 68.1557 178.999 69.3209L155.52 79.7495C152.957 80.8564 150.044 79.6912 148.879 77.1861Z" fill="#E8E7E5" stroke="#1F1F1F" stroke-width="1.72" stroke-miterlimit="10" stroke-linecap="round" stroke-linejoin="round"/>
<path d="M164.492 109.054H132.449C128.254 109.054 124.817 105.617 124.817 101.422V15.8965C124.817 11.7017 128.254 8.2644 132.449 8.2644H164.492C168.687 8.2644 172.124 11.7017 172.124 15.8965V101.422C172.124 105.617 168.687 109.054 164.492 109.054Z" fill="#696A68" stroke="#1F1F1F" stroke-width="1.72" stroke-miterlimit="10" stroke-linecap="round" stroke-linejoin="round"/>
<path d="M164.376 105.792H132.566C130.177 105.792 128.254 103.869 128.254 101.48V15.838C128.254 13.4493 130.177 11.5267 132.566 11.5267H164.376C166.764 11.5267 168.687 13.4493 168.687 15.838V101.48C168.687 103.869 166.764 105.792 164.376 105.792Z" fill="white" stroke="#1F1F1F" stroke-width="1.72" stroke-miterlimit="10" stroke-linecap="round" stroke-linejoin="round"/>
<path d="M133.323 15.4301H138.916" stroke="#1F1F1F" stroke-width="1.72" stroke-miterlimit="10" stroke-linecap="round" stroke-linejoin="round"/>
<path d="M158.025 15.4301H163.677" stroke="#1F1F1F" stroke-width="1.72" stroke-miterlimit="10" stroke-linecap="round" stroke-linejoin="round"/>
<path d="M153.772 22.0721H143.868V28.1894H153.772V22.0721Z" fill="white" stroke="#1F1F1F" stroke-width="1.72" stroke-miterlimit="10" stroke-linecap="round" stroke-linejoin="round"/>
<path d="M148.82 22.0721H143.868L148.82 25.1016L153.772 22.0721H148.82Z" fill="white" stroke="#1F1F1F" stroke-width="1.72" stroke-miterlimit="10" stroke-linecap="round" stroke-linejoin="round"/>
<path d="M170.784 82.2548C169.852 79.6331 171.192 76.7201 173.814 75.7879L174.629 75.4966C177.251 74.5645 180.164 75.9044 181.096 78.5262C182.028 81.1479 180.688 84.0609 178.067 84.993L177.251 85.2843C174.629 86.2747 171.716 84.9348 170.784 82.2548Z" fill="#E8E7E5" stroke="#1F1F1F" stroke-width="1.72" stroke-miterlimit="10" stroke-linecap="round" stroke-linejoin="round"/>
<path d="M171.891 66.9907L171.833 66.8742C170.726 64.369 171.833 61.3977 174.396 60.2325L174.921 59.9995C177.484 58.8925 180.456 59.9995 181.621 62.5629C182.728 65.1264 181.621 68.0976 179.057 69.2628L178.533 69.4959C175.97 70.6611 172.998 69.4959 171.891 66.9907Z" fill="#E8E7E5" stroke="#1F1F1F" stroke-width="1.72" stroke-miterlimit="10" stroke-linecap="round" stroke-linejoin="round"/>
<path d="M151.034 96.0628L149.228 96.4124V94.4316L156.103 93.2081C156.161 93.2081 156.219 93.1498 156.219 93.0333V92.3342C156.219 92.2177 156.161 92.1594 156.044 92.1594L146.373 93.849C146.315 93.849 146.257 93.9072 146.257 94.0237V94.7229C146.257 94.8394 146.315 94.8976 146.432 94.8976L148.238 94.5481V96.5289L147.247 96.7037C146.14 96.8785 145.266 97.9272 145.266 99.0341C145.266 100.141 146.14 100.898 147.247 100.665C148.354 100.491 149.228 99.4419 149.228 98.335V97.3446L151.092 96.995C151.151 96.995 151.209 96.9367 151.209 96.8202V96.1211C151.209 96.1211 151.151 96.0628 151.034 96.0628ZM148.238 98.568C148.238 99.0924 147.772 99.6167 147.247 99.7332C146.723 99.8498 146.257 99.4419 146.257 98.9176C146.257 98.3933 146.723 97.8689 147.247 97.7524L148.238 97.5776V98.568Z" fill="#F47121"/>
<path d="M153.003 95.0466C153.199 94.833 153.203 94.519 153.013 94.3452C152.823 94.1713 152.511 94.2036 152.316 94.4171C152.12 94.6307 152.115 94.9447 152.305 95.1186C152.495 95.2924 152.807 95.2602 153.003 95.0466Z" fill="#F47121"/>
<path d="M163.618 93.7323L161.346 94.1401H161.288C160.181 94.3731 159.307 95.4218 159.307 96.5288V96.587V97.1114C159.307 97.4027 159.074 97.6357 158.783 97.694C158.491 97.7522 158.258 97.5774 158.258 97.2861V91.9845C158.258 91.868 158.2 91.8097 158.084 91.8097L157.385 91.9262C157.326 91.9262 157.268 91.9845 157.268 92.101V95.1305C156.977 95.014 156.627 94.9557 156.219 95.014C155.112 95.1888 154.18 96.2957 154.18 97.4027V97.4609V97.9853C154.18 98.2766 153.947 98.5096 153.656 98.5679C153.365 98.6261 153.132 98.4513 153.132 98.16V95.8296C153.132 95.7131 153.073 95.6549 152.957 95.6549L152.258 95.7714C152.199 95.7714 152.141 95.8296 152.141 95.9462V98.3348C152.141 99.1505 152.84 99.7331 153.656 99.5583C154.122 99.5 154.53 99.2087 154.821 98.8009C155.171 99.0922 155.695 99.2087 156.219 99.0922C156.744 98.9757 157.268 98.6844 157.618 98.2766C157.909 98.5679 158.317 98.6844 158.783 98.6261C159.249 98.5679 159.657 98.2766 159.948 97.8687C160.298 98.16 160.822 98.2766 161.346 98.16C162.453 97.9853 163.385 96.8783 163.385 95.7714C163.385 95.3636 163.269 95.0723 163.094 94.781L163.677 94.6644C163.735 94.6644 163.793 94.6062 163.793 94.4897V93.7905C163.793 93.7905 163.677 93.7323 163.618 93.7323ZM156.219 98.1018C155.637 98.2183 155.171 97.8105 155.171 97.2279C155.171 96.6453 155.637 96.1209 156.219 96.0044C156.802 95.8879 157.268 96.2957 157.268 96.8783C157.268 97.4609 156.802 98.0435 156.219 98.1018ZM162.395 96.0044C162.395 96.587 161.929 97.1114 161.346 97.2279C160.764 97.3444 160.298 96.9366 160.298 96.354C160.298 95.7714 160.764 95.247 161.346 95.1305C161.929 95.014 162.395 95.4218 162.395 96.0044Z" fill="#F47121"/>
<path d="M134.08 38.9677C135.239 38.9677 136.178 38.0287 136.178 36.8704C136.178 35.712 135.239 34.773 134.08 34.773C132.922 34.773 131.983 35.712 131.983 36.8704C131.983 38.0287 132.922 38.9677 134.08 38.9677Z" stroke="#1F1F1F" stroke-width="1.1652" stroke-miterlimit="10" stroke-linecap="round" stroke-linejoin="round"/>
<path d="M134.08 45.6681C135.239 45.6681 136.178 44.729 136.178 43.5707C136.178 42.4123 135.239 41.4733 134.08 41.4733C132.922 41.4733 131.983 42.4123 131.983 43.5707C131.983 44.729 132.922 45.6681 134.08 45.6681Z" stroke="#1F1F1F" stroke-width="1.1652" stroke-miterlimit="10" stroke-linecap="round" stroke-linejoin="round"/>
<path d="M134.08 52.4264C135.239 52.4264 136.178 51.4873 136.178 50.329C136.178 49.1706 135.239 48.2316 134.08 48.2316C132.922 48.2316 131.983 49.1706 131.983 50.329C131.983 51.4873 132.922 52.4264 134.08 52.4264Z" stroke="#1F1F1F" stroke-width="1.1652" stroke-miterlimit="10" stroke-linecap="round" stroke-linejoin="round"/>
<path d="M134.08 59.1262C135.239 59.1262 136.178 58.1872 136.178 57.0289C136.178 55.8705 135.239 54.9315 134.08 54.9315C132.922 54.9315 131.983 55.8705 131.983 57.0289C131.983 58.1872 132.922 59.1262 134.08 59.1262Z" stroke="#1F1F1F" stroke-width="1.1652" stroke-miterlimit="10" stroke-linecap="round" stroke-linejoin="round"/>
<path d="M134.08 65.8843C135.239 65.8843 136.178 64.9453 136.178 63.7869C136.178 62.6286 135.239 61.6896 134.08 61.6896C132.922 61.6896 131.983 62.6286 131.983 63.7869C131.983 64.9453 132.922 65.8843 134.08 65.8843Z" stroke="#1F1F1F" stroke-width="1.1652" stroke-miterlimit="10" stroke-linecap="round" stroke-linejoin="round"/>
<path d="M134.08 72.6424C135.239 72.6424 136.178 71.7033 136.178 70.545C136.178 69.3866 135.239 68.4476 134.08 68.4476C132.922 68.4476 131.983 69.3866 131.983 70.545C131.983 71.7033 132.922 72.6424 134.08 72.6424Z" stroke="#1F1F1F" stroke-width="1.1652" stroke-miterlimit="10" stroke-linecap="round" stroke-linejoin="round"/>
<path d="M140.372 36.8708H154.355" stroke="#1F1F1F" stroke-width="1.1652" stroke-miterlimit="10" stroke-linecap="round" stroke-linejoin="round"/>
<path d="M159.365 36.8708H164.958" stroke="#1F1F1F" stroke-width="1.1652" stroke-miterlimit="10" stroke-linecap="round" stroke-linejoin="round"/>
<path d="M140.372 43.5707H154.355" stroke="#1F1F1F" stroke-width="1.1652" stroke-miterlimit="10" stroke-linecap="round" stroke-linejoin="round"/>
<path d="M159.365 43.5707H164.958" stroke="#1F1F1F" stroke-width="1.1652" stroke-miterlimit="10" stroke-linecap="round" stroke-linejoin="round"/>
<path d="M140.372 50.3288H154.355" stroke="#1F1F1F" stroke-width="1.1652" stroke-miterlimit="10" stroke-linecap="round" stroke-linejoin="round"/>
<path d="M159.365 50.3288H164.958" stroke="#1F1F1F" stroke-width="1.1652" stroke-miterlimit="10" stroke-linecap="round" stroke-linejoin="round"/>
<path d="M140.372 57.0287H154.355" stroke="#1F1F1F" stroke-width="1.1652" stroke-miterlimit="10" stroke-linecap="round" stroke-linejoin="round"/>
<path d="M159.365 57.0287H164.958" stroke="#1F1F1F" stroke-width="1.1652" stroke-miterlimit="10" stroke-linecap="round" stroke-linejoin="round"/>
<path d="M140.372 63.7867H154.355" stroke="#1F1F1F" stroke-width="1.1652" stroke-miterlimit="10" stroke-linecap="round" stroke-linejoin="round"/>
<path d="M159.365 63.7867H164.958" stroke="#1F1F1F" stroke-width="1.1652" stroke-miterlimit="10" stroke-linecap="round" stroke-linejoin="round"/>
<path d="M140.372 70.545H154.355" stroke="#1F1F1F" stroke-width="1.1652" stroke-miterlimit="10" stroke-linecap="round" stroke-linejoin="round"/>
<path d="M159.365 70.545H164.958" stroke="#1F1F1F" stroke-width="1.1652" stroke-miterlimit="10" stroke-linecap="round" stroke-linejoin="round"/>
<path d="M159.365 77.245H164.958" stroke="#1F1F1F" stroke-width="1.1652" stroke-miterlimit="10" stroke-linecap="round" stroke-linejoin="round"/>
<path d="M272.942 37.0402L249.312 70.4972L260.615 78.4808L284.245 45.0238L272.942 37.0402Z" fill="#F4BF31" stroke="#1F1F1F" stroke-width="1.5" stroke-miterlimit="10"/>
<path d="M266.079 46.7566L256.151 60.813L267.455 68.7966L277.383 54.7401L266.079 46.7566Z" fill="#F4BF31" stroke="#1F1F1F" stroke-width="1.5" stroke-miterlimit="10"/>
<path d="M258.019 85.0361L257.226 82.4191L254.529 82.538L253.736 79.9606L251.04 80.0796L250.247 77.5022L247.511 77.6211L246.757 75.0041L244.021 75.1627L249.295 70.5233L260.636 78.4935L258.019 85.0361Z" fill="#F4BF31" stroke="#1F1F1F" stroke-width="1.5" stroke-miterlimit="10"/>
<path d="M275.545 30.5541L276.298 33.1315L279.034 33.0125L279.828 35.6296L282.524 35.471L283.317 38.0881L286.013 37.9691L286.806 40.5465L289.503 40.4276L284.229 45.0669L272.928 37.0571L275.545 30.5541Z" fill="#F4BF31" stroke="#1F1F1F" stroke-width="1.5" stroke-miterlimit="10"/>
<path d="M285.543 44.3163L252.282 68.2211L260.359 79.4582L293.619 55.5533L285.543 44.3163Z" fill="#F4BF31" stroke="#1F1F1F" stroke-width="1.5" stroke-miterlimit="10"/>
<path d="M255.758 84.7585L255.877 82.0621L253.26 81.3087L253.379 78.5727L250.762 77.8193L250.881 75.1229L248.264 74.3299L248.383 71.6335L245.766 70.8801L252.269 68.2234L260.358 79.4451L255.758 84.7585Z" fill="#F4BF31" stroke="#1F1F1F" stroke-width="1.5" stroke-miterlimit="10"/>
<path d="M290.097 38.9998L289.978 41.6961L292.595 42.4892L292.476 45.1856L295.093 45.939L294.975 48.675L297.592 49.4284L297.512 52.1248L300.09 52.9178L293.587 55.5745L285.498 44.3132L290.097 38.9998Z" fill="#F4BF31" stroke="#1F1F1F" stroke-width="1.5" stroke-miterlimit="10"/>
<path d="M272.928 65.4087C274.877 65.4087 276.457 63.8287 276.457 61.8796C276.457 59.9305 274.877 58.3505 272.928 58.3505C270.979 58.3505 269.399 59.9305 269.399 61.8796C269.399 63.8287 270.979 65.4087 272.928 65.4087Z" fill="#F4BF31" stroke="#1F1F1F" stroke-width="1.5" stroke-miterlimit="10"/>
<path d="M224.496 79.1225L200.498 84.9971C199.76 85.1775 199.046 84.7415 198.865 84.0003L188.866 43.1557C188.695 42.4557 189.127 41.7389 189.864 41.5585L213.863 35.6839C214.559 35.5135 215.314 35.9395 215.496 36.6807L225.494 77.5253C225.665 78.2253 225.192 78.9521 224.496 79.1225Z" fill="#F4BF31" stroke="#1F1F1F" stroke-width="1.5" stroke-miterlimit="10"/>
<path d="M224.619 79.0927L200.334 85.0375L201.181 88.4961L225.466 82.5513L224.619 79.0927Z" fill="#F4BF31" stroke="#1F1F1F" stroke-width="1.5" stroke-miterlimit="10" stroke-linejoin="round"/>
<path d="M213.139 32.1952L188.854 38.14L189.7 41.5986L213.985 35.6538L213.139 32.1952Z" fill="#F4BF31" stroke="#1F1F1F" stroke-width="1.5" stroke-miterlimit="10" stroke-linejoin="round"/>
<path d="M204.945 44.9491L200.047 74.1027L209.363 75.7053L214.26 46.5517L204.945 44.9491Z" fill="#F4BF31" stroke="#1F1F1F" stroke-width="1.5" stroke-miterlimit="10"/>
<path d="M199.775 27.7857L198.096 28.1967C197.072 28.4473 196.424 29.5225 196.676 30.5518L197.533 34.0516C197.784 35.081 198.856 35.7351 199.88 35.4845L201.559 35.0735C202.583 34.8229 203.231 33.7477 202.979 32.7183L202.123 29.2185C201.871 28.1892 200.799 27.535 199.775 27.7857Z" fill="#F4BF31" stroke="#1F1F1F" stroke-width="1.5" stroke-miterlimit="10" stroke-linejoin="round"/>
<path d="M201.195 31.2789L198.41 31.9606C197.673 32.1411 197.24 32.8579 197.422 33.599L197.654 34.546C197.835 35.2871 198.55 35.7232 199.287 35.5428L202.072 34.8611C202.809 34.6806 203.241 33.9639 203.059 33.2227L202.828 32.2757C202.697 31.5657 201.932 31.0985 201.195 31.2789Z" fill="#F4BF31" stroke="#1F1F1F" stroke-width="1.5" stroke-miterlimit="10"/>
<path d="M84.5813 48.92C85.0819 45.3065 83.8664 41.6554 81.2645 39.0532C79.6482 37.4282 78.8084 35.1102 79.1512 32.6357L79.6409 29.1007L80.2448 24.7409L73.332 23.7833L72.7226 28.1824L72.2329 31.7173C71.8956 34.1525 70.4126 36.1888 68.4546 37.3187C65.2827 39.121 63.0811 42.2988 62.5805 45.9123L61.2148 55.7709C60.8557 58.3633 60.9287 61.0154 61.4161 63.5649L62.2359 67.7616C62.8774 70.9329 62.2632 74.2104 60.559 76.9767L59.3116 79.0456C58.17 80.9291 57.4049 82.9848 57.1002 85.1843L56.0664 92.647L78.0617 95.694L79.0901 88.2706C79.3948 86.071 79.2282 83.8062 78.6023 81.6779L78.0102 79.5943C77.1222 76.469 77.4221 73.1479 78.8623 70.265L80.8584 66.2582C82.0206 63.9373 82.8063 61.4441 83.16 58.891L84.542 48.9146L84.5813 48.92Z" fill="#F4BF31" stroke="#1F1F1F" stroke-width="1.5" stroke-miterlimit="10"/>
<path d="M80.347 23.7145L73.552 22.7732C73.0414 22.7024 72.5495 23.0746 72.4788 23.5852L71.9837 27.1595C71.9129 27.6701 72.2851 28.162 72.7957 28.2327L79.5907 29.174C80.1013 29.2448 80.5932 28.8726 80.664 28.362L81.1591 24.7877C81.2298 24.2771 80.8576 23.7852 80.347 23.7145Z" fill="#F4BF31" stroke="#1F1F1F" stroke-width="1.5" stroke-miterlimit="10"/>
<path d="M84.4635 48.9035L62.5859 45.8729L60.8992 58.0489L82.7768 61.0795L84.4635 48.9035Z" fill="#F4BF31" stroke="#1F1F1F" stroke-width="1.5" stroke-miterlimit="10"/>
<path d="M31.016 46.2661L-1.04224 39.7524L-8.63767 77.1343L23.4206 83.6481L31.016 46.2661Z" fill="#F4BF31" stroke="#1F1F1F" stroke-width="1.5" stroke-miterlimit="10"/>
<path d="M28.9509 42.6906L26.696 40.0474L23.6273 41.6089L21.3724 38.9657L18.2648 40.5193L16.0488 37.8841L12.9412 39.4376L10.6863 36.7945L7.61761 38.3559L5.36273 35.7128L2.25512 37.2664L0.000244141 34.6232L-0.42611 36.7216L-1.04196 39.7526L31.0163 46.2663L31.6322 43.2353L32.0585 41.137L28.9509 42.6906Z" fill="#F4BF31" stroke="#1F1F1F" stroke-width="1.5" stroke-miterlimit="10"/>
<path d="M-6.56425 80.671L-4.30146 83.2753L-1.20177 81.7605L1.02215 84.3569L4.12184 82.8422L6.38463 85.4465L9.44546 83.9239L11.7082 86.5282L14.8079 85.0135L17.0319 87.6099L20.1316 86.0951L22.3943 88.6994L22.8128 86.6399L23.4286 83.609L-8.62964 77.0952L-9.24548 80.1262L-9.66394 82.1857L-6.56425 80.671Z" fill="#F4BF31" stroke="#1F1F1F" stroke-width="1.5" stroke-miterlimit="10"/>
<path d="M8.97431 72.7014C15.0692 73.9398 21.0141 70.0028 22.2524 63.9078C23.4908 57.8129 19.5539 51.8681 13.4589 50.6297C7.36401 49.3913 1.41918 53.3283 0.180785 59.4232C-1.05761 65.5181 2.87939 71.463 8.97431 72.7014Z" fill="#F4BF31" stroke="#1F1F1F" stroke-width="1.5" stroke-miterlimit="10"/>
<path d="M14.0478 61.4717C16.8657 60.5471 18.8282 59.6511 19.2804 61.8066C19.8394 64.6311 16.7973 67.6547 12.4554 68.5124C8.10558 69.4089 4.09772 67.8258 3.53868 65.0012C3.40089 64.2853 3.5345 63.8269 3.88546 63.4936" fill="#F4BF31"/>
<path d="M14.0478 61.4717C16.8657 60.5471 18.8282 59.6511 19.2804 61.8066C19.8394 64.6311 16.7973 67.6547 12.4554 68.5124C8.10558 69.4089 4.09772 67.8258 3.53868 65.0012C3.40089 64.2853 3.5345 63.8269 3.88546 63.4936" stroke="#1F1F1F" stroke-width="1.5" stroke-miterlimit="10"/>
<path d="M13.912 54.9701C15.8276 56.6946 15.2171 60.4955 12.5642 63.3958C9.90345 66.3349 6.22212 67.3269 4.30659 65.6024C2.39106 63.8779 5.66136 62.5192 8.32216 59.5801C10.983 56.6409 11.9965 53.2456 13.912 54.9701Z" fill="#F4BF31" stroke="#1F1F1F" stroke-width="1.5" stroke-miterlimit="10"/>
</g>
<rect x="0.86" y="0.86" width="294.28" height="115.28" rx="25.14" stroke="#1F1F1F" stroke-width="1.72"/>
<defs>
<clipPath id="clip0_271_5423">
<rect width="296" height="117" rx="26" fill="white"/>
</clipPath>
</defs>
</svg>
