<svg width="296" height="117" viewBox="0 0 296 117" fill="none" xmlns="http://www.w3.org/2000/svg">
<g clip-path="url(#clip0_271_5255)">
<rect width="296" height="117" rx="26" fill="#F4BF31"/>
<path d="M9.98948 81.0789H6.32659V83.1795C5.10563 84.7677 4.34253 87.1245 4.34253 89.7374C4.34253 92.3504 5.10563 94.7071 6.32659 96.2954V98.396H9.98948C13.0928 98.396 15.6364 94.5022 15.6364 89.6862C15.6364 84.8702 13.0928 81.0789 9.98948 81.0789Z" fill="#F4BF31"/>
<path fill-rule="evenodd" clip-rule="evenodd" d="M6.08733 81.0787C6.08733 80.9456 6.19446 80.8377 6.32662 80.8377H9.9895C11.6458 80.8377 13.1234 81.8495 14.1759 83.4429C15.2296 85.0378 15.8757 87.2377 15.8757 89.686C15.8757 92.1342 15.2297 94.359 14.1769 95.9789C13.1258 97.5964 11.6485 98.6368 9.9895 98.6368H6.32662C6.19446 98.6368 6.08733 98.5289 6.08733 98.3958V96.3769C4.85783 94.7406 4.10327 92.3581 4.10327 89.7373C4.10327 87.1164 4.85783 84.7339 6.08733 83.0977V81.0787ZM6.56591 81.3197V83.1793C6.56591 83.2327 6.54829 83.2846 6.51583 83.3268C5.33296 84.8655 4.58185 87.1676 4.58185 89.7373C4.58185 92.3069 5.33296 94.609 6.51583 96.1477C6.54829 96.1899 6.56591 96.2418 6.56591 96.2952V98.1548H9.9895C11.4338 98.1548 12.78 97.2483 13.7765 95.715C14.7714 94.184 15.3972 92.0538 15.3972 89.686C15.3972 87.3183 14.7715 85.2145 13.7775 83.7098C12.7824 82.2035 11.4365 81.3197 9.9895 81.3197H6.56591Z" fill="#1F1F1F" stroke="black" stroke-width="0.880952" stroke-miterlimit="10" stroke-linecap="round" stroke-linejoin="round"/>
<path d="M6.32664 98.4985C9.44536 98.4985 11.9736 94.5989 11.9736 89.7887C11.9736 84.9784 9.44536 81.0789 6.32664 81.0789C3.20791 81.0789 0.679688 84.9784 0.679688 89.7887C0.679688 94.5989 3.20791 98.4985 6.32664 98.4985Z" fill="#F4BF31"/>
<path fill-rule="evenodd" clip-rule="evenodd" d="M2.53427 83.7615C1.54126 85.2931 0.919247 87.4233 0.919247 89.7885C0.919247 92.1537 1.54126 94.2839 2.53427 95.8155C3.5287 97.3493 4.8748 98.2573 6.32691 98.2573C7.77903 98.2573 9.12512 97.3493 10.1195 95.8155C11.1126 94.2839 11.7346 92.1537 11.7346 89.7885C11.7346 87.4233 11.1126 85.2931 10.1195 83.7615C9.12512 82.2277 7.77903 81.3197 6.32691 81.3197C4.8748 81.3197 3.5287 82.2277 2.53427 83.7615ZM2.13356 83.498C3.18292 81.8794 4.6603 80.8377 6.32691 80.8377C7.99352 80.8377 9.4709 81.8794 10.5203 83.498C11.571 85.1187 12.2131 87.3434 12.2131 89.7885C12.2131 92.2336 11.571 94.4583 10.5203 96.079C9.4709 97.6975 7.99352 98.7393 6.32691 98.7393C4.6603 98.7393 3.18292 97.6975 2.13356 96.079C1.08278 94.4583 0.440674 92.2336 0.440674 89.7885C0.440674 87.3434 1.08278 85.1187 2.13356 83.498Z" fill="#1F1F1F" stroke="black" stroke-width="0.880952" stroke-miterlimit="10" stroke-linecap="round" stroke-linejoin="round"/>
<path d="M75.1582 81.0789H71.4953V83.1795C70.2743 84.7677 69.5112 87.1245 69.5112 89.7374C69.5112 92.3504 70.2743 94.7071 71.4953 96.2954V98.396H75.1582C78.2614 98.396 80.8051 94.5022 80.8051 89.6862C80.8051 84.8702 78.3123 81.0789 75.1582 81.0789Z" fill="#F4BF31"/>
<path fill-rule="evenodd" clip-rule="evenodd" d="M71.256 81.0787C71.256 80.9456 71.3632 80.8377 71.4953 80.8377H75.1582C76.8393 80.8377 78.3172 81.8488 79.3641 83.4434C80.4115 85.0389 81.0444 87.2387 81.0444 89.686C81.0444 92.1342 80.3983 94.359 79.3456 95.9789C78.2944 97.5964 76.8172 98.6368 75.1582 98.6368H71.4953C71.3632 98.6368 71.256 98.5289 71.256 98.3958V96.3769C70.0265 94.7406 69.272 92.3581 69.272 89.7373C69.272 87.1164 70.0265 84.7339 71.256 83.0977V81.0787ZM71.7346 81.3197V83.1793C71.7346 83.2327 71.717 83.2846 71.6845 83.3268C70.5017 84.8655 69.7505 87.1676 69.7505 89.7373C69.7505 92.3069 70.5017 94.609 71.6845 96.1477C71.717 96.1899 71.7346 96.2418 71.7346 96.2952V98.1548H75.1582C76.6025 98.1548 77.9487 97.2483 78.9452 95.715C79.9401 94.184 80.5659 92.0538 80.5659 89.686C80.5659 87.3173 79.9524 85.2135 78.9649 83.7093C77.9768 82.2043 76.6313 81.3197 75.1582 81.3197H71.7346Z" fill="#1F1F1F" stroke="black" stroke-width="0.880952" stroke-miterlimit="10" stroke-linecap="round" stroke-linejoin="round"/>
<path d="M71.4963 98.4985C74.6151 98.4985 77.1433 94.5989 77.1433 89.7887C77.1433 84.9784 74.6151 81.0789 71.4963 81.0789C68.3776 81.0789 65.8494 84.9784 65.8494 89.7887C65.8494 94.5989 68.3776 98.4985 71.4963 98.4985Z" fill="#F4BF31"/>
<path fill-rule="evenodd" clip-rule="evenodd" d="M67.7032 83.7615C66.7102 85.2931 66.0882 87.4233 66.0882 89.7885C66.0882 92.1537 66.7102 94.2839 67.7032 95.8155C68.6976 97.3493 70.0437 98.2573 71.4959 98.2573C72.948 98.2573 74.2941 97.3493 75.2885 95.8155C76.2815 94.2839 76.9035 92.1537 76.9035 89.7885C76.9035 87.4233 76.2815 85.2931 75.2885 83.7615C74.2941 82.2277 72.948 81.3197 71.4959 81.3197C70.0437 81.3197 68.6976 82.2277 67.7032 83.7615ZM67.3025 83.498C68.3519 81.8794 69.8293 80.8377 71.4959 80.8377C73.1625 80.8377 74.6399 81.8794 75.6892 83.498C76.74 85.1187 77.3821 87.3434 77.3821 89.7885C77.3821 92.2336 76.74 94.4583 75.6892 96.079C74.6399 97.6975 73.1625 98.7393 71.4959 98.7393C69.8293 98.7393 68.3519 97.6975 67.3025 96.079C66.2517 94.4583 65.6096 92.2336 65.6096 89.7885C65.6096 87.3434 66.2517 85.1187 67.3025 83.498Z" fill="#1F1F1F" stroke="black" stroke-width="0.880952" stroke-miterlimit="10" stroke-linecap="round" stroke-linejoin="round"/>
<path d="M23.7258 81.0789H20.0629V83.1795C18.842 84.7677 18.0789 87.1245 18.0789 89.7374C18.0789 92.3504 18.842 94.7071 20.0629 96.2954V98.396H23.7258C26.8291 98.396 29.3728 94.5022 29.3728 89.6862C29.3728 84.8702 26.8291 81.0789 23.7258 81.0789Z" fill="#F4BF31"/>
<path fill-rule="evenodd" clip-rule="evenodd" d="M19.8237 81.0787C19.8237 80.9456 19.9308 80.8377 20.0629 80.8377H23.7258C25.3821 80.8377 26.8597 81.8495 27.9123 83.4429C28.9659 85.0378 29.6121 87.2377 29.6121 89.686C29.6121 92.1342 28.966 94.359 27.9133 95.9789C26.8621 97.5964 25.3848 98.6368 23.7258 98.6368H20.0629C19.9308 98.6368 19.8237 98.5289 19.8237 98.3958V96.3769C18.5942 94.7406 17.8396 92.3581 17.8396 89.7373C17.8396 87.1164 18.5942 84.7339 19.8237 83.0977V81.0787ZM20.3022 81.3197V83.1793C20.3022 83.2327 20.2846 83.2846 20.2522 83.3268C19.0693 84.8655 18.3182 87.1676 18.3182 89.7373C18.3182 92.3069 19.0693 94.609 20.2522 96.1477C20.2846 96.1899 20.3022 96.2418 20.3022 96.2952V98.1548H23.7258C25.1701 98.1548 26.5163 97.2483 27.5128 95.715C28.5078 94.184 29.1335 92.0538 29.1335 89.686C29.1335 87.3183 28.5078 85.2145 27.5138 83.7098C26.5187 82.2035 25.1728 81.3197 23.7258 81.3197H20.3022Z" fill="#1F1F1F" stroke="black" stroke-width="0.880952" stroke-miterlimit="10" stroke-linecap="round" stroke-linejoin="round"/>
<path d="M74.9045 60.7899L54.4025 38.1957C50.2309 33.6359 44.3805 31.0229 38.1739 31.0229H37.2073H-49.1758H-55.8402C-58.0278 31.0229 -59.8083 32.8161 -59.8083 35.0192V89.7884H-46.8356H-36.2031H93.8294V74.6231C93.8294 72.2151 92.5067 70.0121 90.3701 68.9362L74.9045 60.7899Z" fill="#F4BF31"/>
<path fill-rule="evenodd" clip-rule="evenodd" d="M-60.0476 35.0194C-60.0476 32.6833 -58.1599 30.7822 -55.8402 30.7822H38.1739C44.4478 30.7822 50.3619 33.4237 54.5785 38.0327L54.5792 38.0334L75.0527 60.5963L90.4771 68.7209L90.4789 68.7218C92.6974 69.8398 94.0687 72.1269 94.0687 74.6234V89.7887C94.0687 89.9218 93.9616 90.0297 93.8294 90.0297H-59.8083C-59.9405 90.0297 -60.0476 89.9218 -60.0476 89.7887V35.0194ZM-55.8402 31.2642C-57.8956 31.2642 -59.569 32.9495 -59.569 35.0194V89.5477H93.5901V74.6234C93.5901 72.3046 92.3168 70.1861 90.263 69.152L90.2592 69.15L74.7936 61.0037C74.7689 60.9907 74.7467 60.9735 74.7279 60.9528L54.2266 38.3592L54.2259 38.3585M54.2259 38.3585C50.0993 33.8483 44.3128 31.2642 38.1739 31.2642H-55.8402" fill="#1F1F1F"/>
<path d="M-55.8402 30.7822C-58.1599 30.7822 -60.0476 32.6833 -60.0476 35.0194V89.7887C-60.0476 89.9218 -59.9405 90.0297 -59.8083 90.0297H93.8294C93.9616 90.0297 94.0687 89.9218 94.0687 89.7887V74.6234C94.0687 72.1269 92.6974 69.8398 90.4789 68.7218L90.4771 68.7209L75.0528 60.5963L54.5792 38.0334L54.5785 38.0327C50.3619 33.4237 44.4478 30.7822 38.1739 30.7822H-55.8402ZM-59.569 35.0194C-59.569 32.9495 -57.8956 31.2642 -55.8402 31.2642H38.1739C44.3128 31.2642 50.0993 33.8483 54.2259 38.3585L54.2266 38.3592L74.7279 60.9528C74.7467 60.9735 74.7689 60.9907 74.7936 61.0037L90.2591 69.15L90.263 69.152C92.3168 70.1861 93.5901 72.3046 93.5901 74.6234V89.5477H-59.569V35.0194Z" stroke="black" stroke-width="0.880952" stroke-miterlimit="10" stroke-linecap="round" stroke-linejoin="round"/>
<path d="M83.2477 84.717H-59.8083V89.7892H83.2477V84.717Z" fill="#F4BF31"/>
<path fill-rule="evenodd" clip-rule="evenodd" d="M-60.0476 84.7168C-60.0476 84.5838 -59.9405 84.4759 -59.8083 84.4759H83.2478C83.3799 84.4759 83.487 84.5838 83.487 84.7168V89.789C83.487 89.9221 83.3799 90.03 83.2478 90.03H-59.8083C-59.9405 90.03 -60.0476 89.9221 -60.0476 89.789V84.7168ZM-59.569 84.9578V89.548H83.0085V84.9578H-59.569Z" fill="#1F1F1F" stroke="black" stroke-width="0.880952" stroke-miterlimit="10" stroke-linecap="round" stroke-linejoin="round"/>
<path d="M27.0323 89.7891C27.0323 83.8459 23.8781 78.9787 20.0117 78.9787C16.1454 78.9787 12.9912 83.7947 12.9912 89.7891H27.0323Z" fill="#F4BF31"/>
<path fill-rule="evenodd" clip-rule="evenodd" d="M14.8515 82.0038C16.1511 80.0079 17.9718 78.7376 20.0118 78.7376C22.0526 78.7376 23.8733 80.0218 25.1722 82.0233C26.4728 84.0273 27.2716 86.7771 27.2716 89.789H27.0323V90.03H12.9912C12.8591 90.03 12.752 89.9221 12.752 89.789C12.752 86.7518 13.5506 84.0017 14.8515 82.0038ZM26.7913 89.548C26.7499 86.7124 25.9806 84.1498 24.7716 82.287C23.5269 80.3691 21.8373 79.2196 20.0118 79.2196C18.1853 79.2196 16.4958 80.3573 15.2517 82.2681C14.0428 84.1247 13.2733 86.6878 13.2323 89.548H26.7913Z" fill="#1F1F1F" stroke="black" stroke-width="0.880952" stroke-miterlimit="10" stroke-linecap="round" stroke-linejoin="round"/>
<path fill-rule="evenodd" clip-rule="evenodd" d="M-63.0298 98.4495C-63.0298 98.3164 -62.9227 98.2085 -62.7905 98.2085H97.0564C97.1886 98.2085 97.2957 98.3164 97.2957 98.4495C97.2957 98.5826 97.1886 98.6905 97.0564 98.6905H-62.7905C-62.9227 98.6905 -63.0298 98.5826 -63.0298 98.4495Z" fill="#1F1F1F" stroke="black" stroke-width="0.880952" stroke-miterlimit="10" stroke-linecap="round" stroke-linejoin="round"/>
<path d="M20.0112 98.4985C23.1299 98.4985 25.6582 94.5989 25.6582 89.7887C25.6582 84.9784 23.1299 81.0789 20.0112 81.0789C16.8925 81.0789 14.3643 84.9784 14.3643 89.7887C14.3643 94.5989 16.8925 98.4985 20.0112 98.4985Z" fill="#F4BF31"/>
<path fill-rule="evenodd" clip-rule="evenodd" d="M16.2188 83.7615C15.2258 85.2931 14.6038 87.4233 14.6038 89.7885C14.6038 92.1537 15.2258 94.2839 16.2188 95.8155C17.2133 97.3493 18.5594 98.2573 20.0115 98.2573C21.4636 98.2573 22.8097 97.3493 23.8041 95.8155C24.7971 94.2839 25.4191 92.1537 25.4191 89.7885C25.4191 87.4233 24.7971 85.2931 23.8041 83.7615C22.8097 82.2277 21.4636 81.3197 20.0115 81.3197C18.5594 81.3197 17.2133 82.2277 16.2188 83.7615ZM15.8181 83.498C16.8675 81.8794 18.3449 80.8377 20.0115 80.8377C21.6781 80.8377 23.1555 81.8794 24.2048 83.498C25.2556 85.1187 25.8977 87.3434 25.8977 89.7885C25.8977 92.2336 25.2556 94.4583 24.2048 96.079C23.1555 97.6975 21.6781 98.7393 20.0115 98.7393C18.3449 98.7393 16.8675 97.6975 15.8181 96.079C14.7673 94.4583 14.1252 92.2336 14.1252 89.7885C14.1252 87.3434 14.7673 85.1187 15.8181 83.498Z" fill="#1F1F1F" stroke="black" stroke-width="0.880952" stroke-miterlimit="10" stroke-linecap="round" stroke-linejoin="round"/>
<path d="M20.0119 92.8134C21.1077 92.8134 21.996 91.46 21.996 89.7906C21.996 88.1211 21.1077 86.7678 20.0119 86.7678C18.9161 86.7678 18.0278 88.1211 18.0278 89.7906C18.0278 91.46 18.9161 92.8134 20.0119 92.8134Z" fill="#F4BF31"/>
<path fill-rule="evenodd" clip-rule="evenodd" d="M18.8086 87.786C18.4789 88.2883 18.2671 88.9964 18.2671 89.7906C18.2671 90.5848 18.4789 91.2928 18.8086 91.7951C19.1395 92.2993 19.5699 92.5724 20.0119 92.5724C20.4539 92.5724 20.8843 92.2993 21.2152 91.7951C21.545 91.2928 21.7567 90.5848 21.7567 89.7906C21.7567 88.9964 21.545 88.2883 21.2152 87.786C20.8843 87.2818 20.4539 87.0087 20.0119 87.0087C19.5699 87.0087 19.1395 87.2818 18.8086 87.786ZM18.4094 87.5202C18.7965 86.9304 19.3582 86.5268 20.0119 86.5268C20.6657 86.5268 21.2273 86.9304 21.6145 87.5202C22.0029 88.1119 22.2353 88.9153 22.2353 89.7906C22.2353 90.6658 22.0029 91.4692 21.6145 92.0609C21.2273 92.6507 20.6657 93.0544 20.0119 93.0544C19.3582 93.0544 18.7965 92.6507 18.4094 92.0609C18.021 91.4692 17.7886 90.6658 17.7886 89.7906C17.7886 88.9153 18.021 88.1119 18.4094 87.5202Z" fill="#1F1F1F" stroke="black" stroke-width="0.880952" stroke-miterlimit="10" stroke-linecap="round" stroke-linejoin="round"/>
<path d="M-1.4568 45.5741H1.7991C3.02006 45.5741 4.24102 46.0864 5.055 47.0599L15.2297 58.6388C16.0945 59.6122 15.3823 61.098 14.1105 61.098H-1.4568C-2.27078 61.098 -2.93213 60.432 -2.93213 59.6122V47.1111C-2.93213 46.2401 -2.27078 45.5741 -1.4568 45.5741Z" fill="#F4BF31"/>
<path fill-rule="evenodd" clip-rule="evenodd" d="M-1.45677 45.8153C-2.13332 45.8153 -2.69281 46.3681 -2.69281 47.1114V59.6125C-2.69281 60.2991 -2.13859 60.8573 -1.45677 60.8573H14.1105C15.1888 60.8573 15.7696 59.6081 15.0514 58.7997L15.0505 58.7987L4.87583 47.2198C4.87454 47.2183 4.87326 47.2169 4.87199 47.2153C4.10755 46.3011 2.95607 45.8153 1.79913 45.8153H-1.45677ZM-3.17139 47.1114C-3.17139 46.1127 -2.40818 45.3333 -1.45677 45.3333H1.79913C3.08317 45.3333 4.37264 45.8714 5.23614 46.9026L15.408 58.4783C15.4082 58.4785 15.4083 58.4786 15.4084 58.4787C16.4194 59.6173 15.5758 61.3392 14.1105 61.3392H-1.45677C-2.4029 61.3392 -3.17139 60.5653 -3.17139 59.6125V47.1114Z" fill="#1F1F1F" stroke="black" stroke-width="0.880952" stroke-miterlimit="10" stroke-linecap="round" stroke-linejoin="round"/>
<path d="M0.934554 45.5741H1.79941C3.02037 45.5741 4.24133 46.0864 5.0553 47.0599L15.23 58.6388C16.0948 59.6122 15.3826 61.098 14.1108 61.098H0.934554C0.12058 61.098 -0.540771 60.432 -0.540771 59.6122V47.1111C-0.540771 46.2401 0.12058 45.5741 0.934554 45.5741Z" fill="#F4BF31"/>
<path fill-rule="evenodd" clip-rule="evenodd" d="M0.934584 45.8153C0.258041 45.8153 -0.301456 46.3681 -0.301456 47.1114V59.6125C-0.301456 60.2991 0.252764 60.8573 0.934584 60.8573H14.1108C15.1891 60.8573 15.7699 59.6081 15.0517 58.7997L15.0508 58.7987L4.87614 47.2198C4.87484 47.2183 4.87356 47.2169 4.8723 47.2153C4.10785 46.3011 2.95638 45.8153 1.79944 45.8153H0.934584ZM-0.780029 47.1114C-0.780029 46.1127 -0.0168232 45.3333 0.934584 45.3333H1.79944C3.08347 45.3333 4.37295 45.8714 5.23644 46.9026L15.4083 58.4783C15.4085 58.4785 15.4087 58.4787 15.4089 58.4789C16.4196 59.6175 15.576 61.3392 14.1108 61.3392H0.934584C-0.0115464 61.3392 -0.780029 60.5653 -0.780029 59.6125V47.1114Z" fill="#1F1F1F" stroke="black" stroke-width="0.880952" stroke-miterlimit="10" stroke-linecap="round" stroke-linejoin="round"/>
<path fill-rule="evenodd" clip-rule="evenodd" d="M-24.4868 31.0232C-24.4868 30.8901 -24.3797 30.7822 -24.2475 30.7822H-13.4115C-7.13758 30.7822 -1.22347 33.4237 2.99311 38.0327L2.99396 38.0336L23.4671 60.6473L38.9425 68.7209C38.943 68.7211 38.9435 68.7214 38.944 68.7216C41.1627 69.8395 42.5342 72.1268 42.5342 74.6234V89.7887C42.5342 89.9218 42.4271 90.0297 42.2949 90.0297C42.1627 90.0297 42.0556 89.9218 42.0556 89.7887V74.6234C42.0556 72.3046 40.7823 70.1861 38.7285 69.152L38.7254 69.1504L23.209 61.0554C23.1839 61.0423 23.1613 61.0248 23.1423 61.0038L2.64115 38.3592C-1.4855 33.8486 -7.27229 31.2642 -13.4115 31.2642H-24.2475C-24.3797 31.2642 -24.4868 31.1563 -24.4868 31.0232Z" fill="#1F1F1F" stroke="black" stroke-width="0.880952" stroke-miterlimit="10" stroke-linecap="round" stroke-linejoin="round"/>
<path d="M95.1521 89.7892H41.2771C40.2596 89.7892 39.3948 88.9694 39.3948 87.8935V86.6127C39.3948 85.588 40.2087 84.717 41.2771 84.717H95.1521C96.0169 84.717 96.78 85.4343 96.78 86.3565V88.1497C96.7291 89.0207 96.0169 89.7892 95.1521 89.7892Z" fill="#F4BF31"/>
<path fill-rule="evenodd" clip-rule="evenodd" d="M41.2771 84.9578C40.3451 84.9578 39.6341 85.7166 39.6341 86.6125V87.8934C39.6341 88.832 40.3876 89.548 41.2771 89.548H95.1521C95.8708 89.548 96.4929 88.9009 96.5407 88.1422V86.3563C96.5407 85.5721 95.8896 84.9578 95.1521 84.9578H41.2771ZM39.1555 86.6125C39.1555 85.459 40.0724 84.4759 41.2771 84.4759H95.1521C96.1442 84.4759 97.0193 85.2962 97.0193 86.3563V88.1495C97.0193 88.1542 97.0192 88.159 97.0189 88.1637C96.9616 89.144 96.1608 90.03 95.1521 90.03H41.2771C40.1317 90.03 39.1555 89.1066 39.1555 87.8934V86.6125Z" fill="#1F1F1F" stroke="black" stroke-width="0.880952" stroke-miterlimit="10" stroke-linecap="round" stroke-linejoin="round"/>
<path d="M85.13 71.4978C85.4861 72.1127 85.6387 72.6762 85.7405 73.1373C85.8422 73.5472 86.1983 73.8546 86.6562 73.8546H93.8293C93.8293 73.8546 93.7276 72.2664 92.5575 70.6781H85.5878C85.1808 70.6781 84.9265 71.1392 85.13 71.4978Z" fill="#F4BF31"/>
<path fill-rule="evenodd" clip-rule="evenodd" d="M84.9223 71.6175C84.6326 71.1068 84.9875 70.4372 85.588 70.4372H92.5576C92.6334 70.4372 92.7047 70.4733 92.7498 70.5346C93.3555 71.3567 93.6844 72.1784 93.8621 72.7948C93.951 73.1033 94.0023 73.3612 94.0315 73.5433C94.0461 73.6345 94.0552 73.7067 94.0607 73.7571C94.0634 73.7822 94.0652 73.8019 94.0664 73.8157C94.067 73.8226 94.0675 73.8281 94.0677 73.832L94.0681 73.8367L94.0682 73.8382L94.0682 73.8388L94.0682 73.839C94.0682 73.8391 94.0683 73.8392 93.8295 73.8547L94.0683 73.8392C94.0725 73.9056 94.0493 73.9709 94.004 74.0195C93.9588 74.0681 93.8956 74.0957 93.8295 74.0957H86.6563C86.0839 74.0957 85.6357 73.7083 85.5085 73.1959C85.5079 73.1938 85.5075 73.1918 85.507 73.1897C85.4077 72.7395 85.2617 72.2033 84.9234 71.6193L84.9223 71.6175L84.9223 71.6175ZM93.558 73.6137C93.5314 73.4487 93.4843 73.2127 93.4025 72.9292C93.2439 72.3788 92.9556 71.6525 92.4358 70.9192H85.588C85.3747 70.9192 85.2211 71.1712 85.3374 71.3776C85.7101 72.0213 85.8693 72.6106 85.9734 73.0818C86.0507 73.3877 86.3141 73.6137 86.6563 73.6137H93.558Z" fill="#1F1F1F" stroke="black" stroke-width="0.880952" stroke-miterlimit="10" stroke-linecap="round" stroke-linejoin="round"/>
<path d="M12.6352 60.3809H13.3474C13.8562 60.3809 14.2632 59.971 14.2632 59.4587V58.434C14.2632 57.9217 13.8562 57.5118 13.3474 57.5118H12.6352C12.1265 57.5118 11.7195 57.9217 11.7195 58.434V59.4587C11.7704 59.971 12.1773 60.3809 12.6352 60.3809Z" fill="#F4BF31"/>
<path fill-rule="evenodd" clip-rule="evenodd" d="M11.4805 58.4339C11.4805 57.7884 11.9946 57.2707 12.6355 57.2707H13.3477C13.9886 57.2707 14.5027 57.7884 14.5027 58.4339V59.4585C14.5027 60.104 13.9886 60.6217 13.3477 60.6217H12.6355C12.0338 60.6217 11.5426 60.096 11.4817 59.4825C11.4809 59.4746 11.4805 59.4665 11.4805 59.4585V58.4339ZM12.6355 57.7526C12.2589 57.7526 11.959 58.0546 11.959 58.4339V59.4458C12.0046 59.8511 12.3243 60.1398 12.6355 60.1398H13.3477C13.7243 60.1398 14.0241 59.8378 14.0241 59.4585V58.4339C14.0241 58.0546 13.7243 57.7526 13.3477 57.7526H12.6355Z" fill="#1F1F1F" stroke="black" stroke-width="0.880952" stroke-miterlimit="10" stroke-linecap="round" stroke-linejoin="round"/>
<path d="M12.737 59.4572H9.37939V53.719H12.737C13.0932 53.719 13.3984 54.0264 13.3984 54.3851V58.7912C13.3984 59.1498 13.0932 59.4572 12.737 59.4572Z" fill="#F4BF31"/>
<path fill-rule="evenodd" clip-rule="evenodd" d="M9.14014 53.7193C9.14014 53.5862 9.24727 53.4783 9.37942 53.4783H12.7371C13.2253 53.4783 13.6377 53.8936 13.6377 54.3853V58.7915C13.6377 59.2832 13.2253 59.6985 12.7371 59.6985H9.37942C9.24727 59.6985 9.14014 59.5906 9.14014 59.4575V53.7193ZM9.61871 53.9603V59.2165H12.7371C12.961 59.2165 13.1591 59.017 13.1591 58.7915V54.3853C13.1591 54.1598 12.961 53.9603 12.7371 53.9603H9.61871Z" fill="#1F1F1F" stroke="black" stroke-width="0.880952" stroke-miterlimit="10" stroke-linecap="round" stroke-linejoin="round"/>
<path d="M9.37911 59.4572H8.71775C8.36164 59.4572 8.0564 59.1498 8.0564 58.7912V54.3851C8.0564 54.0264 8.36164 53.719 8.71775 53.719H9.37911C9.7861 53.719 10.0913 54.0264 10.0913 54.4363V58.74C10.0913 59.1498 9.7861 59.4572 9.37911 59.4572Z" fill="#F4BF31"/>
<path fill-rule="evenodd" clip-rule="evenodd" d="M8.71778 53.9603C8.49382 53.9603 8.29571 54.1598 8.29571 54.3853V58.7915C8.29571 59.017 8.49382 59.2165 8.71778 59.2165H9.37914C9.65397 59.2165 9.85208 59.017 9.85208 58.7402V54.4366C9.85208 54.1598 9.65397 53.9603 9.37914 53.9603H8.71778ZM7.81714 54.3853C7.81714 53.8936 8.22951 53.4783 8.71778 53.4783H9.37914C9.91828 53.4783 10.3307 53.8936 10.3307 54.4366V58.7402C10.3307 59.2832 9.91828 59.6985 9.37914 59.6985H8.71778C8.22951 59.6985 7.81714 59.2832 7.81714 58.7915V54.3853Z" fill="#1F1F1F" stroke="black" stroke-width="0.880952" stroke-miterlimit="10" stroke-linecap="round" stroke-linejoin="round"/>
<path d="M38.1729 71.4988V73.087C38.1729 73.4969 38.529 73.8555 38.936 73.8555H49.1106C49.4667 73.8555 49.7211 73.5481 49.6194 73.1895C49.5176 72.6772 49.2632 71.9086 48.7545 71.1401C48.6019 70.884 48.2967 70.7303 47.9405 70.7303H38.936C38.529 70.679 38.1729 71.0377 38.1729 71.4988Z" fill="#F4BF31"/>
<path fill-rule="evenodd" clip-rule="evenodd" d="M38.95 70.4892H47.9408C48.3591 70.4892 48.7509 70.6699 48.9569 71.0109C49.4802 71.8029 49.7445 72.5952 49.8525 73.1332C49.9934 73.6527 49.611 74.0965 49.1109 74.0965H38.9362C38.3971 74.0965 37.9338 73.6299 37.9338 73.087V71.4987C37.9338 70.9289 38.3789 70.4275 38.95 70.4892ZM38.9065 70.9693C38.6713 70.9397 38.4124 71.1516 38.4124 71.4987V73.087C38.4124 73.3638 38.6614 73.6145 38.9362 73.6145H49.1109C49.3198 73.6145 49.4445 73.4491 49.3896 73.2557C49.3878 73.2494 49.3863 73.2431 49.385 73.2367C49.2886 72.7512 49.045 72.0129 48.5557 71.2738C48.5536 71.2706 48.5516 71.2673 48.5496 71.2641C48.4495 71.0961 48.2326 70.9712 47.9408 70.9712H38.9362C38.9263 70.9712 38.9164 70.9706 38.9065 70.9693Z" fill="#1F1F1F" stroke="black" stroke-width="0.880952" stroke-miterlimit="10" stroke-linecap="round" stroke-linejoin="round"/>
<path d="M13.6019 45.5741H56.7425C57.5565 45.5741 58.3196 45.9327 58.8792 46.5475L71.1397 60.0221C71.3941 60.3295 71.1906 60.7906 70.7836 60.7906H27.6938C26.8798 60.7906 26.1167 60.432 25.5571 59.8171L13.2966 46.3938C12.9914 46.0864 13.1949 45.5741 13.6019 45.5741Z" fill="#F4BF31"/>
<path fill-rule="evenodd" clip-rule="evenodd" d="M13.6013 45.8153C13.4286 45.8153 13.2956 46.0528 13.4652 46.2237C13.4676 46.226 13.4699 46.2285 13.4722 46.2309L25.7329 59.6546C26.2504 60.2231 26.951 60.5499 27.6932 60.5499H70.783C70.9793 60.5499 71.0821 60.3353 70.9583 60.1803L58.7022 46.7106C58.7022 46.7106 58.7022 46.7106 58.7022 46.7106C58.1847 46.1421 57.4842 45.8153 56.7419 45.8153H13.6013ZM13.123 46.5606C12.6876 46.1159 12.9618 45.3333 13.6013 45.3333H56.7419C57.6276 45.3333 58.4533 45.7239 59.055 46.3849L71.3155 59.8595C71.3181 59.8623 71.3205 59.8652 71.3229 59.8681C71.7032 60.3276 71.3991 61.0318 70.783 61.0318H27.6932C26.8077 61.0318 25.9821 60.6414 25.3804 59.9806M13.123 46.5606L25.3801 59.9802L13.123 46.5606Z" fill="#1F1F1F"/>
<path d="M58.7022 46.7106L70.9583 60.1803C71.0821 60.3353 70.9793 60.5499 70.783 60.5499H27.6932C26.951 60.5499 26.2504 60.2231 25.7329 59.6546L13.4722 46.2309C13.4699 46.2285 13.4676 46.226 13.4652 46.2237C13.2956 46.0528 13.4286 45.8153 13.6013 45.8153H56.7419C57.4842 45.8153 58.1847 46.1421 58.7022 46.7106ZM58.7022 46.7106C58.7022 46.7106 58.7022 46.7106 58.7022 46.7106ZM13.123 46.5606C12.6876 46.1159 12.9618 45.3333 13.6013 45.3333H56.7419C57.6276 45.3333 58.4533 45.7239 59.055 46.3849L71.3155 59.8595C71.3181 59.8623 71.3205 59.8652 71.3229 59.8681C71.7032 60.3276 71.3991 61.0318 70.783 61.0318H27.6932C26.8077 61.0318 25.9821 60.6414 25.3804 59.9806L13.123 46.5606ZM13.123 46.5606L25.3801 59.9802" stroke="black" stroke-width="0.880952" stroke-miterlimit="10" stroke-linecap="round" stroke-linejoin="round"/>
<path fill-rule="evenodd" clip-rule="evenodd" d="M-3.06982 67.2457C-3.06982 67.1126 -2.96269 67.0047 -2.83054 67.0047H0.0692444C0.201399 67.0047 0.308531 67.1126 0.308531 67.2457C0.308531 67.3788 0.201399 67.4867 0.0692444 67.4867H-2.83054C-2.96269 67.4867 -3.06982 67.3788 -3.06982 67.2457Z" fill="#1F1F1F" stroke="black" stroke-width="0.880952" stroke-miterlimit="10" stroke-linecap="round" stroke-linejoin="round"/>
<path fill-rule="evenodd" clip-rule="evenodd" d="M80.1963 75.9195C80.3285 75.9195 80.4356 76.0274 80.4356 76.1605V82.0012C80.4356 82.1343 80.3285 82.2422 80.1963 82.2422C80.0642 82.2422 79.957 82.1343 79.957 82.0012V76.1605C79.957 76.0274 80.0642 75.9195 80.1963 75.9195Z" fill="#1F1F1F" stroke="black" stroke-width="0.880952" stroke-miterlimit="10" stroke-linecap="round" stroke-linejoin="round"/>
<path fill-rule="evenodd" clip-rule="evenodd" d="M83.096 75.9195C83.2281 75.9195 83.3353 76.0274 83.3353 76.1605V82.0012C83.3353 82.1343 83.2281 82.2422 83.096 82.2422C82.9638 82.2422 82.8567 82.1343 82.8567 82.0012V76.1605C82.8567 76.0274 82.9638 75.9195 83.096 75.9195Z" fill="#1F1F1F" stroke="black" stroke-width="0.880952" stroke-miterlimit="10" stroke-linecap="round" stroke-linejoin="round"/>
<path fill-rule="evenodd" clip-rule="evenodd" d="M77.3472 75.9195C77.4794 75.9195 77.5865 76.0274 77.5865 76.1605V82.0012C77.5865 82.1343 77.4794 82.2422 77.3472 82.2422C77.215 82.2422 77.1079 82.1343 77.1079 82.0012V76.1605C77.1079 76.0274 77.215 75.9195 77.3472 75.9195Z" fill="#1F1F1F" stroke="black" stroke-width="0.880952" stroke-miterlimit="10" stroke-linecap="round" stroke-linejoin="round"/>
<path fill-rule="evenodd" clip-rule="evenodd" d="M74.4471 75.9195C74.5792 75.9195 74.6863 76.0274 74.6863 76.1605V82.0012C74.6863 82.1343 74.5792 82.2422 74.4471 82.2422C74.3149 82.2422 74.2078 82.1343 74.2078 82.0012V76.1605C74.2078 76.0274 74.3149 75.9195 74.4471 75.9195Z" fill="#1F1F1F" stroke="black" stroke-width="0.880952" stroke-miterlimit="10" stroke-linecap="round" stroke-linejoin="round"/>
<path fill-rule="evenodd" clip-rule="evenodd" d="M71.5987 75.9195C71.7308 75.9195 71.8379 76.0274 71.8379 76.1605V82.0012C71.8379 82.1343 71.7308 82.2422 71.5987 82.2422C71.4665 82.2422 71.3594 82.1343 71.3594 82.0012V76.1605C71.3594 76.0274 71.4665 75.9195 71.5987 75.9195Z" fill="#1F1F1F" stroke="black" stroke-width="0.880952" stroke-miterlimit="10" stroke-linecap="round" stroke-linejoin="round"/>
<path fill-rule="evenodd" clip-rule="evenodd" d="M68.6995 75.9195C68.8316 75.9195 68.9388 76.0274 68.9388 76.1605V82.0012C68.9388 82.1343 68.8316 82.2422 68.6995 82.2422C68.5673 82.2422 68.4602 82.1343 68.4602 82.0012V76.1605C68.4602 76.0274 68.5673 75.9195 68.6995 75.9195Z" fill="#1F1F1F" stroke="black" stroke-width="0.880952" stroke-miterlimit="10" stroke-linecap="round" stroke-linejoin="round"/>
<path fill-rule="evenodd" clip-rule="evenodd" d="M65.8499 75.9195C65.982 75.9195 66.0892 76.0274 66.0892 76.1605V82.0012C66.0892 82.1343 65.982 82.2422 65.8499 82.2422C65.7177 82.2422 65.6106 82.1343 65.6106 82.0012V76.1605C65.6106 76.0274 65.7177 75.9195 65.8499 75.9195Z" fill="#1F1F1F" stroke="black" stroke-width="0.880952" stroke-miterlimit="10" stroke-linecap="round" stroke-linejoin="round"/>
<path fill-rule="evenodd" clip-rule="evenodd" d="M62.9497 75.9195C63.0819 75.9195 63.189 76.0274 63.189 76.1605V82.0012C63.189 82.1343 63.0819 82.2422 62.9497 82.2422C62.8176 82.2422 62.7104 82.1343 62.7104 82.0012V76.1605C62.7104 76.0274 62.8176 75.9195 62.9497 75.9195Z" fill="#1F1F1F" stroke="black" stroke-width="0.880952" stroke-miterlimit="10" stroke-linecap="round" stroke-linejoin="round"/>
<path fill-rule="evenodd" clip-rule="evenodd" d="M60.1013 75.9195C60.2335 75.9195 60.3406 76.0274 60.3406 76.1605V82.0012C60.3406 82.1343 60.2335 82.2422 60.1013 82.2422C59.9692 82.2422 59.8621 82.1343 59.8621 82.0012V76.1605C59.8621 76.0274 59.9692 75.9195 60.1013 75.9195Z" fill="#1F1F1F" stroke="black" stroke-width="0.880952" stroke-miterlimit="10" stroke-linecap="round" stroke-linejoin="round"/>
<path fill-rule="evenodd" clip-rule="evenodd" d="M57.2012 75.9194C57.3334 75.9194 57.4405 76.0273 57.4405 76.1604V82.0011C57.4405 82.1342 57.3334 82.2421 57.2012 82.2421C57.069 82.2421 56.9619 82.1342 56.9619 82.0011V76.1604C56.9619 76.0273 57.069 75.9194 57.2012 75.9194Z" fill="#1F1F1F" stroke="black" stroke-width="0.880952" stroke-miterlimit="10" stroke-linecap="round" stroke-linejoin="round"/>
<path fill-rule="evenodd" clip-rule="evenodd" d="M85.9451 75.9195C86.0773 75.9195 86.1844 76.0274 86.1844 76.1605V82.0012C86.1844 82.1343 86.0773 82.2422 85.9451 82.2422C85.8129 82.2422 85.7058 82.1343 85.7058 82.0012V76.1605C85.7058 76.0274 85.8129 75.9195 85.9451 75.9195Z" fill="#1F1F1F" stroke="black" stroke-width="0.880952" stroke-miterlimit="10" stroke-linecap="round" stroke-linejoin="round"/>
<path fill-rule="evenodd" clip-rule="evenodd" d="M88.8445 75.9195C88.9767 75.9195 89.0838 76.0274 89.0838 76.1605V82.0012C89.0838 82.1343 88.9767 82.2422 88.8445 82.2422C88.7124 82.2422 88.6052 82.1343 88.6052 82.0012V76.1605C88.6052 76.0274 88.7124 75.9195 88.8445 75.9195Z" fill="#1F1F1F" stroke="black" stroke-width="0.880952" stroke-miterlimit="10" stroke-linecap="round" stroke-linejoin="round"/>
<path fill-rule="evenodd" clip-rule="evenodd" d="M19.7727 81.0787C19.7727 80.9456 19.8798 80.8377 20.012 80.8377H23.7258C23.8579 80.8377 23.965 80.9456 23.965 81.0787C23.965 81.2118 23.8579 81.3197 23.7258 81.3197H20.012C19.8798 81.3197 19.7727 81.2118 19.7727 81.0787Z" fill="#1F1F1F" stroke="black" stroke-width="0.880952" stroke-miterlimit="10" stroke-linecap="round" stroke-linejoin="round"/>
<path d="M274.855 81.0789H278.496V83.1796C279.71 84.7678 280.468 87.1246 280.468 89.7375C280.468 92.3505 279.71 94.7072 278.496 96.2955V98.3961H274.855C271.77 98.3961 269.242 94.5023 269.242 89.6863C269.242 84.8703 271.77 81.0789 274.855 81.0789Z" fill="#F4BF31"/>
<path fill-rule="evenodd" clip-rule="evenodd" d="M278.734 81.0788C278.734 80.9457 278.628 80.8378 278.496 80.8378H274.855C273.209 80.8378 271.74 81.8496 270.694 83.4429C269.647 85.0379 269.004 87.2378 269.004 89.6861C269.004 92.1343 269.647 94.359 270.693 95.979C271.738 97.5965 273.206 98.6369 274.855 98.6369H278.496C278.628 98.6369 278.734 98.529 278.734 98.3959V96.3769C279.956 94.7407 280.707 92.3582 280.707 89.7373C280.707 87.1164 279.956 84.734 278.734 83.0977V81.0788ZM278.259 81.3197V83.1794C278.259 83.2328 278.276 83.2846 278.308 83.3269C279.484 84.8656 280.231 87.1677 280.231 89.7373C280.231 92.3069 279.484 94.6091 278.308 96.1478C278.276 96.19 278.259 96.2419 278.259 96.2953V98.1549H274.855C273.42 98.1549 272.082 97.2484 271.091 95.715C270.102 94.184 269.48 92.0539 269.48 89.6861C269.48 87.3184 270.102 85.2146 271.09 83.7099C272.079 82.2036 273.417 81.3197 274.855 81.3197H278.259Z" fill="#1F1F1F" stroke="black" stroke-width="0.880952" stroke-miterlimit="10" stroke-linecap="round" stroke-linejoin="round"/>
<path d="M278.496 98.4986C275.396 98.4986 272.883 94.599 272.883 89.7887C272.883 84.9785 275.396 81.0789 278.496 81.0789C281.596 81.0789 284.109 84.9785 284.109 89.7887C284.109 94.599 281.596 98.4986 278.496 98.4986Z" fill="#F4BF31"/>
<path fill-rule="evenodd" clip-rule="evenodd" d="M282.266 83.7615C283.253 85.2932 283.872 87.4234 283.872 89.7886C283.872 92.1538 283.253 94.2839 282.266 95.8156C281.278 97.3494 279.94 98.2574 278.496 98.2574C277.053 98.2574 275.715 97.3494 274.726 95.8156C273.739 94.2839 273.121 92.1538 273.121 89.7886C273.121 87.4234 273.739 85.2932 274.726 83.7615C275.715 82.2277 277.053 81.3197 278.496 81.3197C279.94 81.3197 281.278 82.2277 282.266 83.7615ZM282.665 83.498C281.622 81.8795 280.153 80.8378 278.496 80.8378C276.84 80.8378 275.371 81.8795 274.328 83.498C273.283 85.1187 272.645 87.3435 272.645 89.7886C272.645 92.2336 273.283 94.4584 274.328 96.0791C275.371 97.6976 276.84 98.7393 278.496 98.7393C280.153 98.7393 281.622 97.6976 282.665 96.0791C283.709 94.4584 284.347 92.2336 284.347 89.7886C284.347 87.3435 283.709 85.1187 282.665 83.498Z" fill="#1F1F1F" stroke="black" stroke-width="0.880952" stroke-miterlimit="10" stroke-linecap="round" stroke-linejoin="round"/>
<path d="M210.075 81.0789H213.717V83.1796C214.93 84.7678 215.689 87.1246 215.689 89.7375C215.689 92.3505 214.93 94.7072 213.717 96.2955V98.3961H210.075C206.991 98.3961 204.462 94.5023 204.462 89.6863C204.462 84.8703 206.94 81.0789 210.075 81.0789Z" fill="#F4BF31"/>
<path fill-rule="evenodd" clip-rule="evenodd" d="M213.955 81.0788C213.955 80.9457 213.848 80.8378 213.717 80.8378H210.076C208.405 80.8378 206.936 81.8488 205.895 83.4435C204.854 85.0389 204.225 87.2388 204.225 89.6861C204.225 92.1343 204.867 94.359 205.913 95.979C206.958 97.5965 208.427 98.6369 210.076 98.6369H213.717C213.848 98.6369 213.955 98.529 213.955 98.3959V96.3769C215.177 94.7407 215.927 92.3582 215.927 89.7373C215.927 87.1164 215.177 84.734 213.955 83.0977V81.0788ZM213.479 81.3197V83.1794C213.479 83.2328 213.496 83.2846 213.529 83.3269C214.704 84.8656 215.451 87.1677 215.451 89.7373C215.451 92.3069 214.704 94.6091 213.529 96.1478C213.496 96.19 213.479 96.2419 213.479 96.2953V98.1549H210.076C208.64 98.1549 207.302 97.2484 206.311 95.715C205.322 94.184 204.7 92.0539 204.7 89.6861C204.7 87.3174 205.31 85.2136 206.292 83.7093C207.274 82.2043 208.611 81.3197 210.076 81.3197H213.479Z" fill="#1F1F1F" stroke="black" stroke-width="0.880952" stroke-miterlimit="10" stroke-linecap="round" stroke-linejoin="round"/>
<path d="M213.716 98.4986C210.616 98.4986 208.103 94.599 208.103 89.7887C208.103 84.9785 210.616 81.0789 213.716 81.0789C216.816 81.0789 219.329 84.9785 219.329 89.7887C219.329 94.599 216.816 98.4986 213.716 98.4986Z" fill="#F4BF31"/>
<path fill-rule="evenodd" clip-rule="evenodd" d="M217.486 83.7615C218.473 85.2932 219.091 87.4234 219.091 89.7886C219.091 92.1538 218.473 94.2839 217.486 95.8156C216.498 97.3494 215.159 98.2574 213.716 98.2574C212.273 98.2574 210.935 97.3494 209.946 95.8156C208.959 94.2839 208.341 92.1538 208.341 89.7886C208.341 87.4234 208.959 85.2932 209.946 83.7615C210.935 82.2277 212.273 81.3197 213.716 81.3197C215.159 81.3197 216.498 82.2277 217.486 83.7615ZM217.884 83.498C216.841 81.8795 215.373 80.8378 213.716 80.8378C212.059 80.8378 210.591 81.8795 209.548 83.498C208.503 85.1187 207.865 87.3435 207.865 89.7886C207.865 92.2336 208.503 94.4584 209.548 96.0791C210.591 97.6976 212.059 98.7393 213.716 98.7393C215.373 98.7393 216.841 97.6976 217.884 96.0791C218.929 94.4584 219.567 92.2336 219.567 89.7886C219.567 87.3435 218.929 85.1187 217.884 83.498Z" fill="#1F1F1F" stroke="black" stroke-width="0.880952" stroke-miterlimit="10" stroke-linecap="round" stroke-linejoin="round"/>
<path d="M261.201 81.0789H264.842V83.1796C266.056 84.7678 266.814 87.1246 266.814 89.7375C266.814 92.3505 266.056 94.7072 264.842 96.2955V98.3961H261.201C258.116 98.3961 255.588 94.5023 255.588 89.6863C255.588 84.8703 258.116 81.0789 261.201 81.0789Z" fill="#F4BF31"/>
<path fill-rule="evenodd" clip-rule="evenodd" d="M265.08 81.0788C265.08 80.9457 264.974 80.8378 264.842 80.8378H261.201C259.555 80.8378 258.086 81.8496 257.04 83.4429C255.993 85.0379 255.35 87.2378 255.35 89.6861C255.35 92.1343 255.993 94.359 257.039 95.979C258.084 97.5965 259.552 98.6369 261.201 98.6369H264.842C264.974 98.6369 265.08 98.529 265.08 98.3959V96.3769C266.302 94.7407 267.052 92.3582 267.052 89.7373C267.052 87.1164 266.302 84.734 265.08 83.0977V81.0788ZM264.605 81.3197V83.1794C264.605 83.2328 264.622 83.2846 264.654 83.3269C265.83 84.8656 266.577 87.1677 266.577 89.7373C266.577 92.3069 265.83 94.6091 264.654 96.1478C264.622 96.19 264.605 96.2419 264.605 96.2953V98.1549H261.201C259.766 98.1549 258.428 97.2484 257.437 95.715C256.448 94.184 255.826 92.0539 255.826 89.6861C255.826 87.3184 256.448 85.2146 257.436 83.7099C258.425 82.2036 259.763 81.3197 261.201 81.3197H264.605Z" fill="#1F1F1F" stroke="black" stroke-width="0.880952" stroke-miterlimit="10" stroke-linecap="round" stroke-linejoin="round"/>
<path d="M210.328 60.7899L230.707 38.1956C234.854 33.6358 240.669 31.0228 246.839 31.0228H247.8H333.667H340.292C342.466 31.0228 344.236 32.816 344.236 35.0191V89.7884H331.341H320.772H191.516V74.6231C191.516 72.2151 192.83 70.012 194.954 68.9361L210.328 60.7899Z" fill="#F4BF31"/>
<path fill-rule="evenodd" clip-rule="evenodd" d="M344.474 35.0195C344.474 32.6833 342.598 30.7822 340.292 30.7822H246.839C240.603 30.7822 234.724 33.4237 230.532 38.0327L230.532 38.0334L210.18 60.5964L194.848 68.7209L194.846 68.7218C192.641 69.8399 191.278 72.127 191.278 74.6234V89.7887C191.278 89.9218 191.384 90.0297 191.516 90.0297H344.237C344.368 90.0297 344.474 89.9218 344.474 89.7887V35.0195ZM340.292 31.2642C342.335 31.2642 343.999 32.9495 343.999 35.0195V89.5478H191.754V74.6234C191.754 72.3046 193.019 70.1862 195.061 69.152L195.065 69.15L210.438 61.0038C210.463 60.9908 210.485 60.9735 210.503 60.9528L230.882 38.3593L230.883 38.3586M230.883 38.3586C234.985 33.8483 240.737 31.2642 246.839 31.2642H340.292" fill="#1F1F1F"/>
<path d="M340.292 30.7822C342.598 30.7822 344.474 32.6833 344.474 35.0195V89.7887C344.474 89.9218 344.368 90.0297 344.237 90.0297H191.516C191.384 90.0297 191.278 89.9218 191.278 89.7887V74.6234C191.278 72.127 192.641 69.8398 194.846 68.7218L194.848 68.7209L210.18 60.5964L230.532 38.0334L230.532 38.0327C234.724 33.4237 240.603 30.7822 246.839 30.7822H340.292ZM343.999 35.0195C343.999 32.9495 342.335 31.2642 340.292 31.2642H246.839C240.737 31.2642 234.985 33.8483 230.883 38.3586L230.882 38.3593L210.503 60.9528C210.485 60.9735 210.463 60.9908 210.438 61.0038L195.065 69.15L195.061 69.152C193.019 70.1862 191.754 72.3046 191.754 74.6234V89.5478H343.999V35.0195Z" stroke="black" stroke-width="0.880952" stroke-miterlimit="10" stroke-linecap="round" stroke-linejoin="round"/>
<path d="M202.034 84.717H344.236V89.7892H202.034V84.717Z" fill="#F4BF31"/>
<path fill-rule="evenodd" clip-rule="evenodd" d="M344.474 84.7168C344.474 84.5837 344.368 84.4758 344.237 84.4758H202.034C201.903 84.4758 201.797 84.5837 201.797 84.7168V89.789C201.797 89.9221 201.903 90.03 202.034 90.03H344.237C344.368 90.03 344.474 89.9221 344.474 89.789V84.7168ZM343.999 84.9578V89.548H202.272V84.9578H343.999Z" fill="#1F1F1F" stroke="black" stroke-width="0.880952" stroke-miterlimit="10" stroke-linecap="round" stroke-linejoin="round"/>
<path d="M257.914 89.7891C257.914 83.8459 261.049 78.9787 264.893 78.9787C268.736 78.9787 271.871 83.7947 271.871 89.7891H257.914Z" fill="#F4BF31"/>
<path fill-rule="evenodd" clip-rule="evenodd" d="M270.023 82.0038C268.731 80.008 266.921 78.7377 264.893 78.7377C262.864 78.7377 261.055 80.0218 259.763 82.0233C258.471 84.0273 257.677 86.7771 257.677 89.7891H257.915V90.03H271.872C272.003 90.03 272.11 89.9221 272.11 89.7891C272.11 86.7518 271.316 84.0018 270.023 82.0038ZM258.154 89.5481C258.195 86.7125 258.96 84.1498 260.162 82.287C261.399 80.3691 263.079 79.2196 264.893 79.2196C266.709 79.2196 268.388 80.3574 269.625 82.2681C270.826 84.1247 271.591 86.6878 271.632 89.5481H258.154Z" fill="#1F1F1F" stroke="black" stroke-width="0.880952" stroke-miterlimit="10" stroke-linecap="round" stroke-linejoin="round"/>
<path fill-rule="evenodd" clip-rule="evenodd" d="M347.439 98.4495C347.439 98.3164 347.332 98.2086 347.201 98.2086H188.308C188.177 98.2086 188.07 98.3164 188.07 98.4495C188.07 98.5826 188.177 98.6905 188.308 98.6905H347.201C347.332 98.6905 347.439 98.5826 347.439 98.4495Z" fill="#1F1F1F" stroke="black" stroke-width="0.880952" stroke-miterlimit="10" stroke-linecap="round" stroke-linejoin="round"/>
<path d="M264.894 98.4986C261.793 98.4986 259.28 94.599 259.28 89.7887C259.28 84.9785 261.793 81.0789 264.894 81.0789C267.994 81.0789 270.507 84.9785 270.507 89.7887C270.507 94.599 267.994 98.4986 264.894 98.4986Z" fill="#F4BF31"/>
<path fill-rule="evenodd" clip-rule="evenodd" d="M268.664 83.7615C269.651 85.2932 270.269 87.4234 270.269 89.7886C270.269 92.1538 269.651 94.2839 268.664 95.8156C267.675 97.3494 266.337 98.2574 264.894 98.2574C263.45 98.2574 262.112 97.3494 261.124 95.8156C260.137 94.2839 259.518 92.1538 259.518 89.7886C259.518 87.4234 260.137 85.2932 261.124 83.7615C262.112 82.2277 263.45 81.3197 264.894 81.3197C266.337 81.3197 267.675 82.2277 268.664 83.7615ZM269.062 83.498C268.019 81.8795 266.55 80.8378 264.894 80.8378C263.237 80.8378 261.769 81.8795 260.725 83.498C259.681 85.1187 259.043 87.3435 259.043 89.7886C259.043 92.2336 259.681 94.4584 260.725 96.0791C261.769 97.6976 263.237 98.7393 264.894 98.7393C266.55 98.7393 268.019 97.6976 269.062 96.0791C270.107 94.4584 270.745 92.2336 270.745 89.7886C270.745 87.3435 270.107 85.1187 269.062 83.498Z" fill="#1F1F1F" stroke="black" stroke-width="0.880952" stroke-miterlimit="10" stroke-linecap="round" stroke-linejoin="round"/>
<path d="M264.893 92.8134C263.804 92.8134 262.921 91.4601 262.921 89.7906C262.921 88.1211 263.804 86.7678 264.893 86.7678C265.982 86.7678 266.865 88.1211 266.865 89.7906C266.865 91.4601 265.982 92.8134 264.893 92.8134Z" fill="#F4BF31"/>
<path fill-rule="evenodd" clip-rule="evenodd" d="M266.089 87.786C266.417 88.2884 266.627 88.9964 266.627 89.7906C266.627 90.5848 266.417 91.2928 266.089 91.7952C265.76 92.2994 265.332 92.5724 264.893 92.5724C264.454 92.5724 264.026 92.2994 263.697 91.7952C263.369 91.2928 263.159 90.5848 263.159 89.7906C263.159 88.9964 263.369 88.2884 263.697 87.786C264.026 87.2818 264.454 87.0088 264.893 87.0088C265.332 87.0088 265.76 87.2818 266.089 87.786ZM266.486 87.5203C266.101 86.9304 265.543 86.5268 264.893 86.5268C264.243 86.5268 263.685 86.9304 263.3 87.5203C262.914 88.112 262.683 88.9153 262.683 89.7906C262.683 90.6658 262.914 91.4692 263.3 92.0609C263.685 92.6507 264.243 93.0544 264.893 93.0544C265.543 93.0544 266.101 92.6507 266.486 92.0609C266.872 91.4692 267.103 90.6658 267.103 89.7906C267.103 88.9153 266.872 88.112 266.486 87.5203Z" fill="#1F1F1F" stroke="black" stroke-width="0.880952" stroke-miterlimit="10" stroke-linecap="round" stroke-linejoin="round"/>
<path d="M286.233 45.5741H282.997C281.783 45.5741 280.569 46.0864 279.76 47.0599L269.646 58.6388C268.787 59.6122 269.495 61.098 270.759 61.098H286.233C287.042 61.098 287.7 60.432 287.7 59.6122V47.1111C287.7 46.2401 287.042 45.5741 286.233 45.5741Z" fill="#F4BF31"/>
<path fill-rule="evenodd" clip-rule="evenodd" d="M286.233 45.8152C286.906 45.8152 287.462 46.368 287.462 47.1113V59.6124C287.462 60.299 286.911 60.8572 286.233 60.8572H270.759C269.687 60.8572 269.11 59.608 269.824 58.7996L269.824 58.7986L279.938 47.2197C279.94 47.2183 279.941 47.2168 279.942 47.2153C280.702 46.301 281.847 45.8152 282.997 45.8152H286.233ZM287.938 47.1113C287.938 46.1126 287.179 45.3333 286.233 45.3333H282.997C281.72 45.3333 280.439 45.8713 279.58 46.9025L269.469 58.4782C269.469 58.4784 269.469 58.4785 269.469 58.4786C268.464 59.6172 269.302 61.3392 270.759 61.3392H286.233C287.174 61.3392 287.938 60.5652 287.938 59.6124V47.1113Z" fill="#1F1F1F" stroke="black" stroke-width="0.880952" stroke-miterlimit="10" stroke-linecap="round" stroke-linejoin="round"/>
<path d="M283.856 45.5741H282.996C281.783 45.5741 280.569 46.0864 279.76 47.0599L269.646 58.6388C268.786 59.6122 269.494 61.098 270.758 61.098H283.856C284.665 61.098 285.323 60.432 285.323 59.6122V47.1111C285.323 46.2401 284.665 45.5741 283.856 45.5741Z" fill="#F4BF31"/>
<path fill-rule="evenodd" clip-rule="evenodd" d="M283.856 45.8152C284.529 45.8152 285.085 46.368 285.085 47.1113V59.6124C285.085 60.299 284.534 60.8572 283.856 60.8572H270.759C269.687 60.8572 269.11 59.608 269.824 58.7996L269.824 58.7986L279.938 47.2197C279.94 47.2183 279.941 47.2168 279.942 47.2153C280.702 46.301 281.847 45.8152 282.997 45.8152H283.856ZM285.561 47.1113C285.561 46.1126 284.802 45.3333 283.856 45.3333H282.997C281.72 45.3333 280.439 45.8713 279.58 46.9025L269.469 58.4782C269.469 58.4784 269.469 58.4786 269.469 58.4788C268.464 59.6174 269.302 61.3392 270.759 61.3392H283.856C284.797 61.3392 285.561 60.5652 285.561 59.6124V47.1113Z" fill="#1F1F1F" stroke="black" stroke-width="0.880952" stroke-miterlimit="10" stroke-linecap="round" stroke-linejoin="round"/>
<path fill-rule="evenodd" clip-rule="evenodd" d="M309.126 31.0232C309.126 30.8901 309.02 30.7822 308.888 30.7822H298.117C291.881 30.7822 286.002 33.4237 281.81 38.0327L281.809 38.0336L261.459 60.6473L246.076 68.7209C246.075 68.7212 246.075 68.7214 246.074 68.7216C243.869 69.8396 242.505 72.1268 242.505 74.6234V89.7887C242.505 89.9218 242.612 90.0297 242.743 90.0297C242.875 90.0297 242.981 89.9218 242.981 89.7887V74.6234C242.981 72.3046 244.247 70.1862 246.288 69.152L246.291 69.1504L261.715 61.0554C261.74 61.0423 261.762 61.0249 261.781 61.0038L282.16 38.3593C286.262 33.8486 292.014 31.2642 298.117 31.2642H308.888C309.02 31.2642 309.126 31.1563 309.126 31.0232Z" fill="#1F1F1F" stroke="black" stroke-width="0.880952" stroke-miterlimit="10" stroke-linecap="round" stroke-linejoin="round"/>
<path d="M190.201 89.7892H243.754C244.766 89.7892 245.625 88.9694 245.625 87.8935V86.6127C245.625 85.588 244.816 84.717 243.754 84.717H190.201C189.341 84.717 188.583 85.4343 188.583 86.3565V88.1497C188.633 89.0207 189.341 89.7892 190.201 89.7892Z" fill="#F4BF31"/>
<path fill-rule="evenodd" clip-rule="evenodd" d="M243.755 84.9578C244.681 84.9578 245.388 85.7166 245.388 86.6125V87.8933C245.388 88.8319 244.639 89.548 243.755 89.548H190.201C189.487 89.548 188.868 88.9009 188.821 88.1422V86.3563C188.821 85.572 189.468 84.9578 190.201 84.9578H243.755ZM245.864 86.6125C245.864 85.459 244.952 84.4758 243.755 84.4758H190.201C189.215 84.4758 188.345 85.2961 188.345 86.3563V88.1495C188.345 88.1542 188.345 88.1589 188.346 88.1636C188.402 89.1439 189.198 90.03 190.201 90.03H243.755C244.893 90.03 245.864 89.1066 245.864 87.8933V86.6125Z" fill="#1F1F1F" stroke="black" stroke-width="0.880952" stroke-miterlimit="10" stroke-linecap="round" stroke-linejoin="round"/>
<path d="M200.164 71.4978C199.81 72.1126 199.658 72.6762 199.557 73.1373C199.456 73.5471 199.102 73.8546 198.647 73.8546H191.516C191.516 73.8546 191.617 72.2663 192.78 70.678H199.709C200.113 70.678 200.366 71.1391 200.164 71.4978Z" fill="#F4BF31"/>
<path fill-rule="evenodd" clip-rule="evenodd" d="M200.37 71.6175C200.658 71.1068 200.305 70.4373 199.708 70.4373H192.78C192.705 70.4373 192.634 70.4734 192.589 70.5346C191.987 71.3568 191.66 72.1785 191.484 72.7949C191.395 73.1033 191.344 73.3612 191.315 73.5434C191.301 73.6345 191.292 73.7068 191.286 73.7571C191.284 73.7823 191.282 73.802 191.281 73.8158C191.28 73.8227 191.279 73.8281 191.279 73.8321L191.279 73.8368L191.279 73.8383L191.279 73.8388L191.279 73.8391C191.279 73.8392 191.279 73.8392 191.516 73.8548L191.279 73.8392C191.274 73.9057 191.298 73.971 191.343 74.0196C191.388 74.0682 191.45 74.0957 191.516 74.0957H198.646C199.215 74.0957 199.661 73.7084 199.787 73.1959C199.788 73.1939 199.788 73.1918 199.789 73.1897C199.888 72.7395 200.033 72.2034 200.369 71.6194L200.37 71.6175L200.37 71.6175ZM191.786 73.6138C191.812 73.4488 191.859 73.2128 191.94 72.9293C192.098 72.3788 192.385 71.6526 192.901 70.9192H199.708C199.92 70.9192 200.073 71.1712 199.957 71.3776C199.587 72.0213 199.429 72.6107 199.325 73.0819C199.248 73.3877 198.987 73.6138 198.646 73.6138H191.786Z" fill="#1F1F1F" stroke="black" stroke-width="0.880952" stroke-miterlimit="10" stroke-linecap="round" stroke-linejoin="round"/>
<path d="M272.225 60.3809H271.517C271.012 60.3809 270.607 59.971 270.607 59.4586V58.434C270.607 57.9216 271.012 57.5117 271.517 57.5117H272.225C272.731 57.5117 273.135 57.9216 273.135 58.434V59.4586C273.085 59.971 272.68 60.3809 272.225 60.3809Z" fill="#F4BF31"/>
<path fill-rule="evenodd" clip-rule="evenodd" d="M273.373 58.4338C273.373 57.7883 272.862 57.2706 272.225 57.2706H271.517C270.88 57.2706 270.369 57.7883 270.369 58.4338V59.4584C270.369 60.1039 270.88 60.6216 271.517 60.6216H272.225C272.823 60.6216 273.312 60.0959 273.372 59.4824C273.373 59.4745 273.373 59.4665 273.373 59.4584V58.4338ZM272.225 57.7525C272.6 57.7525 272.898 58.0545 272.898 58.4338V59.4457C272.852 59.851 272.535 60.1397 272.225 60.1397H271.517C271.143 60.1397 270.845 59.8377 270.845 59.4584V58.4338C270.845 58.0545 271.143 57.7525 271.517 57.7525H272.225Z" fill="#1F1F1F" stroke="black" stroke-width="0.880952" stroke-miterlimit="10" stroke-linecap="round" stroke-linejoin="round"/>
<path d="M272.124 59.4572H275.462V53.7189H272.124C271.77 53.7189 271.467 54.0263 271.467 54.385V58.7911C271.467 59.1497 271.77 59.4572 272.124 59.4572Z" fill="#F4BF31"/>
<path fill-rule="evenodd" clip-rule="evenodd" d="M275.7 53.7193C275.7 53.5862 275.593 53.4783 275.462 53.4783H272.124C271.639 53.4783 271.229 53.8936 271.229 54.3854V58.7915C271.229 59.2832 271.639 59.6985 272.124 59.6985H275.462C275.593 59.6985 275.7 59.5906 275.7 59.4575V53.7193ZM275.224 53.9603V59.2166H272.124C271.902 59.2166 271.705 59.017 271.705 58.7915V54.3854C271.705 54.1598 271.902 53.9603 272.124 53.9603H275.224Z" fill="#1F1F1F" stroke="black" stroke-width="0.880952" stroke-miterlimit="10" stroke-linecap="round" stroke-linejoin="round"/>
<path d="M275.462 59.4572H276.119C276.473 59.4572 276.777 59.1497 276.777 58.7911V54.385C276.777 54.0263 276.473 53.7189 276.119 53.7189H275.462C275.057 53.7189 274.754 54.0263 274.754 54.4362V58.7399C274.754 59.1497 275.057 59.4572 275.462 59.4572Z" fill="#F4BF31"/>
<path fill-rule="evenodd" clip-rule="evenodd" d="M276.119 53.9603C276.342 53.9603 276.539 54.1598 276.539 54.3854V58.7915C276.539 59.017 276.342 59.2166 276.119 59.2166H275.462C275.189 59.2166 274.992 59.017 274.992 58.7403V54.4366C274.992 54.1598 275.189 53.9603 275.462 53.9603H276.119ZM277.015 54.3854C277.015 53.8936 276.605 53.4783 276.119 53.4783H275.462C274.926 53.4783 274.516 53.8936 274.516 54.4366V58.7403C274.516 59.2832 274.926 59.6985 275.462 59.6985H276.119C276.605 59.6985 277.015 59.2832 277.015 58.7915V54.3854Z" fill="#1F1F1F" stroke="black" stroke-width="0.880952" stroke-miterlimit="10" stroke-linecap="round" stroke-linejoin="round"/>
<path d="M246.84 71.4988V73.0871C246.84 73.497 246.486 73.8556 246.081 73.8556H235.967C235.613 73.8556 235.361 73.5482 235.462 73.1896C235.563 72.6772 235.816 71.9087 236.321 71.1402C236.473 70.884 236.776 70.7303 237.13 70.7303H246.081C246.486 70.6791 246.84 71.0377 246.84 71.4988Z" fill="#F4BF31"/>
<path fill-rule="evenodd" clip-rule="evenodd" d="M246.068 70.4892H237.131C236.715 70.4892 236.325 70.6699 236.121 71.0109C235.6 71.8029 235.338 72.5952 235.23 73.1332C235.09 73.6527 235.47 74.0965 235.968 74.0965H246.081C246.617 74.0965 247.078 73.6299 247.078 73.087V71.4987C247.078 70.9289 246.635 70.4275 246.068 70.4892ZM246.111 70.9693C246.345 70.9397 246.602 71.1516 246.602 71.4987V73.087C246.602 73.3638 246.355 73.6145 246.081 73.6145H235.968C235.76 73.6145 235.636 73.4491 235.691 73.2557C235.692 73.2494 235.694 73.2431 235.695 73.2367C235.791 72.7512 236.033 72.0129 236.519 71.2738C236.522 71.2706 236.524 71.2673 236.525 71.2641C236.625 71.0961 236.841 70.9712 237.131 70.9712H246.081C246.091 70.9712 246.101 70.9706 246.111 70.9693Z" fill="#1F1F1F" stroke="black" stroke-width="0.880952" stroke-miterlimit="10" stroke-linecap="round" stroke-linejoin="round"/>
<path d="M271.265 45.5741H228.382C227.573 45.5741 226.814 45.9327 226.258 46.5475L214.071 60.0221C213.818 60.3295 214.02 60.7906 214.425 60.7906H257.257C258.066 60.7906 258.825 60.432 259.381 59.8171L271.569 46.3938C271.872 46.0864 271.67 45.5741 271.265 45.5741Z" fill="#F4BF31"/>
<path fill-rule="evenodd" clip-rule="evenodd" d="M271.265 45.8152C271.437 45.8152 271.569 46.0528 271.401 46.2236C271.398 46.226 271.396 46.2284 271.394 46.2308L259.206 59.6545C258.692 60.223 257.995 60.5498 257.258 60.5498H214.425C214.23 60.5498 214.128 60.3352 214.251 60.1802L226.434 46.7105C226.434 46.7105 226.434 46.7105 226.434 46.7105C226.948 46.142 227.644 45.8152 228.382 45.8152H271.265ZM271.741 46.5605C272.174 46.1158 271.901 45.3333 271.265 45.3333H228.382C227.502 45.3333 226.681 45.7238 226.083 46.3848L213.896 59.8594C213.893 59.8622 213.891 59.8651 213.888 59.868C213.51 60.3275 213.813 61.0317 214.425 61.0317H257.258C258.138 61.0317 258.958 60.6413 259.557 59.9805M271.741 46.5605L259.557 59.9802L271.741 46.5605Z" fill="#1F1F1F"/>
<path d="M226.434 46.7105L214.251 60.1802C214.128 60.3352 214.23 60.5498 214.425 60.5498H257.258C257.995 60.5498 258.692 60.223 259.206 59.6545L271.394 46.2308C271.396 46.2284 271.398 46.226 271.401 46.2236C271.569 46.0528 271.437 45.8152 271.265 45.8152H228.382C227.644 45.8152 226.948 46.142 226.434 46.7105ZM226.434 46.7105C226.434 46.7105 226.434 46.7105 226.434 46.7105ZM271.741 46.5605C272.174 46.1158 271.901 45.3333 271.265 45.3333H228.382C227.502 45.3333 226.681 45.7238 226.083 46.3848L213.896 59.8594C213.893 59.8622 213.891 59.8651 213.888 59.868C213.51 60.3275 213.813 61.0317 214.425 61.0317H257.258C258.138 61.0317 258.958 60.6413 259.557 59.9805L271.741 46.5605ZM271.741 46.5605L259.557 59.9802" stroke="black" stroke-width="0.880952" stroke-miterlimit="10" stroke-linecap="round" stroke-linejoin="round"/>
<path fill-rule="evenodd" clip-rule="evenodd" d="M287.837 67.2456C287.837 67.1125 287.73 67.0046 287.599 67.0046H284.717C284.585 67.0046 284.479 67.1125 284.479 67.2456C284.479 67.3787 284.585 67.4866 284.717 67.4866H287.599C287.73 67.4866 287.837 67.3787 287.837 67.2456Z" fill="#1F1F1F" stroke="black" stroke-width="0.880952" stroke-miterlimit="10" stroke-linecap="round" stroke-linejoin="round"/>
<path fill-rule="evenodd" clip-rule="evenodd" d="M205.068 75.9197C204.937 75.9197 204.83 76.0276 204.83 76.1607V82.0013C204.83 82.1344 204.937 82.2423 205.068 82.2423C205.2 82.2423 205.306 82.1344 205.306 82.0013V76.1607C205.306 76.0276 205.2 75.9197 205.068 75.9197Z" fill="#1F1F1F" stroke="black" stroke-width="0.880952" stroke-miterlimit="10" stroke-linecap="round" stroke-linejoin="round"/>
<path fill-rule="evenodd" clip-rule="evenodd" d="M202.186 75.9197C202.054 75.9197 201.948 76.0276 201.948 76.1607V82.0013C201.948 82.1344 202.054 82.2423 202.186 82.2423C202.317 82.2423 202.424 82.1344 202.424 82.0013V76.1607C202.424 76.0276 202.317 75.9197 202.186 75.9197Z" fill="#1F1F1F" stroke="black" stroke-width="0.880952" stroke-miterlimit="10" stroke-linecap="round" stroke-linejoin="round"/>
<path fill-rule="evenodd" clip-rule="evenodd" d="M207.9 75.9197C207.768 75.9197 207.662 76.0276 207.662 76.1607V82.0013C207.662 82.1344 207.768 82.2423 207.9 82.2423C208.031 82.2423 208.138 82.1344 208.138 82.0013V76.1607C208.138 76.0276 208.031 75.9197 207.9 75.9197Z" fill="#1F1F1F" stroke="black" stroke-width="0.880952" stroke-miterlimit="10" stroke-linecap="round" stroke-linejoin="round"/>
<path fill-rule="evenodd" clip-rule="evenodd" d="M210.783 75.9197C210.652 75.9197 210.545 76.0276 210.545 76.1607V82.0013C210.545 82.1344 210.652 82.2423 210.783 82.2423C210.915 82.2423 211.021 82.1344 211.021 82.0013V76.1607C211.021 76.0276 210.915 75.9197 210.783 75.9197Z" fill="#1F1F1F" stroke="black" stroke-width="0.880952" stroke-miterlimit="10" stroke-linecap="round" stroke-linejoin="round"/>
<path fill-rule="evenodd" clip-rule="evenodd" d="M213.614 75.9197C213.483 75.9197 213.377 76.0276 213.377 76.1607V82.0013C213.377 82.1344 213.483 82.2423 213.614 82.2423C213.746 82.2423 213.852 82.1344 213.852 82.0013V76.1607C213.852 76.0276 213.746 75.9197 213.614 75.9197Z" fill="#1F1F1F" stroke="black" stroke-width="0.880952" stroke-miterlimit="10" stroke-linecap="round" stroke-linejoin="round"/>
<path fill-rule="evenodd" clip-rule="evenodd" d="M216.497 75.9197C216.365 75.9197 216.259 76.0276 216.259 76.1607V82.0013C216.259 82.1344 216.365 82.2423 216.497 82.2423C216.628 82.2423 216.734 82.1344 216.734 82.0013V76.1607C216.734 76.0276 216.628 75.9197 216.497 75.9197Z" fill="#1F1F1F" stroke="black" stroke-width="0.880952" stroke-miterlimit="10" stroke-linecap="round" stroke-linejoin="round"/>
<path fill-rule="evenodd" clip-rule="evenodd" d="M219.329 75.9197C219.197 75.9197 219.091 76.0276 219.091 76.1607V82.0013C219.091 82.1344 219.197 82.2423 219.329 82.2423C219.46 82.2423 219.567 82.1344 219.567 82.0013V76.1607C219.567 76.0276 219.46 75.9197 219.329 75.9197Z" fill="#1F1F1F" stroke="black" stroke-width="0.880952" stroke-miterlimit="10" stroke-linecap="round" stroke-linejoin="round"/>
<path fill-rule="evenodd" clip-rule="evenodd" d="M222.212 75.9197C222.08 75.9197 221.974 76.0276 221.974 76.1607V82.0013C221.974 82.1344 222.08 82.2423 222.212 82.2423C222.343 82.2423 222.449 82.1344 222.449 82.0013V76.1607C222.449 76.0276 222.343 75.9197 222.212 75.9197Z" fill="#1F1F1F" stroke="black" stroke-width="0.880952" stroke-miterlimit="10" stroke-linecap="round" stroke-linejoin="round"/>
<path fill-rule="evenodd" clip-rule="evenodd" d="M225.043 75.9197C224.912 75.9197 224.805 76.0276 224.805 76.1607V82.0013C224.805 82.1344 224.912 82.2423 225.043 82.2423C225.174 82.2423 225.281 82.1344 225.281 82.0013V76.1607C225.281 76.0276 225.174 75.9197 225.043 75.9197Z" fill="#1F1F1F" stroke="black" stroke-width="0.880952" stroke-miterlimit="10" stroke-linecap="round" stroke-linejoin="round"/>
<path fill-rule="evenodd" clip-rule="evenodd" d="M227.926 75.9195C227.794 75.9195 227.688 76.0274 227.688 76.1604V82.0011C227.688 82.1342 227.794 82.2421 227.926 82.2421C228.057 82.2421 228.164 82.1342 228.164 82.0011V76.1604C228.164 76.0274 228.057 75.9195 227.926 75.9195Z" fill="#1F1F1F" stroke="black" stroke-width="0.880952" stroke-miterlimit="10" stroke-linecap="round" stroke-linejoin="round"/>
<path fill-rule="evenodd" clip-rule="evenodd" d="M199.354 75.9197C199.222 75.9197 199.116 76.0276 199.116 76.1607V82.0013C199.116 82.1344 199.222 82.2423 199.354 82.2423C199.485 82.2423 199.592 82.1344 199.592 82.0013V76.1607C199.592 76.0276 199.485 75.9197 199.354 75.9197Z" fill="#1F1F1F" stroke="black" stroke-width="0.880952" stroke-miterlimit="10" stroke-linecap="round" stroke-linejoin="round"/>
<path fill-rule="evenodd" clip-rule="evenodd" d="M196.471 75.9197C196.34 75.9197 196.234 76.0276 196.234 76.1607V82.0013C196.234 82.1344 196.34 82.2423 196.471 82.2423C196.603 82.2423 196.709 82.1344 196.709 82.0013V76.1607C196.709 76.0276 196.603 75.9197 196.471 75.9197Z" fill="#1F1F1F" stroke="black" stroke-width="0.880952" stroke-miterlimit="10" stroke-linecap="round" stroke-linejoin="round"/>
<path fill-rule="evenodd" clip-rule="evenodd" d="M296.989 67.2456C296.989 67.1125 296.882 67.0046 296.751 67.0046H293.868C293.737 67.0046 293.63 67.1125 293.63 67.2456C293.63 67.3787 293.737 67.4866 293.868 67.4866H296.751C296.882 67.4866 296.989 67.3787 296.989 67.2456Z" fill="#1F1F1F" stroke="black" stroke-width="0.880952" stroke-miterlimit="10" stroke-linecap="round" stroke-linejoin="round"/>
<path fill-rule="evenodd" clip-rule="evenodd" d="M313.929 39.2702C313.929 39.1372 313.823 39.0293 313.692 39.0293H294.323C294.192 39.0293 294.086 39.1372 294.086 39.2702C294.086 39.4033 294.192 39.5112 294.323 39.5112H313.692C313.823 39.5112 313.929 39.4033 313.929 39.2702Z" fill="#1F1F1F" stroke="black" stroke-width="0.880952" stroke-miterlimit="10" stroke-linecap="round" stroke-linejoin="round"/>
<path fill-rule="evenodd" clip-rule="evenodd" d="M313.929 62.7862C313.929 62.6531 313.823 62.5452 313.692 62.5452H294.323C294.192 62.5452 294.086 62.6531 294.086 62.7862C294.086 62.9193 294.192 63.0272 294.323 63.0272H313.692C313.823 63.0272 313.929 62.9193 313.929 62.7862Z" fill="#1F1F1F" stroke="black" stroke-width="0.880952" stroke-miterlimit="10" stroke-linecap="round" stroke-linejoin="round"/>
<path fill-rule="evenodd" clip-rule="evenodd" d="M265.131 81.0788C265.131 80.9457 265.024 80.8378 264.893 80.8378H261.201C261.07 80.8378 260.963 80.9457 260.963 81.0788C260.963 81.2118 261.07 81.3197 261.201 81.3197H264.893C265.024 81.3197 265.131 81.2118 265.131 81.0788Z" fill="#1F1F1F" stroke="black" stroke-width="0.880952" stroke-miterlimit="10" stroke-linecap="round" stroke-linejoin="round"/>
<path d="M162.977 85.1095C162.045 82.4878 163.385 79.5748 166.007 78.6426L174.688 75.4966C177.309 74.5644 180.222 75.9044 181.155 78.5261C182.087 81.1478 180.747 84.0608 178.125 84.993L169.444 88.139C166.823 89.0712 163.91 87.7312 162.977 85.1095Z" fill="#E8E7E5" stroke="#1F1F1F" stroke-width="1.72" stroke-miterlimit="10" stroke-linecap="round" stroke-linejoin="round"/>
<path d="M146.49 109.054C155.462 102.005 148.82 61.747 148.82 61.747L131.925 55.2801L120.564 63.4365L120.797 72.1173L120.564 65.4174C120.448 62.2131 120.681 59.0088 121.321 55.921L124.001 42.7542C124.934 39.3169 123.594 35.6465 120.564 33.6656C118.408 32.2091 115.437 33.2578 114.622 35.763L108.796 53.474C106.29 61.1061 105.009 69.146 105.125 77.1859L105.242 91.1101C105.3 97.5769 99.6261 120.647 97.2957 126.648C107.969 126.649 121.845 126.649 134.488 126.649C136.76 121.289 140.897 113.424 146.49 109.054Z" fill="#E8E7E5" stroke="#1F1F1F" stroke-width="1.72" stroke-miterlimit="10" stroke-linecap="round" stroke-linejoin="round"/>
<path d="M148.529 60.2324L142.178 52.6004L173.231 26.7329C175.328 24.9851 178.474 25.2764 180.222 27.3737C181.97 29.4711 181.679 32.6171 179.581 34.365L148.529 60.2324Z" fill="#E8E7E5" stroke="#1F1F1F" stroke-width="1.72" stroke-miterlimit="10" stroke-linecap="round" stroke-linejoin="round"/>
<path d="M149.17 70.6029L144.334 62.6796C144.218 62.4465 144.276 62.1552 144.509 61.9804L175.212 43.3372C177.659 41.8807 180.805 42.6381 182.261 45.085C183.718 47.5319 182.961 50.678 180.514 52.1345L149.811 70.7777C149.636 70.8942 149.345 70.836 149.17 70.6029Z" fill="#E8E7E5" stroke="#1F1F1F" stroke-width="1.72" stroke-miterlimit="10" stroke-linecap="round" stroke-linejoin="round"/>
<path d="M148.879 77.1861L148.82 77.0695C147.713 74.5643 148.82 71.5931 151.384 70.4861L174.863 60.0576C177.426 58.9506 180.397 60.0576 181.563 62.621C182.669 65.1845 181.563 68.1557 178.999 69.3209L155.52 79.7495C152.957 80.8564 150.044 79.6912 148.879 77.1861Z" fill="#E8E7E5" stroke="#1F1F1F" stroke-width="1.72" stroke-miterlimit="10" stroke-linecap="round" stroke-linejoin="round"/>
<path d="M164.492 109.054H132.449C128.254 109.054 124.817 105.617 124.817 101.422V15.8965C124.817 11.7017 128.254 8.2644 132.449 8.2644H164.492C168.687 8.2644 172.124 11.7017 172.124 15.8965V101.422C172.124 105.617 168.687 109.054 164.492 109.054Z" fill="#696A68" stroke="#1F1F1F" stroke-width="1.72" stroke-miterlimit="10" stroke-linecap="round" stroke-linejoin="round"/>
<path d="M164.376 105.791H132.566C130.177 105.791 128.254 103.869 128.254 101.48V15.8379C128.254 13.4493 130.177 11.5267 132.566 11.5267H164.376C166.764 11.5267 168.687 13.4493 168.687 15.8379V101.48C168.687 103.869 166.764 105.791 164.376 105.791Z" fill="white" stroke="#1F1F1F" stroke-width="1.72" stroke-miterlimit="10" stroke-linecap="round" stroke-linejoin="round"/>
<rect x="133" y="20" width="31" height="6" rx="2" fill="white" stroke="#1F1F1F" stroke-width="1.72" stroke-miterlimit="10" stroke-linecap="round" stroke-linejoin="round"/>
<rect x="133" y="30" width="31" height="33" rx="2" fill="white" stroke="#1F1F1F" stroke-width="1.72" stroke-miterlimit="10" stroke-linecap="round" stroke-linejoin="round"/>
<rect x="137" y="53" width="23" height="6" rx="1" fill="#F47121" stroke="#1F1F1F" stroke-width="1.72" stroke-miterlimit="10" stroke-linecap="round" stroke-linejoin="round"/>
<rect x="133" y="67" width="31" height="33" rx="2" fill="white" stroke="#1F1F1F" stroke-width="1.72" stroke-miterlimit="10" stroke-linecap="round" stroke-linejoin="round"/>
<rect x="137" y="90" width="23" height="6" rx="1" fill="#F47121" stroke="#1F1F1F" stroke-width="1.72" stroke-miterlimit="10" stroke-linecap="round" stroke-linejoin="round"/>
<path d="M133.323 15.43H138.916" stroke="#1F1F1F" stroke-width="1.72" stroke-miterlimit="10" stroke-linecap="round" stroke-linejoin="round"/>
<path d="M158.025 15.43H163.677" stroke="#1F1F1F" stroke-width="1.72" stroke-miterlimit="10" stroke-linecap="round" stroke-linejoin="round"/>
<path d="M170.784 82.2548C169.852 79.6331 171.192 76.7201 173.814 75.7879L174.629 75.4966C177.251 74.5644 180.164 75.9044 181.096 78.5261C182.028 81.1478 180.688 84.0608 178.067 84.993L177.251 85.2843C174.629 86.2747 171.716 84.9347 170.784 82.2548Z" fill="#E8E7E5" stroke="#1F1F1F" stroke-width="1.72" stroke-miterlimit="10" stroke-linecap="round" stroke-linejoin="round"/>
<path d="M171.891 66.9907L171.833 66.8741C170.726 64.369 171.833 61.3977 174.396 60.2325L174.921 59.9995C177.484 58.8925 180.456 59.9995 181.621 62.5629C182.728 65.1263 181.621 68.0976 179.057 69.2628L178.533 69.4958C175.97 70.661 172.998 69.4958 171.891 66.9907Z" fill="#E8E7E5" stroke="#1F1F1F" stroke-width="1.72" stroke-miterlimit="10" stroke-linecap="round" stroke-linejoin="round"/>
</g>
<rect x="0.86" y="0.86" width="294.28" height="115.28" rx="25.14" stroke="#1F1F1F" stroke-width="1.72"/>
<defs>
<clipPath id="clip0_271_5255">
<rect width="296" height="117" rx="26" fill="white"/>
</clipPath>
</defs>
</svg>
