<svg width="298" height="118" viewBox="0 0 298 118" fill="none" xmlns="http://www.w3.org/2000/svg">
<path d="M34.4994 86.6379H40.7806V90.2317C42.8743 92.949 44.1829 96.981 44.1829 101.451C44.1829 105.922 42.8743 109.954 40.7806 112.671V116.265H34.4994C29.1778 116.265 24.8159 109.603 24.8159 101.364C24.8159 93.1243 29.0906 86.6379 34.4994 86.6379Z" fill="#F4BF31" stroke="#1F1F1F" stroke-width="1.71794" stroke-miterlimit="10" stroke-linecap="round" stroke-linejoin="round"/>
<path d="M40.7809 116.44C46.1289 116.44 50.4643 109.769 50.4643 101.539C50.4643 93.3094 46.1289 86.6379 40.7809 86.6379C35.4328 86.6379 31.0974 93.3094 31.0974 101.539C31.0974 109.769 35.4328 116.44 40.7809 116.44Z" fill="#F4BF31" stroke="#1F1F1F" stroke-width="1.71794" stroke-miterlimit="10" stroke-linecap="round" stroke-linejoin="round"/>
<path d="M149.306 86.6379H155.587V90.2317C157.68 92.949 158.989 96.981 158.989 101.451C158.989 105.922 157.68 109.954 155.587 112.671V116.265H149.306C143.984 116.265 139.622 109.603 139.622 101.364C139.622 93.1243 143.897 86.6379 149.306 86.6379Z" fill="#F4BF31" stroke="#1F1F1F" stroke-width="1.71794" stroke-miterlimit="10" stroke-linecap="round" stroke-linejoin="round"/>
<path d="M155.587 116.44C160.935 116.44 165.27 109.769 165.27 101.539C165.27 93.3094 160.935 86.6379 155.587 86.6379C150.239 86.6379 145.903 93.3094 145.903 101.539C145.903 109.769 150.239 116.44 155.587 116.44Z" fill="#F4BF31" stroke="#1F1F1F" stroke-width="1.71794" stroke-miterlimit="10" stroke-linecap="round" stroke-linejoin="round"/>
<path d="M175.738 51.9268L140.494 13.2717C133.341 5.47051 123.221 1.00018 112.665 1.00018H111.007H25.2521H13.8239C10.0726 1.00018 7.01929 4.06805 7.01929 7.83715V101.539H29.2651H47.4979H208.191V75.5933C208.191 71.4736 205.923 67.7045 202.259 65.8637L175.738 51.9268Z" fill="#F4BF31" stroke="#1F1F1F" stroke-width="1.71794" stroke-miterlimit="10" stroke-linecap="round" stroke-linejoin="round"/>
<path d="M122.261 86.6379H128.543V90.2317C130.636 92.949 131.945 96.981 131.945 101.451C131.945 105.922 130.636 109.954 128.543 112.671V116.265H122.261C116.94 116.265 112.578 109.603 112.578 101.364C112.578 93.1243 116.94 86.6379 122.261 86.6379Z" fill="#F4BF31" stroke="#1F1F1F" stroke-width="1.71794" stroke-miterlimit="10" stroke-linecap="round" stroke-linejoin="round"/>
<path d="M237.067 86.6379H243.348V90.2317C245.442 92.949 246.751 96.981 246.751 101.451C246.751 105.922 245.442 109.954 243.348 112.671V116.265H237.067C231.746 116.265 227.384 109.603 227.384 101.364C227.384 93.1243 231.746 86.6379 237.067 86.6379Z" fill="#F4BF31" stroke="#1F1F1F" stroke-width="1.71794" stroke-miterlimit="10" stroke-linecap="round" stroke-linejoin="round"/>
<path d="M237.94 51.9268L202.695 13.2717C195.542 5.47051 185.509 1.00018 174.954 1.00018H173.296H113.014H101.586C97.8348 1.00018 94.7815 4.06805 94.7815 7.83715V101.539H117.027H135.347H270.48V75.5933C270.48 71.4736 268.212 67.7045 264.547 65.8637L237.94 51.9268Z" fill="#F4BF31" stroke="#1F1F1F" stroke-width="1.71794" stroke-miterlimit="10" stroke-linecap="round" stroke-linejoin="round"/>
<path d="M270.392 92.864H94.7815V101.542H270.392V92.864Z" fill="#F4BF31" stroke="#1F1F1F" stroke-width="1.71794" stroke-miterlimit="10" stroke-linecap="round" stroke-linejoin="round"/>
<path d="M138.313 62.9705H112.578" stroke="#1F1F1F" stroke-width="1.71794" stroke-miterlimit="10" stroke-linecap="round" stroke-linejoin="round"/>
<path d="M255.387 101.541C255.387 91.3733 249.979 83.0462 243.348 83.0462C236.718 83.0462 231.31 91.2856 231.31 101.541H255.387Z" fill="#F4BF31" stroke="#1F1F1F" stroke-width="1.71794" stroke-miterlimit="10" stroke-linecap="round" stroke-linejoin="round"/>
<path d="M1 116.354H297" stroke="#1F1F1F" stroke-width="1.71794" stroke-miterlimit="10" stroke-linecap="round" stroke-linejoin="round"/>
<path d="M243.436 116.44C248.784 116.44 253.119 109.769 253.119 101.539C253.119 93.3094 248.784 86.6379 243.436 86.6379C238.088 86.6379 233.752 93.3094 233.752 101.539C233.752 109.769 238.088 116.44 243.436 116.44Z" fill="#F4BF31" stroke="#1F1F1F" stroke-width="1.71794" stroke-miterlimit="10" stroke-linecap="round" stroke-linejoin="round"/>
<path d="M243.436 106.71C245.315 106.71 246.838 104.394 246.838 101.538C246.838 98.6821 245.315 96.3667 243.436 96.3667C241.557 96.3667 240.033 98.6821 240.033 101.538C240.033 104.394 241.557 106.71 243.436 106.71Z" fill="#F4BF31" stroke="#1F1F1F" stroke-width="1.71794" stroke-miterlimit="10" stroke-linecap="round" stroke-linejoin="round"/>
<path d="M194.844 25.891H200.427C202.521 25.891 204.615 26.7675 206.011 28.4329L223.458 48.2426C224.941 49.908 223.72 52.45 221.539 52.45H194.844C193.448 52.45 192.314 51.3105 192.314 49.908V28.5206C192.314 27.0305 193.448 25.891 194.844 25.891Z" fill="#F4BF31" stroke="#1F1F1F" stroke-width="1.71794" stroke-miterlimit="10" stroke-linecap="round" stroke-linejoin="round"/>
<path d="M195.018 25.891H196.501C198.595 25.891 200.689 26.7675 202.085 28.4329L219.532 48.2426C221.015 49.908 219.794 52.45 217.613 52.45H195.018C193.623 52.45 192.489 51.3105 192.489 49.908V28.5206C192.489 27.0305 193.623 25.891 195.018 25.891Z" fill="#F4BF31" stroke="#1F1F1F" stroke-width="1.71794" stroke-miterlimit="10" stroke-linecap="round" stroke-linejoin="round"/>
<path d="M270.392 101.542H268.124C266.38 101.542 264.896 100.139 264.896 98.2985V96.1072C264.896 94.3541 266.292 92.864 268.124 92.864H270.392C271.876 92.864 273.184 94.0912 273.184 95.6689V98.7368C273.184 100.227 271.963 101.542 270.392 101.542Z" fill="#F4BF31" stroke="#1F1F1F" stroke-width="1.71794" stroke-miterlimit="10" stroke-linecap="round" stroke-linejoin="round"/>
<path d="M102.022 101.539H2.57029C1.69791 101.539 1 100.838 1 99.9609V94.5261C1 93.6496 1.69791 92.9483 2.57029 92.9483H101.935C102.807 92.9483 103.505 93.6496 103.505 94.5261V99.9609C103.592 100.838 102.895 101.539 102.022 101.539Z" fill="#F4BF31" stroke="#1F1F1F" stroke-width="1.71794" stroke-miterlimit="10" stroke-linecap="round" stroke-linejoin="round"/>
<path d="M219.096 51.2256H220.318C221.19 51.2256 221.888 50.5243 221.888 49.6477V47.8946C221.888 47.018 221.19 46.3167 220.318 46.3167H219.096C218.224 46.3167 217.526 47.018 217.526 47.8946V49.6477C217.526 50.5243 218.224 51.2256 219.096 51.2256Z" fill="#F4BF31" stroke="#1F1F1F" stroke-width="1.71794" stroke-miterlimit="10" stroke-linecap="round" stroke-linejoin="round"/>
<path d="M214.56 39.8296H220.318V49.6468H214.56C213.949 49.6468 213.426 49.1209 213.426 48.5073V40.9691C213.426 40.3555 213.949 39.8296 214.56 39.8296Z" fill="#F4BF31" stroke="#1F1F1F" stroke-width="1.71794" stroke-miterlimit="10" stroke-linecap="round" stroke-linejoin="round"/>
<path d="M221.975 49.6468H220.841C220.23 49.6468 219.707 49.1209 219.707 48.5073V40.9691C219.707 40.3555 220.23 39.8296 220.841 39.8296H221.975C222.673 39.8296 223.197 40.3555 223.197 41.0568V48.4197C223.197 49.1209 222.673 49.6468 221.975 49.6468Z" fill="#F4BF31" stroke="#1F1F1F" stroke-width="1.71794" stroke-miterlimit="10" stroke-linecap="round" stroke-linejoin="round"/>
<path d="M262.803 70.247V72.9644C262.803 73.6657 263.413 74.2793 264.111 74.2793H268.909C269.52 74.2793 269.956 73.7534 269.782 73.1398C269.607 72.2632 269.171 70.9483 268.299 69.6334C268.037 69.1952 267.514 68.9322 266.903 68.9322H264.111C263.413 68.8445 262.803 69.4581 262.803 70.247Z" fill="#F4BF31" stroke="#1F1F1F" stroke-width="1.71794" stroke-miterlimit="10" stroke-linecap="round" stroke-linejoin="round"/>
<path d="M192.489 62.9705H197.461" stroke="#1F1F1F" stroke-width="1.71794" stroke-miterlimit="10" stroke-linecap="round" stroke-linejoin="round"/>
<path d="M176.698 62.9705H181.671" stroke="#1F1F1F" stroke-width="1.71794" stroke-miterlimit="10" stroke-linecap="round" stroke-linejoin="round"/>
<path d="M55.6116 62.9705H60.5842" stroke="#1F1F1F" stroke-width="1.71794" stroke-miterlimit="10" stroke-linecap="round" stroke-linejoin="round"/>
<path d="M37.6401 62.9705H42.6127" stroke="#1F1F1F" stroke-width="1.71794" stroke-miterlimit="10" stroke-linecap="round" stroke-linejoin="round"/>
<path d="M147.561 15.1122H180.886" stroke="#1F1F1F" stroke-width="1.71794" stroke-miterlimit="10" stroke-linecap="round" stroke-linejoin="round"/>
<path d="M147.561 55.3448H180.886" stroke="#1F1F1F" stroke-width="1.71794" stroke-miterlimit="10" stroke-linecap="round" stroke-linejoin="round"/>
<path d="M106.21 15.1122H138.313" stroke="#1F1F1F" stroke-width="1.71794" stroke-miterlimit="10" stroke-linecap="round" stroke-linejoin="round"/>
<path d="M106.21 55.3448H138.313" stroke="#1F1F1F" stroke-width="1.71794" stroke-miterlimit="10" stroke-linecap="round" stroke-linejoin="round"/>
<path d="M16.354 15.1122H42.6128" stroke="#1F1F1F" stroke-width="1.71794" stroke-miterlimit="10" stroke-linecap="round" stroke-linejoin="round"/>
<path d="M16.354 55.3448H42.6128" stroke="#1F1F1F" stroke-width="1.71794" stroke-miterlimit="10" stroke-linecap="round" stroke-linejoin="round"/>
<path d="M55.6113 15.1122H81.8701" stroke="#1F1F1F" stroke-width="1.71794" stroke-miterlimit="10" stroke-linecap="round" stroke-linejoin="round"/>
<path d="M55.6113 55.3448H81.8701" stroke="#1F1F1F" stroke-width="1.71794" stroke-miterlimit="10" stroke-linecap="round" stroke-linejoin="round"/>
<path d="M243.436 86.6379H237.067" stroke="#1F1F1F" stroke-width="1.71794" stroke-miterlimit="10" stroke-linecap="round" stroke-linejoin="round"/>
<path d="M140.669 101.541C140.669 91.3733 135.26 83.0462 128.63 83.0462C122 83.0462 116.591 91.2856 116.591 101.541H140.669Z" fill="#F4BF31" stroke="#1F1F1F" stroke-width="1.71794" stroke-miterlimit="10" stroke-linecap="round" stroke-linejoin="round"/>
<path d="M128.63 116.44C133.978 116.44 138.313 109.769 138.313 101.539C138.313 93.3094 133.978 86.6379 128.63 86.6379C123.282 86.6379 118.947 93.3094 118.947 101.539C118.947 109.769 123.282 116.44 128.63 116.44Z" fill="#F4BF31" stroke="#1F1F1F" stroke-width="1.71794" stroke-miterlimit="10" stroke-linecap="round" stroke-linejoin="round"/>
<path d="M128.63 106.71C130.509 106.71 132.032 104.394 132.032 101.538C132.032 98.6821 130.509 96.3667 128.63 96.3667C126.751 96.3667 125.227 98.6821 125.227 101.538C125.227 104.394 126.751 106.71 128.63 106.71Z" fill="#F4BF31" stroke="#1F1F1F" stroke-width="1.71794" stroke-miterlimit="10" stroke-linecap="round" stroke-linejoin="round"/>
<path d="M128.63 86.6379H122.261" stroke="#1F1F1F" stroke-width="1.71794" stroke-miterlimit="10" stroke-linecap="round" stroke-linejoin="round"/>
<path d="M49.0684 1.00018V92.2474" stroke="#1F1F1F" stroke-width="1.71794" stroke-miterlimit="10" stroke-linecap="round" stroke-linejoin="round"/>
<path d="M264.944 107.237C264.944 107.237 264.24 108.99 264.24 109.603C264.24 110.217 263.448 112.759 263.448 112.759L260.898 112.408L261.689 106.448L264.944 107.237Z" fill="#F4BF31" stroke="#1F1F1F" stroke-width="1.71794" stroke-miterlimit="10" stroke-linecap="round" stroke-linejoin="round"/>
<path d="M251.398 114.865C254.389 117.232 264.064 115.479 266.615 115.041C266.263 114.69 265.207 109.781 264.68 109.869C264.152 109.957 263.888 111.009 262.92 110.921C261.953 110.833 260.634 109.343 260.634 109.343C256.148 113.463 251.31 113.463 251.31 113.463V114.865H251.398Z" fill="#F4BF31" stroke="#1F1F1F" stroke-width="1.71794" stroke-miterlimit="10" stroke-linecap="round" stroke-linejoin="round"/>
<path d="M265.823 112.758C265.823 112.758 258.962 115.037 251.398 114.248L265.823 112.758Z" fill="#F4BF31"/>
<path d="M265.823 112.758C265.823 112.758 258.962 115.037 251.398 114.248" stroke="#1F1F1F" stroke-width="1.71794" stroke-miterlimit="10" stroke-linecap="round" stroke-linejoin="round"/>
<path d="M264.591 68.9329C262.304 86.7265 259.05 106.887 262.656 107.413C266.263 107.939 266.351 105.397 267.318 101.803C268.286 98.2968 270.748 91.7228 270.748 91.7228L272.42 81.3797L264.591 68.9329Z" fill="#1F1F1F" stroke="#1F1F1F" stroke-width="1.71794" stroke-miterlimit="10" stroke-linecap="round" stroke-linejoin="round"/>
<path d="M262.393 50.5237C262.393 50.5237 258.171 48.8582 257.203 48.5953C256.323 48.2446 255.532 49.7348 255.356 50.5237C255.18 51.3127 254.828 53.5041 257.467 54.3807C260.106 55.2573 263.36 56.6598 263.36 56.6598" fill="#F4BF31"/>
<path d="M262.393 50.5237C262.393 50.5237 258.171 48.8582 257.203 48.5953C256.323 48.2446 255.532 49.7348 255.356 50.5237C255.18 51.3127 254.828 53.5041 257.467 54.3807C260.106 55.2573 263.36 56.6598 263.36 56.6598" stroke="#1F1F1F" stroke-width="1.71794" stroke-miterlimit="10" stroke-linecap="round" stroke-linejoin="round"/>
<path d="M249.023 46.5808C248.935 46.6685 248.847 46.6685 248.847 46.7561C248.583 47.0191 248.583 47.7204 249.726 47.6327H249.814" fill="#F4BF31"/>
<path d="M249.023 46.5808C248.935 46.6685 248.847 46.6685 248.847 46.7561C248.583 47.0191 248.583 47.7204 249.726 47.6327H249.814" stroke="#1F1F1F" stroke-width="1.71794" stroke-miterlimit="10" stroke-linecap="round" stroke-linejoin="round"/>
<path d="M250.254 49.0363C250.254 49.0363 251.046 48.5104 250.518 48.1598C249.991 47.8091 249.287 48.3351 249.463 48.7734C249.639 49.2116 250.254 49.7376 251.046 49.7376C251.134 50.1759 251.31 50.4389 251.574 50.5265C251.838 50.6142 255.18 51.4907 255.18 51.4907L256.5 48.7734C256.5 48.7734 255.796 47.5462 255.092 46.9325C254.476 46.3189 253.421 45.7053 252.981 45.6177C252.541 45.53 252.805 46.4943 253.069 46.6696C253.333 46.8449 254.037 47.1955 254.037 47.1955C254.037 47.1955 252.893 46.9325 252.102 46.3189" fill="#F4BF31"/>
<path d="M250.254 49.0363C250.254 49.0363 251.046 48.5104 250.518 48.1598C249.991 47.8091 249.287 48.3351 249.463 48.7734C249.639 49.2116 250.254 49.7376 251.046 49.7376C251.134 50.1759 251.31 50.4389 251.574 50.5265C251.838 50.6142 255.18 51.4907 255.18 51.4907L256.5 48.7734C256.5 48.7734 255.796 47.5462 255.092 46.9325C254.476 46.3189 253.421 45.7053 252.981 45.6177C252.541 45.53 252.805 46.4943 253.069 46.6696C253.333 46.8449 254.037 47.1955 254.037 47.1955C254.037 47.1955 252.893 46.9325 252.102 46.3189" stroke="#1F1F1F" stroke-width="1.71794" stroke-miterlimit="10" stroke-linecap="round" stroke-linejoin="round"/>
<path d="M252.101 49.7356C252.101 49.7356 253.509 49.648 253.509 49.2097C253.509 48.8591 252.805 48.5961 252.277 48.6837C251.838 48.7714 250.958 49.0344 250.958 49.648" fill="#F4BF31"/>
<path d="M252.101 49.7356C252.101 49.7356 253.509 49.648 253.509 49.2097C253.509 48.8591 252.805 48.5961 252.277 48.6837C251.838 48.7714 250.958 49.0344 250.958 49.648" stroke="#1F1F1F" stroke-width="1.71794" stroke-miterlimit="10" stroke-linecap="round" stroke-linejoin="round"/>
<path d="M253.773 48.5085C253.773 48.4209 249.99 42.9861 249.99 42.9861L247 43.4244L250.694 49.0345L253.773 48.5085Z" fill="#F4BF31" stroke="#1F1F1F" stroke-width="1.71794" stroke-miterlimit="10" stroke-linecap="round" stroke-linejoin="round"/>
<path d="M285.614 101.626L288.604 104.168L286.229 107.499L282.271 103.993L285.614 101.626Z" fill="#F4BF31" stroke="#1F1F1F" stroke-width="1.71794" stroke-miterlimit="10" stroke-linecap="round" stroke-linejoin="round"/>
<path d="M265.999 34.6596C262.987 34.6596 260.546 32.2264 260.546 29.225C260.546 26.2236 262.987 23.7905 265.999 23.7905C269.011 23.7905 271.453 26.2236 271.453 29.225C271.453 32.2264 269.011 34.6596 265.999 34.6596Z" fill="#1F1F1F" stroke="#1F1F1F" stroke-width="1.71794" stroke-miterlimit="10" stroke-linecap="round" stroke-linejoin="round"/>
<path d="M270.748 31.9424C270.748 31.9424 270.661 36.9386 272.244 38.5164C273.827 40.0942 266.263 40.9707 266.263 40.9707C266.263 40.9707 267.054 38.9547 266.263 37.6399C267.846 36.3251 270.133 33.6955 270.748 31.9424Z" fill="#F4BF31" stroke="#1F1F1F" stroke-width="1.71794" stroke-miterlimit="10" stroke-linecap="round" stroke-linejoin="round"/>
<path d="M270.749 31.9404C270.749 31.9404 268.462 36.2354 266.263 37.5502C264.064 38.865 263.184 36.4107 263.184 36.4107L262.305 35.3589L261.161 35.2712C261.161 35.2712 261.777 32.7293 260.897 30.9762C260.633 30.3626 260.282 29.2231 260.633 28.6096C262.217 27.6454 263.536 29.8367 266.087 31.1515C268.55 32.4663 270.749 31.9404 270.749 31.9404Z" fill="#F4BF31" stroke="#1F1F1F" stroke-width="1.71794" stroke-miterlimit="10" stroke-linecap="round" stroke-linejoin="round"/>
<path d="M273.299 34.3966C272.182 34.3966 271.276 33.2585 271.276 31.8546C271.276 30.4506 272.182 29.3125 273.299 29.3125C274.417 29.3125 275.323 30.4506 275.323 31.8546C275.323 33.2585 274.417 34.3966 273.299 34.3966Z" fill="#1F1F1F" stroke="#1F1F1F" stroke-width="1.71794" stroke-miterlimit="10" stroke-linecap="round" stroke-linejoin="round"/>
<path d="M272.244 38.5173C272.244 38.5173 275.411 41.0593 276.466 43.6889C277.522 46.4061 276.466 51.0518 275.411 54.9085C274.355 58.7653 276.466 61.6578 276.466 61.6578C276.466 61.6578 272.596 60.5184 269.429 61.2196C266.263 61.9208 264.504 62.5344 263.184 63.8492C263.184 60.9566 263.976 57.4505 263.184 54.032C262.393 50.6135 261.777 48.0716 263.184 45.7049C264.592 43.3383 266.351 40.9716 266.351 40.9716C266.351 40.9716 269.605 41.4976 272.244 38.5173Z" fill="#C1C1BF" stroke="#1F1F1F" stroke-width="1.71852" stroke-miterlimit="10" stroke-linecap="round" stroke-linejoin="round"/>
<path d="M276.466 61.6561C276.466 61.6561 278.401 63.7598 276.466 74.4535C274.531 85.1472 281.392 92.6854 284.118 96.6298C286.933 100.574 285.526 103.291 284.03 104.08C282.535 104.869 272.068 101.363 267.846 83.2189C263.536 65.0746 264.328 66.74 264.24 62.9709C270.221 59.3771 276.466 61.6561 276.466 61.6561Z" fill="#1F1F1F" stroke="#1F1F1F" stroke-width="1.71794" stroke-miterlimit="10" stroke-linecap="round" stroke-linejoin="round"/>
<path d="M281.655 115.124C283.239 115.124 285.877 114.949 287.549 114.949C289.132 114.949 292.21 107.147 292.65 105.657C292.122 105.833 287.724 102.589 287.373 103.115C287.021 103.554 287.9 104.518 287.373 105.307C286.845 106.096 284.382 106.709 284.382 106.709C284.91 108.813 284.998 110.215 284.294 111.179C283.239 111.705 282.271 111.968 281.567 112.056C280.952 112.144 280.688 112.757 280.864 113.283L281.655 115.124Z" fill="#F4BF31" stroke="#1F1F1F" stroke-width="1.71794" stroke-miterlimit="10" stroke-linecap="round" stroke-linejoin="round"/>
<path d="M290.539 104.606C290.539 104.606 288.076 111.794 286.845 112.495C285.614 113.196 281.04 113.722 281.04 113.722" stroke="#1F1F1F" stroke-width="1.71794" stroke-miterlimit="10" stroke-linecap="round" stroke-linejoin="round"/>
<path d="M274.195 74.257L274.195 75.9686C274.195 75.9686 274.047 77.1988 274.195 78.1874C274.5 80.2186 275.724 82.3364 274.5 82.5C273.276 82.6636 272 82 271.114 81.0706C270.045 81.1127 270.374 72.7202 270.374 72.7202" fill="#F4BF31"/>
<path d="M274.195 74.257L274.195 75.9686C274.195 75.9686 274.047 77.1988 274.195 78.1874C274.5 80.2186 275.724 82.3364 274.5 82.5C273.276 82.6636 272 82 271.114 81.0706C270.045 81.1127 270.374 72.7202 270.374 72.7202" stroke="#1F1F1F" stroke-width="1.71794" stroke-miterlimit="10" stroke-linecap="round" stroke-linejoin="round"/>
<path d="M273.922 45.5797C273.922 45.5797 277.875 57.5464 277.749 62.5848C277.52 67.5553 276.265 74.275 272.716 74.9197C268.003 74.5536 271.281 65.782 270.255 58.6543C269.23 51.5266 266.857 46.5938 266.857 46.5938" fill="#C1C1BF"/>
<path d="M273.922 45.5797C273.922 45.5797 277.875 57.5464 277.749 62.5848C277.52 67.5553 276.265 74.275 272.716 74.9197C268.003 74.5536 271.281 65.782 270.255 58.6543C269.23 51.5266 266.857 46.5938 266.857 46.5938" stroke="#1F1F1F" stroke-width="1.71852" stroke-miterlimit="10" stroke-linecap="round" stroke-linejoin="round"/>
</svg>
