<svg width="24" height="25" viewBox="0 0 24 25" fill="none" xmlns="http://www.w3.org/2000/svg">
<mask id="mask0_255_1259" style="mask-type:alpha" maskUnits="userSpaceOnUse" x="0" y="0" width="24" height="25">
<rect y="0.5" width="24" height="24" fill="#D9D9D9"/>
</mask>
<g mask="url(#mask0_255_1259)">
<path d="M12.05 23.5L7.35 14.5C6.16667 14.55 5.14567 14.2083 4.287 13.475C3.429 12.7417 3 11.75 3 10.5C3 9.65 3.246 8.88333 3.738 8.2C4.22933 7.51667 4.85 7.03333 5.6 6.75C5.9 5.23333 6.646 3.979 7.838 2.987C9.02933 1.99567 10.4167 1.5 12 1.5C13.5833 1.5 14.971 1.99567 16.163 2.987C17.3543 3.979 18.1 5.23333 18.4 6.75C19.15 7.03333 19.771 7.51667 20.263 8.2C20.7543 8.88333 21 9.65 21 10.5C21 11.75 20.5583 12.7417 19.675 13.475C18.7917 14.2083 17.8 14.55 16.7 14.5L12.05 23.5ZM7 12.5C7.25 12.5 7.49567 12.4583 7.737 12.375C7.979 12.2917 8.2 12.15 8.4 11.95L8.95 11.4L9.6 11.8C9.95 12.0333 10.3293 12.2083 10.738 12.325C11.146 12.4417 11.5667 12.5 12 12.5C12.4333 12.5 12.854 12.4417 13.262 12.325C13.6707 12.2083 14.05 12.0333 14.4 11.8L15.05 11.4L15.6 11.95C15.8 12.15 16.0207 12.2917 16.262 12.375C16.504 12.4583 16.75 12.5 17 12.5C17.55 12.5 18.021 12.304 18.413 11.912C18.8043 11.5207 19 11.05 19 10.5C19 10 18.8417 9.56267 18.525 9.188C18.2083 8.81267 17.8 8.58333 17.3 8.5L16.55 8.4L16.5 7.6C16.4167 6.45 15.9417 5.47933 15.075 4.688C14.2083 3.896 13.1833 3.5 12 3.5C10.8167 3.5 9.79167 3.896 8.925 4.688C8.05833 5.47933 7.58333 6.45 7.5 7.6L7.45 8.4L6.7 8.55C6.2 8.65 5.79167 8.875 5.475 9.225C5.15833 9.575 5 10 5 10.5C5 11.05 5.196 11.5207 5.588 11.912C5.97933 12.304 6.45 12.5 7 12.5ZM12.05 19.15L14.75 13.9C14.35 14.1 13.9167 14.25 13.45 14.35C12.9833 14.45 12.5 14.5 12 14.5C11.55 14.5 11.096 14.45 10.638 14.35C10.1793 14.25 9.73333 14.1 9.3 13.9L12.05 19.15Z" fill="white"/>
</g>
</svg>
