<svg width="439" height="887" viewBox="0 0 439 887" fill="none" xmlns="http://www.w3.org/2000/svg">
<g filter="url(#filter0_ii_347_1856)">
<rect x="8.18018" y="5.65686" width="421.581" height="875.686" rx="60.5929" stroke="#7091BA" stroke-width="10"/>
</g>
<path d="M9.57829 68.6112C9.57829 34.8932 36.9122 7.55937 70.6302 7.55937H367.312C401.03 7.55937 428.364 34.8932 428.364 68.6113V818.389C428.364 852.107 401.03 879.441 367.312 879.441H70.6302C36.9121 879.441 9.57829 852.107 9.57829 818.389V68.6112ZM67.9707 21.4954C43.3915 21.4954 23.4661 41.4208 23.4661 66V821C23.4661 845.579 43.3915 865.505 67.9707 865.505H369.971C394.55 865.505 414.475 845.579 414.475 821V66C414.475 41.4208 394.55 21.4954 369.971 21.4954H67.9707Z" fill="black" stroke="#454545" stroke-width="1.00912"/>
<g filter="url(#filter1_d_347_1856)">
<rect x="47.9707" y="79" width="342" height="48" rx="8" fill="white"/>
<path d="M66.9707 109H84.9707V107H66.9707V109ZM66.9707 104H84.9707V102H66.9707V104ZM66.9707 97V99H84.9707V97H66.9707Z" fill="#1F1F1F" fill-opacity="0.7"/>
<path d="M161.155 97.48V95.986H164.539V109H162.883V97.48H161.155Z" fill="#1F1F1F"/>
<path d="M167.154 107.686C168.678 106.462 169.872 105.46 170.736 104.68C171.6 103.888 172.326 103.066 172.914 102.214C173.514 101.35 173.814 100.504 173.814 99.676C173.814 98.896 173.622 98.284 173.238 97.84C172.866 97.384 172.26 97.156 171.42 97.156C170.604 97.156 169.968 97.414 169.512 97.93C169.068 98.434 168.828 99.112 168.792 99.964H167.208C167.256 98.62 167.664 97.582 168.432 96.85C169.2 96.118 170.19 95.752 171.402 95.752C172.638 95.752 173.616 96.094 174.336 96.778C175.068 97.462 175.434 98.404 175.434 99.604C175.434 100.6 175.134 101.572 174.534 102.52C173.946 103.456 173.274 104.284 172.518 105.004C171.762 105.712 170.796 106.54 169.62 107.488H175.812V108.856H167.154V107.686Z" fill="#1F1F1F"/>
<path d="M177.67 99.262C177.754 98.158 178.18 97.294 178.948 96.67C179.716 96.046 180.712 95.734 181.936 95.734C182.752 95.734 183.454 95.884 184.042 96.184C184.642 96.472 185.092 96.868 185.392 97.372C185.704 97.876 185.86 98.446 185.86 99.082C185.86 99.826 185.644 100.468 185.212 101.008C184.792 101.548 184.24 101.896 183.556 102.052V102.142C184.336 102.334 184.954 102.712 185.41 103.276C185.866 103.84 186.094 104.578 186.094 105.49C186.094 106.174 185.938 106.792 185.626 107.344C185.314 107.884 184.846 108.31 184.222 108.622C183.598 108.934 182.848 109.09 181.972 109.09C180.7 109.09 179.656 108.76 178.84 108.1C178.024 107.428 177.568 106.48 177.472 105.256H179.056C179.14 105.976 179.434 106.564 179.938 107.02C180.442 107.476 181.114 107.704 181.954 107.704C182.794 107.704 183.43 107.488 183.862 107.056C184.306 106.612 184.528 106.042 184.528 105.346C184.528 104.446 184.228 103.798 183.628 103.402C183.028 103.006 182.122 102.808 180.91 102.808H180.496V101.44H180.928C182.032 101.428 182.866 101.248 183.43 100.9C183.994 100.54 184.276 99.988 184.276 99.244C184.276 98.608 184.066 98.098 183.646 97.714C183.238 97.33 182.65 97.138 181.882 97.138C181.138 97.138 180.538 97.33 180.082 97.714C179.626 98.098 179.356 98.614 179.272 99.262H177.67Z" fill="#1F1F1F"/>
<path d="M200.466 96.454V97.786H195.012V102.016H199.44V103.348H195.012V109H193.374V96.454H200.466Z" fill="#1F1F1F"/>
<path d="M203.291 97.534C202.979 97.534 202.715 97.426 202.499 97.21C202.283 96.994 202.175 96.73 202.175 96.418C202.175 96.106 202.283 95.842 202.499 95.626C202.715 95.41 202.979 95.302 203.291 95.302C203.591 95.302 203.843 95.41 204.047 95.626C204.263 95.842 204.371 96.106 204.371 96.418C204.371 96.73 204.263 96.994 204.047 97.21C203.843 97.426 203.591 97.534 203.291 97.534ZM204.083 99.136V109H202.445V99.136H204.083Z" fill="#1F1F1F"/>
<path d="M206.262 104.032C206.262 103.024 206.466 102.142 206.874 101.386C207.282 100.618 207.84 100.024 208.548 99.604C209.268 99.184 210.072 98.974 210.96 98.974C211.728 98.974 212.442 99.154 213.102 99.514C213.762 99.862 214.266 100.324 214.614 100.9V95.68H216.27V109H214.614V107.146C214.29 107.734 213.81 108.22 213.174 108.604C212.538 108.976 211.794 109.162 210.942 109.162C210.066 109.162 209.268 108.946 208.548 108.514C207.84 108.082 207.282 107.476 206.874 106.696C206.466 105.916 206.262 105.028 206.262 104.032ZM214.614 104.05C214.614 103.306 214.464 102.658 214.164 102.106C213.864 101.554 213.456 101.134 212.94 100.846C212.436 100.546 211.878 100.396 211.266 100.396C210.654 100.396 210.096 100.54 209.592 100.828C209.088 101.116 208.686 101.536 208.386 102.088C208.086 102.64 207.936 103.288 207.936 104.032C207.936 104.788 208.086 105.448 208.386 106.012C208.686 106.564 209.088 106.99 209.592 107.29C210.096 107.578 210.654 107.722 211.266 107.722C211.878 107.722 212.436 107.578 212.94 107.29C213.456 106.99 213.864 106.564 214.164 106.012C214.464 105.448 214.614 104.794 214.614 104.05Z" fill="#1F1F1F"/>
<path d="M223.34 109.162C222.416 109.162 221.576 108.952 220.82 108.532C220.076 108.112 219.488 107.518 219.056 106.75C218.636 105.97 218.426 105.07 218.426 104.05C218.426 103.042 218.642 102.154 219.074 101.386C219.518 100.606 220.118 100.012 220.874 99.604C221.63 99.184 222.476 98.974 223.412 98.974C224.348 98.974 225.194 99.184 225.95 99.604C226.706 100.012 227.3 100.6 227.732 101.368C228.176 102.136 228.398 103.03 228.398 104.05C228.398 105.07 228.17 105.97 227.714 106.75C227.27 107.518 226.664 108.112 225.896 108.532C225.128 108.952 224.276 109.162 223.34 109.162ZM223.34 107.722C223.928 107.722 224.48 107.584 224.996 107.308C225.512 107.032 225.926 106.618 226.238 106.066C226.562 105.514 226.724 104.842 226.724 104.05C226.724 103.258 226.568 102.586 226.256 102.034C225.944 101.482 225.536 101.074 225.032 100.81C224.528 100.534 223.982 100.396 223.394 100.396C222.794 100.396 222.242 100.534 221.738 100.81C221.246 101.074 220.85 101.482 220.55 102.034C220.25 102.586 220.1 103.258 220.1 104.05C220.1 104.854 220.244 105.532 220.532 106.084C220.832 106.636 221.228 107.05 221.72 107.326C222.212 107.59 222.752 107.722 223.34 107.722Z" fill="#1F1F1F"/>
<path d="M236.989 107.668H241.381V109H235.351V96.454H236.989V107.668Z" fill="#1F1F1F"/>
<path d="M242.508 104.032C242.508 103.024 242.712 102.142 243.12 101.386C243.528 100.618 244.086 100.024 244.794 99.604C245.514 99.184 246.312 98.974 247.188 98.974C248.052 98.974 248.802 99.16 249.438 99.532C250.074 99.904 250.548 100.372 250.86 100.936V99.136H252.516V109H250.86V107.164C250.536 107.74 250.05 108.22 249.402 108.604C248.766 108.976 248.022 109.162 247.17 109.162C246.294 109.162 245.502 108.946 244.794 108.514C244.086 108.082 243.528 107.476 243.12 106.696C242.712 105.916 242.508 105.028 242.508 104.032ZM250.86 104.05C250.86 103.306 250.71 102.658 250.41 102.106C250.11 101.554 249.702 101.134 249.186 100.846C248.682 100.546 248.124 100.396 247.512 100.396C246.9 100.396 246.342 100.54 245.838 100.828C245.334 101.116 244.932 101.536 244.632 102.088C244.332 102.64 244.182 103.288 244.182 104.032C244.182 104.788 244.332 105.448 244.632 106.012C244.932 106.564 245.334 106.99 245.838 107.29C246.342 107.578 246.9 107.722 247.512 107.722C248.124 107.722 248.682 107.578 249.186 107.29C249.702 106.99 250.11 106.564 250.41 106.012C250.71 105.448 250.86 104.794 250.86 104.05Z" fill="#1F1F1F"/>
<path d="M260.091 98.956C261.291 98.956 262.263 99.322 263.007 100.054C263.751 100.774 264.123 101.818 264.123 103.186V109H262.503V103.42C262.503 102.436 262.257 101.686 261.765 101.17C261.273 100.642 260.601 100.378 259.749 100.378C258.885 100.378 258.195 100.648 257.679 101.188C257.175 101.728 256.923 102.514 256.923 103.546V109H255.285V99.136H256.923V100.54C257.247 100.036 257.685 99.646 258.237 99.37C258.801 99.094 259.419 98.956 260.091 98.956Z" fill="#1F1F1F"/>
<path d="M275.798 103.69C275.798 104.002 275.78 104.332 275.744 104.68H267.86C267.92 105.652 268.25 106.414 268.85 106.966C269.462 107.506 270.2 107.776 271.064 107.776C271.772 107.776 272.36 107.614 272.828 107.29C273.308 106.954 273.644 106.51 273.836 105.958H275.6C275.336 106.906 274.808 107.68 274.016 108.28C273.224 108.868 272.24 109.162 271.064 109.162C270.128 109.162 269.288 108.952 268.544 108.532C267.812 108.112 267.236 107.518 266.816 106.75C266.396 105.97 266.186 105.07 266.186 104.05C266.186 103.03 266.39 102.136 266.798 101.368C267.206 100.6 267.776 100.012 268.508 99.604C269.252 99.184 270.104 98.974 271.064 98.974C272 98.974 272.828 99.178 273.548 99.586C274.268 99.994 274.82 100.558 275.204 101.278C275.6 101.986 275.798 102.79 275.798 103.69ZM274.106 103.348C274.106 102.724 273.968 102.19 273.692 101.746C273.416 101.29 273.038 100.948 272.558 100.72C272.09 100.48 271.568 100.36 270.992 100.36C270.164 100.36 269.456 100.624 268.868 101.152C268.292 101.68 267.962 102.412 267.878 103.348H274.106Z" fill="#1F1F1F"/>
</g>
<rect x="4.02734" y="89.8027" width="5.04561" height="6.05473" fill="#7B87A1"/>
<rect x="428.949" y="791.889" width="5.81254" height="6.53911" fill="#7B87A1"/>
<rect x="95.8574" y="879.945" width="6.05473" height="6.05473" transform="rotate(90 95.8574 879.945)" fill="#7B87A1"/>
<rect x="9.23438" y="791.889" width="6.05473" height="6.05473" transform="rotate(90 9.23438 791.889)" fill="#7B87A1"/>
<rect x="343.093" y="1" width="6.05473" height="6.05473" fill="#7B87A1"/>
<rect x="434.761" y="90.3679" width="5.81254" height="5.81254" transform="rotate(90 434.761 90.3679)" fill="#7B87A1"/>
<path d="M125 8H311.977V21.0233H292.442C289.873 21.0233 287.791 23.1057 287.791 25.6744V28.4651C287.791 39.2539 279.045 48 268.256 48H168.721C157.932 48 149.186 39.2539 149.186 28.4651V25.6744C149.186 23.1057 147.104 21.0233 144.535 21.0233H125V8Z" fill="black"/>
<rect x="189" y="29.8604" width="59.5349" height="3.72093" rx="1.86046" fill="#161616"/>
<circle cx="169.808" cy="32.0289" r="6.35452" transform="rotate(-180 169.808 32.0289)" fill="url(#paint0_linear_347_1856)"/>
<circle cx="169.808" cy="32.03" r="4.11175" fill="url(#paint1_radial_347_1856)"/>
<g filter="url(#filter2_f_347_1856)">
<path d="M169.434 28.6668C168.641 28.6668 167.881 29.0213 167.32 29.6522C166.759 30.2831 166.444 31.1388 166.444 32.031C166.444 32.9232 166.759 33.7789 167.32 34.4098C167.881 35.0407 168.641 35.3951 169.434 35.3951L169.434 32.031L169.434 28.6668Z" fill="url(#paint2_linear_347_1856)"/>
</g>
<g filter="url(#filter3_f_347_1856)">
<circle cx="169.06" cy="30.5337" r="1.12139" fill="#50326D"/>
</g>
<g filter="url(#filter4_f_347_1856)">
<path d="M170.182 35.3951C170.975 35.3951 171.735 35.0406 172.296 34.4097C172.857 33.7788 173.172 32.9231 173.172 32.0309C173.172 31.1387 172.857 30.283 172.296 29.6521C171.735 29.0212 170.975 28.6667 170.182 28.6667L170.182 32.0309L170.182 35.3951Z" fill="url(#paint3_linear_347_1856)"/>
</g>
<g filter="url(#filter5_f_347_1856)">
<circle cx="170.556" cy="33.5252" r="1.12139" fill="url(#paint4_linear_347_1856)"/>
</g>
<g filter="url(#filter6_i_347_1856)">
<path d="M0.273926 158.423C0.273926 157.866 0.725725 157.414 1.28305 157.414H3.30129V188.697H1.28305C0.725725 188.697 0.273926 188.245 0.273926 187.687V158.423Z" fill="#BCCCE3"/>
<path d="M0.273926 158.423C0.273926 157.866 0.725725 157.414 1.28305 157.414H3.30129V188.697H1.28305C0.725725 188.697 0.273926 188.245 0.273926 187.687V158.423Z" fill="url(#paint5_linear_347_1856)" fill-opacity="0.8"/>
</g>
<path d="M0.273926 158.423C0.273926 157.866 0.725725 157.414 1.28305 157.414H3.30129V188.697H1.28305C0.725725 188.697 0.273926 188.245 0.273926 187.687V158.423Z" stroke="#305183" stroke-width="0.504561"/>
<g filter="url(#filter7_i_347_1856)">
<path d="M437.789 238.144C437.789 237.586 437.337 237.135 436.78 237.135H434.762V331.992H436.78C437.337 331.992 437.789 331.54 437.789 330.983V238.144Z" fill="#BCCCE3"/>
<path d="M437.789 238.144C437.789 237.586 437.337 237.135 436.78 237.135H434.762V331.992H436.78C437.337 331.992 437.789 331.54 437.789 330.983V238.144Z" fill="url(#paint6_linear_347_1856)" fill-opacity="0.8"/>
</g>
<path d="M437.789 238.144C437.789 237.586 437.337 237.135 436.78 237.135H434.762V331.992H436.78C437.337 331.992 437.789 331.54 437.789 330.983V238.144Z" stroke="#305183" stroke-width="0.504561"/>
<g filter="url(#filter8_i_347_1856)">
<path d="M0.273926 216.952C0.273926 216.395 0.725725 215.943 1.28305 215.943H3.30129V276.49H1.28305C0.725725 276.49 0.273926 276.038 0.273926 275.481V216.952Z" fill="#BCCCE3"/>
<path d="M0.273926 216.952C0.273926 216.395 0.725725 215.943 1.28305 215.943H3.30129V276.49H1.28305C0.725725 276.49 0.273926 276.038 0.273926 275.481V216.952Z" fill="url(#paint7_linear_347_1856)" fill-opacity="0.8"/>
</g>
<path d="M0.273926 216.952C0.273926 216.395 0.725725 215.943 1.28305 215.943H3.30129V276.49H1.28305C0.725725 276.49 0.273926 276.038 0.273926 275.481V216.952Z" stroke="#305183" stroke-width="0.504561"/>
<g filter="url(#filter9_i_347_1856)">
<path d="M0.273926 294.655C0.273926 294.097 0.725725 293.646 1.28305 293.646H3.30129V354.193H1.28305C0.725725 354.193 0.273926 353.741 0.273926 353.184V294.655Z" fill="#BCCCE3"/>
<path d="M0.273926 294.655C0.273926 294.097 0.725725 293.646 1.28305 293.646H3.30129V354.193H1.28305C0.725725 354.193 0.273926 353.741 0.273926 353.184V294.655Z" fill="url(#paint8_linear_347_1856)" fill-opacity="0.8"/>
</g>
<path d="M0.273926 294.655C0.273926 294.097 0.725725 293.646 1.28305 293.646H3.30129V354.193H1.28305C0.725725 354.193 0.273926 353.741 0.273926 353.184V294.655Z" stroke="#305183" stroke-width="0.504561"/>
<path d="M65.8491 41.7231C63.251 41.7231 61.3999 43.4995 61.3999 45.9316V45.9482C61.3999 48.2227 63.0103 49.8994 65.3096 49.8994C66.9531 49.8994 67.999 49.061 68.439 48.1147H68.605C68.5635 50.5386 67.7749 52.5391 65.7993 52.5391C64.7451 52.5391 64.0063 51.9912 63.6909 51.1528L63.666 51.0698H61.5576L61.5742 51.1611C61.9561 52.9956 63.5996 54.2988 65.7993 54.2988C68.8125 54.2988 70.6304 51.9082 70.6304 47.874V47.8574C70.6304 43.541 68.4058 41.7231 65.8491 41.7231ZM65.8408 48.2559C64.4795 48.2559 63.4917 47.2598 63.4917 45.8735V45.8569C63.4917 44.5205 64.5459 43.4663 65.8657 43.4663C67.1938 43.4663 68.2314 44.5371 68.2314 45.9067V45.9233C68.2314 47.2764 67.1938 48.2559 65.8408 48.2559Z" fill="#010101"/>
<path d="M73.9909 46.2388C74.7546 46.2388 75.3107 45.6577 75.3107 44.9272C75.3107 44.1885 74.7546 43.6157 73.9909 43.6157C73.2356 43.6157 72.6711 44.1885 72.6711 44.9272C72.6711 45.6577 73.2356 46.2388 73.9909 46.2388ZM73.9909 52.3979C74.7546 52.3979 75.3107 51.8252 75.3107 51.0864C75.3107 50.3477 74.7546 49.7749 73.9909 49.7749C73.2356 49.7749 72.6711 50.3477 72.6711 51.0864C72.6711 51.8252 73.2356 52.3979 73.9909 52.3979Z" fill="#010101"/>
<path d="M83.162 54H85.2123V51.7007H86.8227V49.9326H85.2123V42.022H82.1825C80.5556 44.4956 78.8539 47.2515 77.3017 49.9492V51.7007H83.162V54ZM79.2939 49.9824V49.8579C80.456 47.8242 81.8422 45.6079 83.0707 43.7319H83.1952V49.9824H79.2939Z" fill="#010101"/>
<path d="M91.3785 54H93.5201V42.022H91.3868L88.2574 44.2217V46.2388L91.2374 44.1304H91.3785V54Z" fill="#010101"/>
<path opacity="0.35" d="M363.971 41.5275H380.971C382.888 41.5275 384.443 43.0822 384.443 45V50C384.443 51.9178 382.888 53.4725 380.971 53.4725H363.971C362.053 53.4725 360.498 51.9178 360.498 50V45C360.498 43.0822 362.053 41.5275 363.971 41.5275Z" stroke="black" stroke-width="1.05509"/>
<path opacity="0.4" d="M385.971 46V50.2203C386.82 49.8629 387.372 49.0314 387.372 48.1102C387.372 47.1889 386.82 46.3574 385.971 46" fill="black"/>
<path d="M361.971 45C361.971 43.8954 362.866 43 363.971 43H380.971C382.075 43 382.971 43.8954 382.971 45V50C382.971 51.1046 382.075 52 380.971 52H363.971C362.866 52 361.971 51.1046 361.971 50V45Z" fill="black"/>
<path fill-rule="evenodd" clip-rule="evenodd" d="M344.471 44.5875C346.938 44.5876 349.31 45.5551 351.098 47.2898C351.232 47.4237 351.447 47.4221 351.58 47.286L352.867 45.9605C352.934 45.8915 352.971 45.798 352.971 45.7008C352.97 45.6035 352.932 45.5105 352.864 45.4423C348.172 40.8526 340.77 40.8526 336.078 45.4423C336.01 45.5105 335.971 45.6034 335.971 45.7007C335.97 45.7979 336.007 45.8914 336.075 45.9605L337.362 47.286C337.494 47.4223 337.709 47.424 337.844 47.2898C339.632 45.5549 342.004 44.5875 344.471 44.5875ZM344.507 48.6724C345.862 48.6723 347.169 49.1864 348.173 50.115C348.309 50.2467 348.523 50.2439 348.656 50.1085L349.941 48.7829C350.009 48.7134 350.046 48.6191 350.045 48.5211C350.044 48.4231 350.005 48.3295 349.936 48.2614C346.877 45.3568 342.139 45.3568 339.08 48.2614C339.011 48.3295 338.972 48.4231 338.971 48.5212C338.97 48.6192 339.007 48.7135 339.075 48.7829L340.36 50.1085C340.493 50.2439 340.707 50.2467 340.843 50.115C341.846 49.1871 343.152 48.6729 344.507 48.6724ZM347.12 51.3427C347.122 51.441 347.084 51.5357 347.016 51.6046L344.792 53.8948C344.727 53.9621 344.638 54 344.546 54C344.453 54 344.364 53.9621 344.299 53.8948L342.075 51.6046C342.007 51.5357 341.969 51.4409 341.971 51.3426C341.973 51.2443 342.015 51.1512 342.086 51.0853C343.506 49.8595 345.585 49.8595 347.005 51.0853C347.077 51.1513 347.118 51.2444 347.12 51.3427Z" fill="black"/>
<path d="M319.971 45C319.971 44.4477 320.418 44 320.971 44H321.971C322.523 44 322.971 44.4477 322.971 45V53C322.971 53.5523 322.523 54 321.971 54H320.971C320.418 54 319.971 53.5523 319.971 53V45Z" fill="black"/>
<path d="M324.971 43C324.971 42.4477 325.418 42 325.971 42H326.971C327.523 42 327.971 42.4477 327.971 43V53C327.971 53.5523 327.523 54 326.971 54H325.971C325.418 54 324.971 53.5523 324.971 53V43Z" fill="black"/>
<path d="M314.971 48.5C314.971 47.9477 315.418 47.5 315.971 47.5H316.971C317.523 47.5 317.971 47.9477 317.971 48.5V53C317.971 53.5523 317.523 54 316.971 54H315.971C315.418 54 314.971 53.5523 314.971 53V48.5Z" fill="black"/>
<path d="M309.971 51C309.971 50.4477 310.418 50 310.971 50H311.971C312.523 50 312.971 50.4477 312.971 51V53C312.971 53.5523 312.523 54 311.971 54H310.971C310.418 54 309.971 53.5523 309.971 53V51Z" fill="black"/>
<rect x="151.971" y="852" width="134" height="5" rx="2.5" fill="black"/>
<defs>
<filter id="filter0_ii_347_1856" x="3.18018" y="0.65686" width="431.582" height="885.686" filterUnits="userSpaceOnUse" color-interpolation-filters="sRGB">
<feFlood flood-opacity="0" result="BackgroundImageFix"/>
<feBlend mode="normal" in="SourceGraphic" in2="BackgroundImageFix" result="shape"/>
<feColorMatrix in="SourceAlpha" type="matrix" values="0 0 0 0 0 0 0 0 0 0 0 0 0 0 0 0 0 0 127 0" result="hardAlpha"/>
<feMorphology radius="3.02737" operator="erode" in="SourceAlpha" result="effect1_innerShadow_347_1856"/>
<feOffset/>
<feComposite in2="hardAlpha" operator="arithmetic" k2="-1" k3="1"/>
<feColorMatrix type="matrix" values="0 0 0 0 1 0 0 0 0 1 0 0 0 0 1 0 0 0 1 0"/>
<feBlend mode="normal" in2="shape" result="effect1_innerShadow_347_1856"/>
<feColorMatrix in="SourceAlpha" type="matrix" values="0 0 0 0 0 0 0 0 0 0 0 0 0 0 0 0 0 0 127 0" result="hardAlpha"/>
<feMorphology radius="1.01" operator="erode" in="SourceAlpha" result="effect2_innerShadow_347_1856"/>
<feOffset/>
<feGaussianBlur stdDeviation="0.504561"/>
<feComposite in2="hardAlpha" operator="arithmetic" k2="-1" k3="1"/>
<feColorMatrix type="matrix" values="0 0 0 0 0.0583333 0 0 0 0 0.21 0 0 0 0 0.4375 0 0 0 1 0"/>
<feBlend mode="normal" in2="effect1_innerShadow_347_1856" result="effect2_innerShadow_347_1856"/>
</filter>
<filter id="filter1_d_347_1856" x="23.9707" y="55" width="390" height="96" filterUnits="userSpaceOnUse" color-interpolation-filters="sRGB">
<feFlood flood-opacity="0" result="BackgroundImageFix"/>
<feColorMatrix in="SourceAlpha" type="matrix" values="0 0 0 0 0 0 0 0 0 0 0 0 0 0 0 0 0 0 127 0" result="hardAlpha"/>
<feOffset/>
<feGaussianBlur stdDeviation="12"/>
<feComposite in2="hardAlpha" operator="out"/>
<feColorMatrix type="matrix" values="0 0 0 0 0 0 0 0 0 0 0 0 0 0 0 0 0 0 0.15 0"/>
<feBlend mode="normal" in2="BackgroundImageFix" result="effect1_dropShadow_347_1856"/>
<feBlend mode="normal" in="SourceGraphic" in2="effect1_dropShadow_347_1856" result="shape"/>
</filter>
<filter id="filter2_f_347_1856" x="165.514" y="27.7366" width="4.8507" height="8.58874" filterUnits="userSpaceOnUse" color-interpolation-filters="sRGB">
<feFlood flood-opacity="0" result="BackgroundImageFix"/>
<feBlend mode="normal" in="SourceGraphic" in2="BackgroundImageFix" result="shape"/>
<feGaussianBlur stdDeviation="0.465116" result="effect1_foregroundBlur_347_1856"/>
</filter>
<filter id="filter3_f_347_1856" x="164.676" y="26.1492" width="8.76905" height="8.76917" filterUnits="userSpaceOnUse" color-interpolation-filters="sRGB">
<feFlood flood-opacity="0" result="BackgroundImageFix"/>
<feBlend mode="normal" in="SourceGraphic" in2="BackgroundImageFix" result="shape"/>
<feGaussianBlur stdDeviation="1.63159" result="effect1_foregroundBlur_347_1856"/>
</filter>
<filter id="filter4_f_347_1856" x="169.251" y="27.7365" width="4.8507" height="8.58874" filterUnits="userSpaceOnUse" color-interpolation-filters="sRGB">
<feFlood flood-opacity="0" result="BackgroundImageFix"/>
<feBlend mode="normal" in="SourceGraphic" in2="BackgroundImageFix" result="shape"/>
<feGaussianBlur stdDeviation="0.465116" result="effect1_foregroundBlur_347_1856"/>
</filter>
<filter id="filter5_f_347_1856" x="168.347" y="31.3161" width="4.41813" height="4.41826" filterUnits="userSpaceOnUse" color-interpolation-filters="sRGB">
<feFlood flood-opacity="0" result="BackgroundImageFix"/>
<feBlend mode="normal" in="SourceGraphic" in2="BackgroundImageFix" result="shape"/>
<feGaussianBlur stdDeviation="0.543865" result="effect1_foregroundBlur_347_1856"/>
</filter>
<filter id="filter6_i_347_1856" x="0.0214844" y="156.152" width="4.54135" height="32.7965" filterUnits="userSpaceOnUse" color-interpolation-filters="sRGB">
<feFlood flood-opacity="0" result="BackgroundImageFix"/>
<feBlend mode="normal" in="SourceGraphic" in2="BackgroundImageFix" result="shape"/>
<feColorMatrix in="SourceAlpha" type="matrix" values="0 0 0 0 0 0 0 0 0 0 0 0 0 0 0 0 0 0 127 0" result="hardAlpha"/>
<feOffset dx="1.00912" dy="-1.00912"/>
<feGaussianBlur stdDeviation="0.504561"/>
<feComposite in2="hardAlpha" operator="arithmetic" k2="-1" k3="1"/>
<feColorMatrix type="matrix" values="0 0 0 0 1 0 0 0 0 1 0 0 0 0 1 0 0 0 1 0"/>
<feBlend mode="normal" in2="shape" result="effect1_innerShadow_347_1856"/>
</filter>
<filter id="filter7_i_347_1856" x="434.509" y="235.873" width="4.54135" height="96.3712" filterUnits="userSpaceOnUse" color-interpolation-filters="sRGB">
<feFlood flood-opacity="0" result="BackgroundImageFix"/>
<feBlend mode="normal" in="SourceGraphic" in2="BackgroundImageFix" result="shape"/>
<feColorMatrix in="SourceAlpha" type="matrix" values="0 0 0 0 0 0 0 0 0 0 0 0 0 0 0 0 0 0 127 0" result="hardAlpha"/>
<feOffset dx="1.00912" dy="-1.00912"/>
<feGaussianBlur stdDeviation="0.504561"/>
<feComposite in2="hardAlpha" operator="arithmetic" k2="-1" k3="1"/>
<feColorMatrix type="matrix" values="0 0 0 0 1 0 0 0 0 1 0 0 0 0 1 0 0 0 1 0"/>
<feBlend mode="normal" in2="shape" result="effect1_innerShadow_347_1856"/>
</filter>
<filter id="filter8_i_347_1856" x="0.0214844" y="214.681" width="4.54135" height="62.061" filterUnits="userSpaceOnUse" color-interpolation-filters="sRGB">
<feFlood flood-opacity="0" result="BackgroundImageFix"/>
<feBlend mode="normal" in="SourceGraphic" in2="BackgroundImageFix" result="shape"/>
<feColorMatrix in="SourceAlpha" type="matrix" values="0 0 0 0 0 0 0 0 0 0 0 0 0 0 0 0 0 0 127 0" result="hardAlpha"/>
<feOffset dx="1.00912" dy="-1.00912"/>
<feGaussianBlur stdDeviation="0.504561"/>
<feComposite in2="hardAlpha" operator="arithmetic" k2="-1" k3="1"/>
<feColorMatrix type="matrix" values="0 0 0 0 1 0 0 0 0 1 0 0 0 0 1 0 0 0 1 0"/>
<feBlend mode="normal" in2="shape" result="effect1_innerShadow_347_1856"/>
</filter>
<filter id="filter9_i_347_1856" x="0.0214844" y="292.384" width="4.54135" height="62.061" filterUnits="userSpaceOnUse" color-interpolation-filters="sRGB">
<feFlood flood-opacity="0" result="BackgroundImageFix"/>
<feBlend mode="normal" in="SourceGraphic" in2="BackgroundImageFix" result="shape"/>
<feColorMatrix in="SourceAlpha" type="matrix" values="0 0 0 0 0 0 0 0 0 0 0 0 0 0 0 0 0 0 127 0" result="hardAlpha"/>
<feOffset dx="1.00912" dy="-1.00912"/>
<feGaussianBlur stdDeviation="0.504561"/>
<feComposite in2="hardAlpha" operator="arithmetic" k2="-1" k3="1"/>
<feColorMatrix type="matrix" values="0 0 0 0 1 0 0 0 0 1 0 0 0 0 1 0 0 0 1 0"/>
<feBlend mode="normal" in2="shape" result="effect1_innerShadow_347_1856"/>
</filter>
<linearGradient id="paint0_linear_347_1856" x1="164.575" y1="28.6647" x2="174.667" y2="34.6455" gradientUnits="userSpaceOnUse">
<stop stop-color="#222222"/>
<stop offset="1" stop-color="#0B0B0B"/>
</linearGradient>
<radialGradient id="paint1_radial_347_1856" cx="0" cy="0" r="1" gradientUnits="userSpaceOnUse" gradientTransform="translate(169.808 31.6562) rotate(37.875) scale(4.26192 4.29342)">
<stop stop-color="#152457"/>
<stop offset="1"/>
</radialGradient>
<linearGradient id="paint2_linear_347_1856" x1="167.191" y1="29.4144" x2="169.06" y2="35.3951" gradientUnits="userSpaceOnUse">
<stop stop-color="#20569B"/>
<stop offset="0.677083" stop-color="#061127"/>
</linearGradient>
<linearGradient id="paint3_linear_347_1856" x1="172.424" y1="34.6475" x2="170.555" y2="28.6667" gradientUnits="userSpaceOnUse">
<stop stop-color="#3D6495"/>
<stop offset="0.71875" stop-color="#061127"/>
</linearGradient>
<linearGradient id="paint4_linear_347_1856" x1="172.051" y1="34.2728" x2="170.556" y2="32.4038" gradientUnits="userSpaceOnUse">
<stop stop-color="#3291AF"/>
<stop offset="1" stop-color="#3291AF" stop-opacity="0"/>
</linearGradient>
<linearGradient id="paint5_linear_347_1856" x1="1.78761" y1="157.414" x2="1.78761" y2="188.697" gradientUnits="userSpaceOnUse">
<stop offset="0.00311524" stop-color="#CCDAEB"/>
<stop offset="0.09375" stop-color="#162231"/>
<stop offset="0.182292" stop-color="#BDCDE3"/>
<stop offset="0.838542" stop-color="#BECEE3"/>
<stop offset="0.916667" stop-color="#293848"/>
<stop offset="1" stop-color="#B5C4D5"/>
</linearGradient>
<linearGradient id="paint6_linear_347_1856" x1="436.275" y1="237.135" x2="436.275" y2="331.992" gradientUnits="userSpaceOnUse">
<stop offset="0.00311524" stop-color="#CCDAEB"/>
<stop offset="0.09375" stop-color="#162231"/>
<stop offset="0.182292" stop-color="#BDCDE3"/>
<stop offset="0.838542" stop-color="#BECEE3"/>
<stop offset="0.916667" stop-color="#293848"/>
<stop offset="1" stop-color="#B5C4D5"/>
</linearGradient>
<linearGradient id="paint7_linear_347_1856" x1="1.78761" y1="215.943" x2="1.78761" y2="276.49" gradientUnits="userSpaceOnUse">
<stop offset="0.00311524" stop-color="#CCDAEB"/>
<stop offset="0.09375" stop-color="#162231"/>
<stop offset="0.182292" stop-color="#BDCDE3"/>
<stop offset="0.838542" stop-color="#BECEE3"/>
<stop offset="0.916667" stop-color="#293848"/>
<stop offset="1" stop-color="#B5C4D5"/>
</linearGradient>
<linearGradient id="paint8_linear_347_1856" x1="1.78761" y1="293.646" x2="1.78761" y2="354.193" gradientUnits="userSpaceOnUse">
<stop offset="0.00311524" stop-color="#CCDAEB"/>
<stop offset="0.09375" stop-color="#162231"/>
<stop offset="0.182292" stop-color="#BDCDE3"/>
<stop offset="0.838542" stop-color="#BECEE3"/>
<stop offset="0.916667" stop-color="#293848"/>
<stop offset="1" stop-color="#B5C4D5"/>
</linearGradient>
</defs>
</svg>
