<svg width="24" height="25" viewBox="0 0 24 25" fill="none" xmlns="http://www.w3.org/2000/svg">
<mask id="mask0_255_1256" style="mask-type:alpha" maskUnits="userSpaceOnUse" x="0" y="0" width="24" height="25">
<rect y="0.5" width="24" height="24" fill="#D9D9D9"/>
</mask>
<g mask="url(#mask0_255_1256)">
<path d="M4 21.5V19.5H20V21.5H4ZM8 17.5C6.9 17.5 5.95833 17.1083 5.175 16.325C4.39167 15.5417 4 14.6 4 13.5V3.5H20C20.55 3.5 21.021 3.69567 21.413 4.087C21.8043 4.479 22 4.95 22 5.5V8.5C22 9.05 21.8043 9.52067 21.413 9.912C21.021 10.304 20.55 10.5 20 10.5H18V13.5C18 14.6 17.6083 15.5417 16.825 16.325C16.0417 17.1083 15.1 17.5 14 17.5H8ZM8 15.5H14C14.55 15.5 15.021 15.304 15.413 14.912C15.8043 14.5207 16 14.05 16 13.5V5.5H6V13.5C6 14.05 6.196 14.5207 6.588 14.912C6.97933 15.304 7.45 15.5 8 15.5ZM18 8.5H20V5.5H18V8.5Z" fill="white"/>
</g>
</svg>
