<svg width="56" height="27" viewBox="0 0 56 27" fill="none" xmlns="http://www.w3.org/2000/svg">
<path d="M52.3 14L46.6 10.4L42.8 4.7L41.2 2.3C40.6 1.5 39.6 1 38.5 1H4.4C3.3 1 2.5 1.9 2.5 2.9V3.5V5.5V21.6L6.5 21.8L50.9 21.3L53.4 20.7V16C53.3 15.2 52.9 14.4 52.3 14Z" fill="white" stroke="#1F1F1F" stroke-width="2" stroke-miterlimit="10"/>
<path d="M43.5 21.8H13.8" stroke="#1F1F1F" stroke-width="2" stroke-miterlimit="10"/>
<path d="M41.8999 11.4L37.8999 5.60001H33.3999V11.2L41.8999 11.4Z" stroke="#1F1F1F" stroke-width="2" stroke-miterlimit="10"/>
<path d="M53.7 22.7H2.29995C1.99995 22.7 1.69995 22.4 1.69995 22.1V19.7C1.69995 19.4 1.99995 19.1 2.29995 19.1H53.7C54 19.1 54.2999 19.4 54.2999 19.7V22.1C54.2999 22.5 54.1 22.7 53.7 22.7Z" fill="#F47121" stroke="#1F1F1F" stroke-width="2" stroke-miterlimit="10"/>
<path d="M46.2 25.7C48.2435 25.7 49.9 24.0434 49.9 22C49.9 19.9565 48.2435 18.3 46.2 18.3C44.1565 18.3 42.5 19.9565 42.5 22C42.5 24.0434 44.1565 25.7 46.2 25.7Z" fill="white" stroke="#1F1F1F" stroke-width="2" stroke-miterlimit="10"/>
<path d="M12 25.7C14.0435 25.7 15.7 24.0434 15.7 22C15.7 19.9565 14.0435 18.3 12 18.3C9.95659 18.3 8.30005 19.9565 8.30005 22C8.30005 24.0434 9.95659 25.7 12 25.7Z" fill="white" stroke="#1F1F1F" stroke-width="2" stroke-miterlimit="10"/>
</svg>
